<svg width="239" height="221" viewBox="0 0 239 221" fill="none" xmlns="http://www.w3.org/2000/svg">
<g opacity="0.5" clip-path="url(#clip0_206_2)">
<path d="M85.0873 8.20204L10.6389 104.909L210.857 55.1361L99.3294 4.61219C96.8991 3.51316 94.1682 3.26976 91.5819 3.92167C88.9956 4.57358 86.7063 6.08236 85.0873 8.20204V8.20204Z" fill="#EBEBEB"/>
<path d="M9.58347 105.598L84.7593 7.94407C86.4304 5.74154 88.8021 4.17414 91.4835 3.50024C94.1649 2.82634 96.9959 3.08617 99.5098 4.2369L212.133 55.2535L9.58347 105.598ZM94.4417 3.92406C92.6929 3.92524 90.9681 4.33113 89.4024 5.10995C87.8366 5.88878 86.4723 7.0194 85.4162 8.41334V8.41334L11.6873 104.229L209.606 55.0267L99.1734 4.97208C97.6864 4.30166 96.0729 3.95764 94.4417 3.96317V3.92406Z" fill="#E0E0E0"/>
<path d="M10.6371 104.936L211.561 54.9894L238.625 163.861C239.161 166.017 238.818 168.297 237.673 170.201C236.527 172.104 234.672 173.475 232.516 174.011L47.8584 219.914C45.7025 220.45 43.4219 220.108 41.5185 218.962C39.6151 217.817 38.2447 215.962 37.7087 213.806L10.6447 104.934L10.6371 104.936Z" fill="#F0F0F0"/>
<path d="M199.189 60.9313L129.581 132.048L24.3416 108.366L12.305 52.5628C11.6342 49.682 12.1237 46.6531 13.6675 44.1302C15.2114 41.6073 17.6858 39.793 20.5562 39.0793L172.754 1.26459C174.188 0.906647 175.68 0.835201 177.142 1.05434C178.605 1.27348 180.01 1.77891 181.277 2.54169C182.544 3.30447 183.648 4.30962 184.526 5.49962C185.404 6.68962 186.038 8.04109 186.393 9.47668L199.189 60.9313Z" fill="white"/>
<path d="M120.024 126.456L37.3712 212.832C37.6622 214.006 38.1819 215.111 38.9004 216.085C39.619 217.058 40.5223 217.88 41.5589 218.504C42.5954 219.128 43.7448 219.542 44.9413 219.721C46.1378 219.901 47.3579 219.842 48.5319 219.55L231.779 173.977C234.149 173.387 236.189 171.88 237.449 169.787C238.708 167.695 239.086 165.187 238.497 162.816L238.325 162.128L130.238 124.016C128.482 123.395 126.583 123.295 124.771 123.728C122.959 124.161 121.31 125.108 120.024 126.456V126.456Z" fill="#E0E0E0"/>
<path d="M93.616 47.3416L34.0747 62.1538L35.5871 68.2332L95.1283 53.421L93.616 47.3416Z" fill="#E0E0E0"/>
<path d="M170.014 44.7028L37.9078 77.5671L39.6166 84.4358L171.723 51.5714L170.014 44.7028Z" fill="#E0E0E0"/>
<path d="M174.193 61.4833L42.0864 94.3477L43.7952 101.216L175.902 68.352L174.193 61.4833Z" fill="#E0E0E0"/>
<path d="M176.977 83.7141L172.84 87.8514L61.9295 116.844L47.4371 113.458L46.8896 111.885L178.572 79.131L179.143 81.4069L176.977 83.7141Z" fill="#E0E0E0"/>
<path d="M148.602 112.613L98.6414 125.033L83.3669 121.544L158.034 102.969L148.602 112.613Z" fill="#E0E0E0"/>
<path d="M117.005 129.6C117.005 129.6 116.95 129.686 116.817 129.835L116.223 130.484L113.923 132.932L105.406 141.95C98.1954 149.544 88.2001 160.04 77.1333 171.544C66.0665 183.049 55.8992 193.388 48.4927 200.787C44.7855 204.487 41.7666 207.474 39.6705 209.515L37.2538 211.862L36.6125 212.464C36.5456 212.539 36.4694 212.604 36.3857 212.66C36.4435 212.578 36.509 212.502 36.5812 212.433L37.1913 211.799L39.5376 209.398L48.258 200.576C55.6255 193.154 65.7381 182.775 76.8283 171.255C87.9185 159.735 97.9451 149.356 105.18 141.746L113.783 132.822L116.129 130.413L116.755 129.796L117.005 129.6Z" fill="#FAFAFA"/>
<path d="M238.325 162.128C238.286 162.237 215.237 154.237 186.847 144.257C158.456 134.277 135.47 126.096 135.509 125.987C135.549 125.877 158.597 133.871 186.988 143.881C215.378 153.892 238.364 162.011 238.325 162.128Z" fill="#FAFAFA"/>
<path d="M202.497 57.506C202.454 57.5757 202.404 57.6411 202.348 57.7015L201.871 58.2412L200.018 60.2981L193.12 67.7985C187.262 74.11 179.112 82.7601 169.977 92.2001C160.842 101.64 152.45 110.063 146.334 116.117L139.053 123.25L137.051 125.166L136.527 125.659C136.401 125.768 136.339 125.823 136.331 125.815C136.381 125.748 136.436 125.685 136.495 125.627L136.988 125.103L138.935 123.132L146.115 115.906C152.184 109.797 160.537 101.335 169.664 91.9029C178.791 82.4707 186.98 73.8441 192.893 67.5951L199.932 60.1886L201.785 58.1864L202.294 57.6702C202.354 57.6074 202.423 57.5523 202.497 57.506V57.506Z" fill="#FAFAFA"/>
<path d="M117.005 129.6C116.912 129.595 116.82 129.579 116.731 129.553L115.949 129.365L112.821 128.583C110.146 127.911 106.259 126.964 101.449 125.838C91.8369 123.562 78.502 120.629 63.7672 117.438C49.0324 114.247 35.7053 111.268 26.1089 108.913C21.3068 107.74 17.4276 106.755 14.7606 106.035L11.7338 105.23L10.9517 105.003C10.8594 104.983 10.77 104.952 10.6858 104.909L10.9596 104.964L11.7417 105.144L14.831 105.926C17.5136 106.598 21.4006 107.537 26.2106 108.671C35.8226 110.947 49.1497 113.88 63.8923 117.071C78.635 120.262 91.9542 123.242 101.551 125.596C106.353 126.769 110.232 127.746 112.899 128.474L115.965 129.311L116.747 129.538L117.005 129.6Z" fill="#FAFAFA"/>
<path d="M199.189 60.9316C199.189 60.9316 199.11 60.6735 198.977 60.1495L198.406 57.9361C197.906 55.973 197.179 53.1027 196.24 49.4034L188.364 18.0254C187.952 16.3673 187.527 14.6701 187.089 12.9339C186.878 12.0736 186.659 11.1898 186.432 10.306C186.323 9.8602 186.221 9.4144 186.081 8.98424C185.952 8.54605 185.792 8.11744 185.603 7.70159C184.828 5.94699 183.609 4.42477 182.066 3.28506C180.523 2.14534 178.71 1.42749 176.805 1.20231C175.814 1.0785 174.812 1.09166 173.825 1.24142C172.84 1.41348 171.838 1.68722 170.83 1.92967L164.69 3.49388L151.879 6.65357L94.8325 20.8566L37.7389 35.0283L24.9359 38.2036L21.8466 38.9857C20.8319 39.1891 19.8373 39.4822 18.8746 39.8617C17.9408 40.2556 17.0688 40.7824 16.2858 41.4259C15.5077 42.0523 14.8207 42.7841 14.2445 43.6001C13.6765 44.4004 13.2139 45.2705 12.868 46.1889C12.5444 47.0954 12.3342 48.0385 12.2424 48.9967C12.0077 50.9128 12.5396 52.7586 12.915 54.5809C13.6971 58.2307 14.4453 61.7267 15.1596 65.0689C17.9908 78.4507 20.3371 89.2594 21.9013 96.7441C22.6834 100.483 23.2935 103.376 23.7158 105.347C23.9192 106.325 24.0678 107.076 24.1773 107.592C24.2867 108.108 24.318 108.374 24.318 108.374C24.318 108.374 24.2476 108.116 24.1303 107.592C24.013 107.068 23.8488 106.333 23.6298 105.363C23.1918 103.384 22.5583 100.49 21.7371 96.7597C20.1025 89.2828 17.7484 78.4741 14.8389 65.1315C14.1194 61.7893 13.3608 58.2933 12.563 54.6435C12.1876 52.8446 11.6401 50.9363 11.8748 48.9576C11.9699 47.9883 12.1853 47.0346 12.5161 46.1185C12.8734 45.1708 13.349 44.2721 13.9317 43.4437C14.5243 42.6006 15.2325 41.8449 16.0356 41.1991C16.8397 40.5286 17.7384 39.9805 18.7025 39.5723C19.6811 39.1729 20.6943 38.864 21.7293 38.6494L24.8577 37.8673L37.6685 34.6763L94.7621 20.4733L151.856 6.30163L164.604 3.10282L170.743 1.58554C171.752 1.33527 172.738 1.06935 173.77 0.88947C175.278 0.664291 176.815 0.74198 178.292 1.11799C179.77 1.49401 181.157 2.16079 182.373 3.07936C183.921 4.251 185.143 5.7991 185.924 7.57646C186.12 8.00358 186.282 8.44554 186.409 8.89821C186.55 9.34401 186.659 9.78981 186.769 10.2356C186.988 11.1194 187.207 12.0032 187.418 12.8713C187.848 14.6076 188.263 16.3047 188.677 17.9628L196.42 49.3955C197.327 53.1027 197.984 55.9808 198.508 57.9439C198.735 58.9216 198.915 59.6646 199.032 60.1729C199.149 60.6813 199.189 60.9316 199.189 60.9316Z" fill="#E0E0E0"/>
<path d="M111.741 19.6522L104.006 25.5415L104.382 36.7881L97.3038 31.1648L93.3933 34.5122L78.5333 16.1641L111.741 19.6522Z" fill="#5CCD6A"/>
<g opacity="0.3">
<path d="M101.105 27.9342C101.105 28.2783 104.382 36.7876 104.382 36.7876L97.3038 31.1643L101.105 27.9342Z" fill="black"/>
</g>
<path d="M78.5333 16.1641L101.097 27.9347L104.382 36.7881L104.006 25.5415L78.5333 16.1641Z" fill="#54BE61"/>
<path d="M141.102 167.908C139.711 167.862 138.345 167.529 137.089 166.93C138.48 166.976 139.846 167.309 141.102 167.908Z" fill="#495D4C"/>
<path d="M147.499 169.472C147.499 169.589 146.913 169.55 146.256 169.394C145.599 169.237 145.083 169.003 145.106 168.885C145.13 168.768 145.693 168.807 146.357 168.971C147.022 169.136 147.531 169.355 147.499 169.472Z" fill="#495D4C"/>
<path d="M121.096 35.3175C120.402 35.3276 119.711 35.2192 119.054 34.9969C118.366 34.9147 117.698 34.708 117.083 34.3868C117.781 34.2952 118.49 34.3648 119.156 34.5902C119.852 34.6731 120.517 34.9226 121.096 35.3175V35.3175Z" fill="#495D4C"/>
<path d="M128.666 38.5629C127.99 38.4151 127.344 38.1504 126.758 37.7808C126.11 37.5371 125.509 37.1825 124.983 36.7328C125.681 36.7992 126.353 37.0296 126.946 37.4054C127.97 37.9059 128.729 38.4612 128.666 38.5629Z" fill="#495D4C"/>
<path d="M135.228 43.5372C135.142 43.6233 134.446 43.0367 133.57 42.3015C132.694 41.5663 132.006 40.9407 132.108 40.839C132.769 41.0768 133.366 41.465 133.852 41.973C134.72 42.7239 135.306 43.459 135.228 43.5372Z" fill="#495D4C"/>
<path d="M140.234 50.0678C140.124 50.1225 139.608 49.3639 138.982 48.4253C138.548 47.8851 138.204 47.2775 137.965 46.6265C138.051 46.5561 138.708 47.2287 139.342 48.1907C139.783 48.7371 140.089 49.3804 140.234 50.0678V50.0678Z" fill="#495D4C"/>
<path d="M143.073 57.7874C142.737 57.1809 142.504 56.5228 142.384 55.84C142.123 55.1953 141.977 54.5096 141.954 53.8143C142.384 54.3732 142.671 55.0281 142.791 55.7227C143.054 56.3771 143.151 57.0865 143.073 57.7874Z" fill="#495D4C"/>
<path d="M143.495 65.9995C143.355 65.3203 143.326 64.6231 143.409 63.9347C143.35 63.2434 143.414 62.5471 143.597 61.8778C143.84 62.5371 143.923 63.2448 143.839 63.9426C143.888 64.6458 143.77 65.3506 143.495 65.9995V65.9995Z" fill="#495D4C"/>
<path d="M141.36 73.93C141.444 73.2434 141.639 72.575 141.939 71.9513C142.098 71.2807 142.362 70.6393 142.721 70.0508C142.759 70.7554 142.616 71.4581 142.306 72.0921C142.147 72.7733 141.822 73.4047 141.36 73.93V73.93Z" fill="#495D4C"/>
<path d="M136.581 80.6093C136.503 80.5154 137.113 79.8272 137.856 78.9825C138.599 78.1378 139.193 77.4183 139.295 77.5043C139.073 78.1742 138.689 78.7787 138.177 79.264C137.418 80.1322 136.659 80.6953 136.581 80.6093Z" fill="#495D4C"/>
<path d="M129.683 85.0515C130.211 84.6046 130.808 84.2454 131.45 83.9879C132.028 83.6048 132.665 83.3195 133.335 83.1432C132.881 83.6843 132.301 84.1059 131.646 84.3711C131.058 84.7564 130.383 84.9901 129.683 85.0515V85.0515Z" fill="#495D4C"/>
<path d="M121.659 86.7878C122.31 86.557 122.994 86.4354 123.685 86.4281C124.361 86.2727 125.058 86.2278 125.749 86.2951C125.136 86.6447 124.445 86.8356 123.739 86.8504C123.052 87.0048 122.336 86.9832 121.659 86.7878V86.7878Z" fill="#495D4C"/>
<path d="M113.603 85.2234C114.292 85.2935 114.966 85.4648 115.605 85.7318C116.282 85.8649 116.935 86.0968 117.545 86.42C116.844 86.5074 116.132 86.4104 115.48 86.1384C114.784 86.0059 114.136 85.69 113.603 85.2234Z" fill="#495D4C"/>
<path d="M107.933 79.5923C108.05 79.5923 108.41 80.3744 109.051 81.2973C109.692 82.2202 110.31 82.8615 110.224 82.9788C110.138 83.0961 109.372 82.5095 108.699 81.5475C108.231 81.0006 107.961 80.3117 107.933 79.5923V79.5923Z" fill="#495D4C"/>
<path d="M111.366 73.1871C111.366 73.3123 110.514 73.586 109.622 74.2195C108.73 74.853 108.253 75.6429 108.144 75.5804C108.034 75.5178 108.379 74.5793 109.372 73.8754C109.925 73.4004 110.638 73.1542 111.366 73.1871V73.1871Z" fill="#495D4C"/>
<path d="M118.436 76.1198C118.327 76.1823 117.826 75.4159 117.013 74.6651C116.2 73.9142 115.371 73.5388 115.449 73.4215C116.167 73.4846 116.835 73.817 117.318 74.3522C117.889 74.7902 118.285 75.4167 118.436 76.1198V76.1198Z" fill="#495D4C"/>
<path d="M118.703 84.1051C118.761 83.4237 118.889 82.7501 119.086 82.0951C119.144 81.4112 119.273 80.735 119.469 80.0773C119.625 80.7662 119.636 81.48 119.501 82.1733C119.366 82.8667 119.089 83.5245 118.687 84.1051H118.703Z" fill="#495D4C"/>
<path d="M113.345 90.2444C113.275 90.1427 113.986 89.5562 114.839 88.8288C115.691 88.1015 116.403 87.4758 116.458 87.554C116.512 87.6322 116.004 88.3987 115.12 89.1182C114.237 89.8377 113.408 90.3461 113.345 90.2444Z" fill="#495D4C"/>
<path d="M106.032 94.0457C106.549 93.5775 107.156 93.2184 107.815 92.9899C108.419 92.6335 109.09 92.4071 109.786 92.3251C109.264 92.7914 108.656 93.1502 107.995 93.3809C107.393 93.7346 106.725 93.9608 106.032 94.0457V94.0457Z" fill="#495D4C"/>
<path d="M98.6803 97.784C98.6177 97.6823 99.3607 97.127 100.346 96.5326C100.921 96.1315 101.578 95.8642 102.27 95.7505C102.333 95.8678 101.535 96.3449 100.557 96.908C99.9997 97.3279 99.3603 97.6263 98.6803 97.784V97.784Z" fill="#495D4C"/>
<path d="M92.447 103.165C92.3609 103.087 92.9006 102.32 93.7218 101.515C94.543 100.709 95.286 100.185 95.3955 100.271C95.505 100.357 94.8324 101.053 94.0268 101.835C93.2213 102.617 92.5408 103.212 92.447 103.165Z" fill="#495D4C"/>
<path d="M87.7228 109.907C87.854 109.216 88.1431 108.566 88.5675 108.006C89.1697 107.028 89.7876 106.325 89.8893 106.395C89.6776 107.057 89.3549 107.679 88.9351 108.233C88.3798 109.195 87.8323 109.961 87.7228 109.907Z" fill="#495D4C"/>
<path d="M84.7201 117.571C84.6802 116.871 84.8089 116.171 85.0955 115.53C85.2427 114.842 85.551 114.199 85.9949 113.653C85.9492 114.347 85.7824 115.027 85.5022 115.663C85.3546 116.34 85.0899 116.986 84.7201 117.571V117.571Z" fill="#495D4C"/>
<path d="M83.6405 125.737C83.3568 124.365 83.4542 122.943 83.9221 121.623C84.0458 122.305 84.0458 123.005 83.9221 123.687C83.9492 124.382 83.8539 125.075 83.6405 125.737V125.737Z" fill="#495D4C"/>
<path d="M84.7198 133.894C84.3687 133.289 84.1477 132.618 84.0706 131.923C83.8362 131.258 83.7796 130.544 83.9064 129.85C84.2006 130.479 84.3983 131.149 84.493 131.837C84.7097 132.5 84.7869 133.2 84.7198 133.894Z" fill="#495D4C"/>
<path d="M87.903 141.48C87.3853 141.006 86.9862 140.416 86.7377 139.76C86.3605 139.166 86.1324 138.49 86.0729 137.789C86.5235 138.317 86.8782 138.921 87.1209 139.572C87.4956 140.155 87.7606 140.802 87.903 141.48V141.48Z" fill="#495D4C"/>
<path d="M92.846 148.074C92.7677 148.152 92.0639 147.557 91.2817 146.681C90.7782 146.191 90.393 145.591 90.1555 144.93C90.2572 144.851 90.8751 145.54 91.6102 146.4C92.3454 147.26 92.932 147.988 92.846 148.074Z" fill="#495D4C"/>
<path d="M99.1965 153.314C98.5168 153.131 97.8898 152.791 97.3664 152.32C96.4435 151.648 95.8022 150.975 95.8647 150.881C96.5105 151.141 97.106 151.512 97.6245 151.976C98.5474 152.641 99.2591 153.212 99.1965 153.314Z" fill="#495D4C"/>
<path d="M106.627 156.864C105.923 156.859 105.231 156.685 104.609 156.356C103.931 156.166 103.31 155.811 102.802 155.323C103.487 155.424 104.151 155.638 104.765 155.957C105.43 156.158 106.058 156.465 106.627 156.864V156.864Z" fill="#495D4C"/>
<path d="M110.764 157.959C110.764 158.069 110.694 158.162 110.654 158.155C110.615 158.147 110.6 158.045 110.654 157.928C110.709 157.811 110.725 157.724 110.764 157.732C110.803 157.74 110.787 157.803 110.764 157.959Z" fill="#495D4C"/>
<path d="M104.781 137.441L96.2286 134.633L94.4814 139.953L103.034 142.762L104.781 137.441Z" fill="#43AF55"/>
<path d="M104.804 137.453C103.205 138.254 101.548 138.934 99.8458 139.486L99.6972 139.541L99.6034 139.416L99.4548 139.228C98.2713 137.783 97.2018 136.248 96.256 134.637C97.5452 135.989 98.7296 137.438 99.7989 138.97L99.9397 139.158L99.6972 139.087C101.353 138.406 103.061 137.859 104.804 137.453V137.453Z" fill="#2A9348"/>
<path d="M98.6802 137.898C98.0915 138.428 97.4101 138.844 96.6702 139.126C95.9887 139.53 95.2426 139.813 94.4647 139.963C95.0586 139.436 95.742 139.021 96.4825 138.735C97.1621 138.333 97.9053 138.05 98.6802 137.898V137.898Z" fill="#2A9348"/>
<path d="M103.17 142.818C102.691 142.228 102.32 141.558 102.075 140.839C101.558 139.674 101.214 138.673 101.371 138.688C101.851 139.279 102.224 139.948 102.474 140.667C102.838 141.334 103.074 142.064 103.17 142.818V142.818Z" fill="#2A9348"/>
<path d="M139.649 158.291L117.654 151.068L113.159 164.755L135.154 171.978L139.649 158.291Z" fill="#5CCD6A"/>
<path d="M139.639 158.295C139.326 158.475 138.996 158.624 138.654 158.741L135.916 159.813C133.57 160.696 130.371 161.901 126.766 163.222L126.617 163.277L126.523 163.152L126.156 162.667C123.762 159.5 121.604 156.622 120.063 154.518L118.256 152.023C118.022 151.724 117.815 151.405 117.639 151.069C117.928 151.325 118.19 151.611 118.421 151.921L120.337 154.338C121.94 156.387 124.13 159.242 126.531 162.409L126.899 162.886L126.656 162.816C130.254 161.502 133.5 160.344 135.846 159.531L138.63 158.585C138.957 158.459 139.295 158.362 139.639 158.295V158.295Z" fill="#43AF55"/>
<path d="M123.997 159.461C122.287 160.529 120.505 161.478 118.663 162.3C116.883 163.244 115.041 164.064 113.149 164.756C114.853 163.678 116.633 162.726 118.475 161.909C120.253 160.959 122.099 160.141 123.997 159.461V159.461Z" fill="#43AF55"/>
<path d="M135.253 171.715C134.352 170.097 133.566 168.416 132.899 166.683C132.115 165.001 131.453 163.261 130.919 161.479C131.826 163.095 132.613 164.78 133.273 166.518C134.057 168.197 134.719 169.934 135.253 171.715V171.715Z" fill="#43AF55"/>
<path d="M118.882 154.432C118.335 154.834 117.681 155.064 117.002 155.094C116.324 155.124 115.652 154.952 115.071 154.6C114.491 154.248 114.028 153.732 113.74 153.117C113.453 152.502 113.354 151.815 113.457 151.144C113.56 150.473 113.859 149.848 114.318 149.347C114.776 148.846 115.372 148.492 116.031 148.33C116.691 148.168 117.383 148.205 118.022 148.436C118.66 148.668 119.215 149.083 119.617 149.63C119.885 149.994 120.078 150.406 120.185 150.844C120.293 151.282 120.313 151.738 120.245 152.183C120.177 152.629 120.021 153.058 119.787 153.443C119.553 153.829 119.246 154.165 118.882 154.432V154.432Z" fill="#495D4C"/>
<path d="M118.984 151.038C118.257 151.578 117.485 152.054 116.677 152.461L116.129 152.766L116.028 152.821L115.973 152.727C115.603 152.14 115.289 151.519 115.034 150.873C115.47 151.415 115.85 151.999 116.168 152.617L116.02 152.57L116.567 152.258C117.336 151.781 118.144 151.373 118.984 151.038Z" fill="white"/>
<path d="M125.529 139.841L114.004 136.056L111.649 143.227L123.174 147.012L125.529 139.841Z" fill="#43AF55"/>
<path d="M125.514 139.846C125.349 139.938 125.177 140.017 124.998 140.08L123.559 140.643C122.347 141.105 120.657 141.738 118.773 142.427H118.694L118.64 142.356L118.452 142.106C117.193 140.448 116.106 138.938 115.253 137.836L114.307 136.529C114.186 136.372 114.078 136.205 113.986 136.029C114.134 136.162 114.265 136.311 114.377 136.475L115.386 137.742C116.223 138.813 117.373 140.307 118.632 141.965L118.82 142.223H118.694C120.579 141.535 122.276 140.925 123.512 140.503L124.967 140.01C125.142 139.933 125.326 139.878 125.514 139.846V139.846Z" fill="#2A9348"/>
<path d="M117.318 140.456C116.422 141.013 115.489 141.51 114.526 141.942C113.593 142.439 112.626 142.87 111.632 143.232C112.526 142.669 113.459 142.169 114.424 141.738C115.357 141.242 116.324 140.813 117.318 140.456V140.456Z" fill="#2A9348"/>
<path d="M123.364 147.08C122.859 146.201 122.42 145.286 122.05 144.343C121.615 143.426 121.244 142.48 120.939 141.512C121.888 143.303 122.698 145.165 123.364 147.08V147.08Z" fill="#2A9348"/>
<path d="M32.9522 50.0836C32.1582 53.2134 30.4542 56.0375 28.0555 58.1991C25.6568 60.3607 22.6711 61.7626 19.4758 62.2278C16.2806 62.6929 13.0191 62.2004 10.1037 60.8124C7.18832 59.4244 4.74981 57.2033 3.09641 54.4298C1.44302 51.6563 0.648945 48.4549 0.814561 45.2302C0.980177 42.0055 2.09805 38.9022 4.02688 36.3127C5.95572 33.7232 8.60894 31.7636 11.6512 30.6816C14.6935 29.5996 17.9882 29.4437 21.119 30.2338C23.1995 30.7599 25.156 31.6906 26.8768 32.973C28.5975 34.2553 30.0487 35.8641 31.1476 37.7074C32.2464 39.5507 32.9714 41.5924 33.2811 43.716C33.5907 45.8395 33.479 48.0032 32.9522 50.0836V50.0836Z" fill="#5CCD6A"/>
<path d="M23.1761 37.2104C23.4655 37.3277 21.6119 42.7946 19.031 49.4269C18.6477 50.3889 18.288 51.3117 17.9282 52.219L17.7327 52.7117L17.2087 52.524C11.9138 50.4827 8.0424 48.8012 8.13625 48.5587C8.23011 48.3163 12.2501 49.5833 17.5841 51.5151L16.8958 51.8279C17.2399 50.9207 17.5997 49.99 17.9673 49.028C20.5717 42.3958 22.8945 37.1009 23.1761 37.2104Z" fill="white"/>
</g>
<defs>
<clipPath id="clip0_206_2">
<rect width="238.088" height="219.404" fill="white" transform="translate(0.784515 0.756592)"/>
</clipPath>
</defs>
</svg>
