<svg width="289" height="275" viewBox="0 0 289 275" fill="none" xmlns="http://www.w3.org/2000/svg">
<g opacity="0.5" clip-path="url(#clip0_206_216)">
<path d="M268.069 219.959C268.069 219.959 168.41 217.899 126.134 219.959C95.8896 221.432 4.95107 219.959 4.95107 219.959C4.95107 219.959 6.81836 153.412 4.95107 119.678C3.74864 98.1639 4.95107 33.4858 4.95107 33.4858C4.95107 33.4858 101.76 33.6699 132.882 32.4664C184.381 30.4417 268.069 33.4858 268.069 33.4858C268.069 33.4858 270.078 79.7572 268.069 107.296C266.039 135.388 268.069 219.959 268.069 219.959Z" fill="white"/>
<path opacity="0.5" d="M268.069 33.4858V75.7502C250.21 75.3042 200.748 74.3981 135.909 75.9556C67.0951 77.6051 18.7082 76.4865 4.92276 76.083V33.4858C4.92276 33.4858 101.732 33.677 132.853 32.4664C184.381 30.4417 268.069 33.4858 268.069 33.4858Z" fill="#92E3A9" fill-opacity="0.7"/>
<path opacity="0.2" d="M168.339 217.177L165.927 73.6902H136.51C135.202 96.2666 136.065 187.125 136.397 217.177H168.339Z" fill="#92E3A9" fill-opacity="0.7"/>
<path opacity="0.2" d="M8.2684 76.1538L40.5358 75.9343C40.5358 75.9343 42.9972 186.933 37.3812 217.177H10.1286C10.1286 217.177 10.5035 176.746 10.1286 143.373C9.75375 110.001 8.2684 76.1538 8.2684 76.1538Z" fill="#92E3A9" fill-opacity="0.7"/>
<path d="M8.26825 53.8038C8.26825 53.8038 88.194 52.6781 112.356 53.8038C136.517 54.9294 202.997 52.9755 212.687 52.3879C222.377 51.8003 266.443 53.8038 266.443 53.8038C268.098 40.5652 264.95 34.5051 264.95 34.5051C264.95 34.5051 147.049 36.0414 89.9693 36.813C32.8896 37.5847 8.26825 36.813 8.26825 36.813C8.26825 36.813 9.39287 47.2694 8.26825 53.8038Z" fill="#5CCD6A"/>
<path d="M268.069 219.959C268.069 219.959 168.41 217.899 126.134 219.959C95.8896 221.432 4.95107 219.959 4.95107 219.959C4.95107 219.959 6.81836 153.412 4.95107 119.678C3.74864 98.1639 4.95107 33.4858 4.95107 33.4858C4.95107 33.4858 101.76 33.6699 132.882 32.4664C184.381 30.4417 268.069 33.4858 268.069 33.4858C268.069 33.4858 270.078 79.7572 268.069 107.296C266.039 135.388 268.069 219.959 268.069 219.959Z" stroke="#495E4C" stroke-width="0.6" stroke-linecap="round" stroke-linejoin="round"/>
<path d="M12.2719 55.4891C12.2719 55.4891 42.771 54.3635 77.7474 55.4891C112.724 56.6147 165.913 55.8926 194.305 54.9865C222.696 54.0803 257.036 53.8042 257.036 53.8042" stroke="#495E4C" stroke-width="0.6" stroke-linecap="round" stroke-linejoin="round"/>
<path d="M12.2718 75.9344C12.2718 75.9344 233.737 73.6902 257 73.6902" stroke="#495E4C" stroke-width="0.6" stroke-linecap="round" stroke-linejoin="round"/>
<path d="M40.5358 53.804C40.5358 53.804 43.6126 177.879 40.5358 202.239" stroke="#495E4C" stroke-width="0.6" stroke-linecap="round" stroke-linejoin="round"/>
<path d="M71.0349 53.804C71.0349 53.804 69.9173 190.381 71.0349 199.953" stroke="#495E4C" stroke-width="0.6" stroke-linecap="round" stroke-linejoin="round"/>
<path d="M102.934 53.804C102.934 53.804 104.052 80.7059 104.349 104.5C104.646 128.294 102.934 198.827 104.349 206.699" stroke="#495E4C" stroke-width="0.6" stroke-linecap="round" stroke-linejoin="round"/>
<path d="M136.51 54.9365C136.51 54.9365 134.806 136.704 135.513 164.711C136.22 192.717 136.51 207.846 136.51 207.846" stroke="#495E4C" stroke-width="0.6" stroke-linecap="round" stroke-linejoin="round"/>
<path d="M165.892 53.804C165.892 53.804 168.721 151.019 168.41 171.868C168.099 192.717 168.41 204.356 168.41 204.356" stroke="#495E4C" stroke-width="0.6" stroke-linecap="round" stroke-linejoin="round"/>
<path d="M197.791 52.3879C197.791 52.3879 197.615 109.732 199.418 125.668C201.222 141.603 198.605 207.874 198.605 207.874" stroke="#495E4C" stroke-width="0.6" stroke-linecap="round" stroke-linejoin="round"/>
<path d="M229.168 52.3879C229.168 52.3879 230.37 81.7182 230.582 98.1001C230.794 114.482 230.023 198.098 231.997 204.384" stroke="#495E4C" stroke-width="0.6" stroke-linecap="round" stroke-linejoin="round"/>
<path d="M12.2718 93.2932C12.2718 93.2932 58.3033 92.4578 87.4727 93.2932C87.4727 93.2932 87.402 101.137 87.4727 104.217C87.4727 104.217 19.5712 103.658 12.2718 104.217C12.2718 104.217 12.8306 95.2542 12.2718 93.2932Z" fill="white" stroke="#495E4C" stroke-linecap="round" stroke-linejoin="round"/>
<path d="M166.925 92.9251V104.252C166.925 104.252 224.365 103.693 230.511 102.574L230.398 91.6508C230.398 91.6508 187.316 91.1482 166.925 92.9251Z" fill="white" stroke="#495E4C" stroke-linecap="round" stroke-linejoin="round"/>
<path d="M70.5327 107.296H135.93L135.52 117.732C135.52 117.732 107.97 118.362 93.1382 118.716C78.306 119.07 71.0349 119.551 71.0349 119.551L70.5327 107.296Z" fill="#5CCD6A" stroke="#495E4C" stroke-linecap="round" stroke-linejoin="round"/>
<path d="M231.926 104.217L232.195 112.061C232.195 112.061 252.544 110.645 255.536 110.942V103.098C255.536 103.098 237.528 102.815 231.926 104.217Z" fill="#5CCD6A" stroke="#495E4C" stroke-linecap="round" stroke-linejoin="round"/>
<path d="M135.93 132.237C135.93 132.237 191.808 130.935 199.418 128.358V143.932C199.418 143.932 144.821 144.152 135.35 145.879C135.35 145.908 134.799 135.338 135.93 132.237Z" fill="white" stroke="#495E4C" stroke-linecap="round" stroke-linejoin="round"/>
<path d="M139.778 132.138C139.778 132.138 134.438 140.386 135.534 141.44C136.631 142.495 142.048 132.499 143.703 132.237C145.359 131.975 137.925 145.985 138.632 146.481C139.339 146.976 148.739 131.678 150.967 131.678C153.195 131.678 146.016 145.001 147.431 144.938C148.845 144.874 155.466 131.933 157.871 131.678C160.275 131.423 152.297 144.739 154.143 144.683C155.989 144.626 163.395 130.475 164.922 131.232C166.45 131.989 157.319 143.557 159.738 144.506C162.157 145.454 168.339 132.124 171.302 131.451C174.266 130.779 164.448 143.593 167.313 143.932C170.177 144.272 174.471 130.574 176.706 131.664C178.941 132.754 172.604 140.357 173.537 140.867C174.471 141.377 177.456 131.706 180.44 131.664C183.425 131.621 176.904 140.357 177.611 141.412C178.318 142.467 181.353 138.835 181.353 138.835" stroke="#92E3A9" stroke-linecap="round" stroke-linejoin="round"/>
<path d="M15.0656 93.2506C15.0656 93.2506 12.6891 98.9142 13.2549 99.1761C13.8208 99.4381 16.0842 93.5763 18.291 93.8524C20.4978 94.1285 14.2876 104.118 15.7305 104.068C17.1734 104.018 22.0963 92.6205 23.6028 93.2294C25.1094 93.8382 19.9673 102.744 20.9434 103.36C21.9195 103.976 26.8211 92.5781 28.363 93.2081C29.905 93.8382 24.0272 102.935 25.5338 102.935C27.0404 102.935 32.1118 93.0241 33.6466 93.0241C35.1815 93.0241 28.8935 101.668 30.4284 102.815C31.9632 103.962 35.7473 91.9055 37.9895 93.0241C40.2316 94.1426 34.6298 102.227 36.3061 103.098C37.9824 103.969 42.3182 92.3303 43.7187 92.9533C45.1191 93.5763 39.5456 103.969 40.5075 103.976C41.4694 103.983 47.6654 92.0329 49.0659 92.932C50.4664 93.8311 43.8884 103.983 45.1474 103.983C46.4064 103.983 52.9844 91.7073 54.6607 92.3161C56.337 92.9249 50.3249 101.838 51.8315 102.397C53.338 102.957 57.009 96.0966 57.7092 96.0966C58.4094 96.0966 55.2549 102.397 56.1319 102.397C57.009 102.397 60.3758 91.8772 62.045 92.9391C63.7143 94.001 60.0858 99.877 60.9275 100.16C61.7692 100.443 67.081 92.5922 68.6159 93.7179C70.1507 94.8435 62.6391 104.068 65.0157 104.068C67.3922 104.068 71.4522 93.8524 73.4114 93.994C75.3707 94.1355 69.493 103.098 71.0349 103.24C72.5768 103.381 75.6536 93.1586 77.3299 93.7179C79.0062 94.2771 74.9534 101.42 76.0709 101.838C77.1885 102.256 79.565 94.6948 81.5243 94.8364C83.4835 94.978 77.8887 102.121 80.2652 102.397C82.6418 102.673 83.4835 94.4187 85.86 94.6948C88.2366 94.9709 82.854 102.277 84.1484 103.24C85.4427 104.203 87.4444 99.5938 87.4444 99.5938" stroke="#5CCD6A" stroke-linecap="round" stroke-linejoin="round"/>
<path d="M13.1347 110.517L16.3953 109.102C16.3649 110.175 16.1446 111.234 15.7446 112.231C16.216 112.123 16.6445 111.877 16.9748 111.524C17.3052 111.171 17.5221 110.726 17.5977 110.248L17.237 111.395H20.2855C20.2365 111.228 20.244 111.049 20.3066 110.887C20.3693 110.724 20.4836 110.587 20.632 110.496C20.3067 110.786 20.5047 111.381 20.8937 111.579C21.3093 111.732 21.7655 111.732 22.181 111.579C23.2557 111.311 24.2902 110.901 25.2577 110.362C25.1795 110.713 25.2282 111.081 25.3952 111.4C25.5623 111.719 25.8368 111.968 26.1701 112.103C26.8315 112.359 27.5449 112.452 28.2496 112.372L37.3949 112.082" stroke="#495E4C" stroke-linecap="round" stroke-linejoin="round"/>
<path d="M12.3425 116.896C12.3425 116.896 13.6015 115.268 14.7261 115.48C15.8507 115.693 15.1434 117.484 15.5607 117.767C15.978 118.05 16.6853 114.036 17.3784 115.48C17.8177 116.368 19.2033 117.781 19.2033 117.781C19.2033 117.781 20.7381 116.16 21.1554 116.471C21.5727 116.783 22.4144 116.471 22.4144 116.471H35.4286" stroke="#495E4C" stroke-linecap="round" stroke-linejoin="round"/>
<path d="M53.4017 109.13C53.4017 109.13 42.884 143.487 130.916 139.763" stroke="#495E4C" stroke-linecap="round" stroke-linejoin="round"/>
<path d="M130.916 137.299L133.151 140.046L130.916 141.441" stroke="#495E4C" stroke-linecap="round" stroke-linejoin="round"/>
<path d="M78.3053 140.881C71.0343 137.519 57.8433 139.791 48.0543 145.95C38.2654 152.109 36.2496 172.278 72.1024 166.395C107.955 160.512 85.2793 143.961 72.7248 143.961" fill="white"/>
<path d="M78.3053 140.881C71.0343 137.519 57.8433 139.791 48.0543 145.95C38.2654 152.109 36.2496 172.278 72.1024 166.395C107.955 160.512 85.2793 143.961 72.7248 143.961" stroke="#92E3A9" stroke-linecap="round" stroke-linejoin="round"/>
<path d="M49.8723 151.805C49.8723 151.805 52.0649 149.816 53.0126 149.681C53.9604 149.547 51.2232 151.515 53.0126 151.805C54.8021 152.095 54.4272 151.097 56.1672 150.736C57.9071 150.375 58.4447 152.322 58.4447 152.322C58.4447 152.322 61.2738 151.366 62.9218 150.906C64.5698 150.446 63.4806 153.143 65.751 152.322C68.0214 151.501 66.9959 150.24 70.5677 150.906C74.1395 151.571 81.071 151.147 84.1831 150.906" stroke="#92E3A9" stroke-linecap="round" stroke-linejoin="round"/>
<path d="M53.048 157.745C53.7553 156.031 52.8783 155.699 54.8375 156.57C56.7967 157.44 57.9142 158.615 58.7559 157.745C59.1009 157.355 59.5582 157.081 60.0649 156.962C60.5715 156.843 61.1026 156.884 61.5851 157.079C62.4197 157.433 60.4605 157.992 62.4197 157.433C63.5572 157.123 64.6109 156.562 65.5035 155.791C65.5035 155.791 65.0084 156.98 67.0737 158.049C69.139 159.118 70.6102 156.916 70.6102 156.916C73.7627 156.796 76.9194 156.846 80.0667 157.065" stroke="#92E3A9" stroke-linecap="round" stroke-linejoin="round"/>
<path d="M72.3549 255.077L79.838 246.872V244.748L85.553 239.524C85.553 239.524 92.5269 241.938 95.8512 250.44L89.7967 255.552L87.4839 255.849L78.5508 262.22C78.5508 262.22 72.3549 260.068 72.3549 255.077Z" fill="#495E4C"/>
<path opacity="0.3" d="M85.7797 241.11C85.7797 241.11 88.333 248.713 94.925 250.263" stroke="white" stroke-width="0.6" stroke-linecap="round" stroke-linejoin="round"/>
<path opacity="0.3" d="M81.0264 246.993C81.0264 246.993 83.3463 253.116 88.2761 255.077" stroke="white" stroke-width="0.6" stroke-linecap="round" stroke-linejoin="round"/>
<path opacity="0.2" d="M168.431 20.6152L171.409 17.21H178.326C180.193 16.7955 181.962 16.0265 183.539 14.9446C183.539 14.9446 180.908 12.2615 177.732 12.1694H171.762L155.82 9.27393L67.0103 17.21C66.3921 19.0119 66.2147 20.9358 66.4928 22.8205C66.771 24.7051 67.4966 26.4956 68.6088 28.0416L168.431 20.6152Z" fill="black" fill-opacity="0.7"/>
<path opacity="0.2" d="M208.38 28.0414L210.777 25.9955L218.515 25.9106C219.012 23.4052 219.069 20.8324 218.685 18.3073L197.53 10.959C192.098 14.35 194.304 28.0414 194.304 28.0414H208.38Z" fill="black" fill-opacity="0.7"/>
<path d="M177.351 4.28317C177.351 4.28317 181.071 3.81593 183.193 5.54329C183.193 5.54329 182.917 7.73789 177.322 8.29716L177.351 4.28317Z" fill="#5CCD6A" stroke="#495E4C" stroke-width="0.5" stroke-linecap="round" stroke-linejoin="round"/>
<path d="M170.461 3.29903L165.63 0L66.9113 7.95024C62.5755 14.9731 67.9864 21.9464 67.9864 21.9464L167.328 13.6705L170.815 10.2511L177.704 9.0688C178.129 8.20386 178.342 7.25024 178.326 6.28657C178.382 5.23173 178.053 4.19258 177.4 3.36275L170.461 3.29903Z" fill="#495E4C"/>
<path d="M99.5111 6.25817L143.533 2.64771C143.623 2.85515 143.662 3.08112 143.646 3.30669C143.631 3.53226 143.562 3.75088 143.445 3.94426C143.328 4.13764 143.166 4.30016 142.974 4.41822C142.781 4.53628 142.563 4.60644 142.338 4.62284L101.067 8.16251C100.87 8.18236 100.671 8.16047 100.482 8.09826C100.294 8.03605 100.121 7.93491 99.9741 7.8014C99.8274 7.66789 99.7103 7.505 99.6305 7.32329C99.5508 7.14158 99.5101 6.94512 99.5111 6.74664V6.25817Z" fill="#92E3A9"/>
<path opacity="0.3" d="M165.545 1.52905C165.545 1.52905 168.721 5.06872 166.479 12.1481" stroke="white" stroke-width="0.6" stroke-linecap="round" stroke-linejoin="round"/>
<path opacity="0.3" d="M170.843 4.2478C171.4 5.67513 171.545 7.23044 171.26 8.73611" stroke="white" stroke-width="0.6" stroke-linecap="round" stroke-linejoin="round"/>
<path opacity="0.3" d="M67.661 9.27393C67.661 9.27393 71.0206 12.2189 68.7785 20.6009" stroke="white" stroke-width="0.6" stroke-linecap="round" stroke-linejoin="round"/>
<path opacity="0.3" d="M69.5495 8.71489C69.5495 8.71489 70.6104 8.85648 71.0348 14.1802L165.545 5.40878C165.327 3.71046 164.658 2.10179 163.607 0.750488L69.5495 8.71489Z" fill="white"/>
<path opacity="0.3" d="M171.763 3.8938C172.241 4.66872 172.501 5.55953 172.512 6.47068L177.732 5.96097C177.638 5.23909 177.418 4.5394 177.081 3.8938H171.763Z" fill="white"/>
<path d="M216.669 22.4558L205.911 19.7303L204.023 20.7356L196.73 18.1374C196.73 18.1374 195.563 10.8457 201.476 3.8938L208.839 6.82465L210.197 8.72899L220.015 13.6067C220.015 13.6067 221.061 20.0984 216.669 22.4558Z" fill="#5CCD6A"/>
<path d="M216.669 22.4558L205.911 19.7303L204.023 20.7356L196.73 18.1374C196.73 18.1374 195.563 10.8457 201.476 3.8938L208.839 6.82465L210.197 8.72899L220.015 13.6067C220.015 13.6067 221.061 20.0984 216.669 22.4558Z" stroke="#495E4C" stroke-width="0.6" stroke-linecap="round" stroke-linejoin="round"/>
<path d="M198.046 17.2099C198.046 17.2099 203.542 11.3624 201.795 4.82104" stroke="#495E4C" stroke-width="0.6" stroke-linecap="round" stroke-linejoin="round"/>
<path d="M205.452 18.6259C205.452 18.6259 209.752 13.6704 209.151 8.4104" stroke="#495E4C" stroke-width="0.6" stroke-linecap="round" stroke-linejoin="round"/>
<path d="M223.097 273.459C223.097 273.459 217.483 223.003 213.607 212.299C209.731 201.595 204.539 166.084 204.539 166.084C204.539 166.084 216.45 165.129 220.057 165.093C223.665 165.058 228.326 161.603 228.326 161.603C227.93 162.311 227.031 161.879 226.366 157.546C225.921 154.644 221.514 153.766 221.514 153.766C221.514 153.766 210.94 154.559 202.021 153.355C199.859 154.037 197.541 154.037 195.379 153.355C192.133 152.173 191.475 150.906 193.257 149.186C193.257 149.186 190.732 145.887 199.361 141.186C199.361 141.186 193.625 136.025 196.426 132.69C199.227 129.356 205.826 126.014 205.826 126.014C205.826 126.014 206.102 123.494 207.319 122.843C208.535 122.192 215.156 119.48 218.791 116.96C222.427 114.44 224.011 114.624 230.731 114.44C237.45 114.255 245.655 112.571 248.732 113.972C251.122 115.063 252.233 119.331 252.233 119.331C254.468 120.039 254.694 123.7 254.836 124.599C255.493 128.613 260.112 145.249 262.163 148.138C264.214 151.026 265.424 156.074 265.056 158.693C264.688 161.313 263.748 164.357 262.814 169.709C261.88 175.061 258.712 193.51 257.156 198.834C255.599 204.158 254.73 213.396 255.564 217.878L277.178 261.027" fill="white"/>
<path opacity="0.4" d="M250.195 136.754C250.195 136.754 245.732 139.451 245.732 141.164C245.732 141.164 237.244 147.628 236.268 155.238C236.268 155.238 231.565 160.009 230.532 162.176C229.499 164.342 225.015 166.883 225.015 166.883C223.748 166.764 222.475 166.716 221.203 166.742C219.051 166.417 216.924 165.944 214.837 165.326C216.959 165.191 218.911 165.085 220.036 165.078C223.028 165.078 226.741 162.671 227.922 161.857C227.469 161.857 226.84 160.767 226.345 157.525C225.899 154.629 221.493 153.744 221.493 153.744C221.493 153.744 210.919 154.537 202 153.341C200.539 153.794 199.003 153.952 197.48 153.808C197.514 153.247 197.437 152.684 197.253 152.153C197.068 151.622 196.78 151.133 196.405 150.714C196.405 150.714 200.5 147.989 199.432 145.886C198.923 144.881 197.091 144.258 195.302 143.883C196.544 142.833 197.898 141.923 199.34 141.171C199.34 141.171 193.604 136.01 196.405 132.676C199.206 129.342 205.826 126.014 205.826 126.014C205.826 126.014 206.102 123.501 207.319 122.843C207.319 122.843 206.611 126.729 211.98 126.383C217.348 126.036 225.079 122.843 225.079 122.843C225.079 122.843 239.649 123.246 242.606 121.002C242.606 121.002 246.142 124.025 248.731 124.542C251.319 125.059 250.195 136.754 250.195 136.754Z" fill="#92E3A9"/>
<path opacity="0.4" d="M265.042 158.715C264.667 161.327 263.734 164.378 262.8 169.73C261.866 175.082 258.698 193.539 257.142 198.855C255.585 204.172 254.716 213.418 255.55 217.899L257.531 222.628C253.237 215.011 253.577 205.014 253.923 202.388C254.341 199.167 256.753 187.259 258.874 181.1C260.996 174.941 261.187 162.056 261.187 161.61C261.187 161.164 260.07 164.442 258.931 168.074C257.792 171.705 253.612 181.942 253.612 181.942C253.471 179.819 255.218 167.394 255.536 165.978C255.854 164.562 258.415 155.04 258.874 152.35C259.334 149.66 257.205 146.687 256.675 144.563C256.144 142.439 254.051 132.967 253.492 126.446C253.27 122.902 252.39 119.431 250.896 116.209C251.478 117.21 251.929 118.28 252.24 119.395C254.475 120.103 254.701 123.756 254.843 124.655C255.501 128.669 260.119 145.306 262.171 148.202C264.222 151.097 265.41 156.102 265.042 158.715Z" fill="#92E3A9"/>
<path opacity="0.4" d="M223.672 275.2C221.373 257.105 216.776 222.663 213.876 213.219C215.877 215.655 218.155 219.591 219.753 227.173C222.972 242.436 223.955 249.155 224.089 256.156C224.216 260.631 224.117 268.878 223.672 275.2Z" fill="#92E3A9"/>
<path d="M223.097 273.459C223.097 273.459 217.483 223.003 213.607 212.299C209.731 201.595 204.539 166.084 204.539 166.084C204.539 166.084 216.45 165.129 220.057 165.093C223.665 165.058 228.326 161.603 228.326 161.603C227.93 162.311 227.031 161.879 226.366 157.546C225.921 154.644 221.514 153.766 221.514 153.766C221.514 153.766 210.94 154.559 202.021 153.355C199.859 154.037 197.541 154.037 195.379 153.355C192.133 152.173 191.475 150.906 193.257 149.186C193.257 149.186 190.732 145.887 199.361 141.186C199.361 141.186 193.625 136.025 196.426 132.69C199.227 129.356 205.826 126.014 205.826 126.014C205.826 126.014 206.102 123.494 207.319 122.843C208.535 122.192 215.156 119.48 218.791 116.96C222.427 114.44 224.011 114.624 230.731 114.44C237.45 114.255 245.655 112.571 248.732 113.972C251.122 115.063 252.233 119.331 252.233 119.331C254.468 120.039 254.694 123.7 254.836 124.599C255.493 128.613 260.112 145.249 262.163 148.138C264.214 151.026 265.424 156.074 265.056 158.693C264.688 161.313 263.748 164.357 262.814 169.709C261.88 175.061 258.712 193.51 257.156 198.834C255.599 204.158 254.73 213.396 255.564 217.878L277.178 261.027" stroke="#495E4C" stroke-width="0.6" stroke-linecap="round" stroke-linejoin="round"/>
<path d="M193.222 149.185C193.222 149.185 195.082 151.713 201.519 150.679C207.955 149.646 215.665 143.21 215.665 143.21L220.283 141.257C220.283 141.257 226.161 141.908 228.304 140.881" stroke="#495E4C" stroke-width="0.6" stroke-linecap="round" stroke-linejoin="round"/>
<path d="M225.016 141.441C225.016 141.441 228.849 145.547 231.926 146.481" stroke="#495E4C" stroke-width="0.6" stroke-linecap="round" stroke-linejoin="round"/>
<path d="M228.291 161.603C230.9 159.925 234.352 155.231 237.521 154.885" stroke="#495E4C" stroke-width="0.5" stroke-linecap="round" stroke-linejoin="round"/>
<path d="M227.753 155.91C229.168 151.231 233.411 146.481 233.411 146.481C234.11 144.922 234.986 143.45 236.021 142.092C237.073 140.538 238.672 139.438 240.498 139.012C240.498 139.012 236.792 128.513 237.889 126.404" stroke="#495E4C" stroke-width="0.6" stroke-linecap="round" stroke-linejoin="round"/>
<path d="M221.479 153.766C221.479 153.766 224.358 152.853 225.016 150.934" stroke="#495E4C" stroke-width="0.6" stroke-linecap="round" stroke-linejoin="round"/>
<path d="M220.828 149.844C220.828 149.844 220.651 152.831 216.167 153.766" stroke="#495E4C" stroke-width="0.6" stroke-linecap="round" stroke-linejoin="round"/>
<path d="M220.27 141.257C220.27 141.257 222.498 139.77 223.247 138.269" stroke="#495E4C" stroke-width="0.6" stroke-linecap="round" stroke-linejoin="round"/>
<path d="M205.826 126.014C205.826 126.014 205.027 128.259 208.366 129.186C211.704 130.113 220.658 129.094 224.386 126.014C224.386 126.014 225.305 123.402 225.03 121.724" stroke="#495E4C" stroke-width="0.6" stroke-linecap="round" stroke-linejoin="round"/>
<path d="M223.884 126.404C223.884 126.404 234.826 126.015 235.66 126.015C236.495 126.015 239.855 124.245 240.505 122.376" stroke="#495E4C" stroke-width="0.6" stroke-linecap="round" stroke-linejoin="round"/>
<path d="M240.484 139.012C240.484 139.012 242.946 139.862 244.65 139.494" stroke="#495E4C" stroke-width="0.6" stroke-linecap="round" stroke-linejoin="round"/>
<path d="M235.031 155.911C235.031 155.911 234.635 151.769 237.521 145.908" stroke="#495E4C" stroke-width="0.6" stroke-linecap="round" stroke-linejoin="round"/>
<path d="M252.219 119.353C253.704 125.13 255.989 144.13 257.531 147.727C259.072 151.323 259.256 152.548 258.139 155.911C257.021 159.273 255.218 167.393 255.218 167.393" stroke="#495E4C" stroke-width="0.6" stroke-linecap="round" stroke-linejoin="round"/>
<path d="M255.522 217.899C254.312 214.069 253.57 209.028 254.029 206.699" stroke="#495E4C" stroke-width="0.6" stroke-linecap="round" stroke-linejoin="round"/>
<path d="M184.607 136.591C184.607 136.591 181.509 137.172 180.462 138.85C180.462 138.85 181.375 140.265 185.116 139.883C188.858 139.501 184.607 136.591 184.607 136.591Z" fill="#495E4C"/>
<path d="M195.648 130.736L283.135 117.746L284.253 133.37L196.391 142.092L192.288 140.244L185.569 140.414C184.944 139.848 184.536 139.081 184.416 138.246C184.296 137.411 184.471 136.56 184.911 135.841L191.829 134.354L195.648 130.736Z" fill="#5CCD6A"/>
<path d="M210.693 131.558L246.765 126.432C247.128 126.382 247.498 126.405 247.852 126.501C248.206 126.597 248.537 126.763 248.825 126.989C249.114 127.216 249.354 127.498 249.531 127.82C249.708 128.141 249.818 128.495 249.856 128.86L249.926 129.568C250 130.278 249.792 130.988 249.348 131.545C248.903 132.103 248.257 132.463 247.55 132.549L211.414 136.945C211.054 136.988 210.689 136.959 210.34 136.859C209.992 136.759 209.666 136.59 209.384 136.363C209.101 136.135 208.867 135.853 208.694 135.534C208.522 135.215 208.415 134.864 208.38 134.503C208.316 133.809 208.521 133.117 208.951 132.569C209.381 132.022 210.004 131.66 210.693 131.558Z" fill="#495E4C"/>
<path opacity="0.3" d="M284.253 133.37L196.391 142.099L192.289 140.244L185.569 140.414C185.211 140.091 184.922 139.699 184.72 139.26L191.793 139.019L194.906 139.302L207.135 138.276L210.714 131.558C210.714 131.558 213.854 131.161 216.372 134.354C218.89 137.547 220.291 137.136 220.291 137.136L280.476 130.835L281.183 130.127C281.183 130.127 278.757 124.62 281.183 120.124C281.791 118.999 282.491 118.545 283.199 118.553L284.253 133.37Z" fill="black" fill-opacity="0.7"/>
<path d="M195.648 130.736L283.135 117.746L284.253 133.37L196.391 142.092L192.288 140.244L185.569 140.414C184.944 139.848 184.536 139.081 184.416 138.246C184.296 137.411 184.471 136.56 184.911 135.841L191.829 134.354L195.648 130.736Z" stroke="#495E4C" stroke-width="0.6" stroke-linecap="round" stroke-linejoin="round"/>
<path d="M283.135 117.746C289.197 117.264 290.498 132.747 284.253 133.37C278.276 133.964 276.982 118.227 283.135 117.746Z" fill="#5CCD6A"/>
<path opacity="0.3" d="M284.253 133.37C282.619 133.533 281.331 132.471 280.454 130.835L281.162 130.128C281.162 130.128 278.736 124.62 281.162 120.124C281.77 118.999 282.47 118.546 283.178 118.553C285.299 118.553 287.464 122.659 287.372 124.875L288.291 125.101C288.624 128.988 287.393 133.094 284.253 133.37Z" fill="black" fill-opacity="0.7"/>
<path d="M283.135 117.746C289.197 117.264 290.498 132.747 284.253 133.37C278.276 133.964 276.982 118.227 283.135 117.746Z" stroke="#495E4C" stroke-width="0.6" stroke-linecap="round" stroke-linejoin="round"/>
<path d="M195.648 130.737C195.648 130.737 193.915 132.917 194.382 137.051C194.543 138.892 195.242 140.645 196.391 142.092" stroke="#495E4C" stroke-width="0.6" stroke-linecap="round" stroke-linejoin="round"/>
<path d="M191.829 134.354C191.512 135.317 191.389 136.334 191.468 137.345C191.547 138.356 191.826 139.342 192.289 140.244" stroke="#495E4C" stroke-width="0.6" stroke-linecap="round" stroke-linejoin="round"/>
<path d="M280.419 133.752C274.435 134.347 273.282 119.296 279.372 118.305" stroke="#495E4C" stroke-width="0.6" stroke-linecap="round" stroke-linejoin="round"/>
<path d="M283.255 118.723C288.051 118.305 289.083 131.692 284.139 132.223C279.386 132.74 278.389 119.147 283.255 118.723Z" stroke="#495E4C" stroke-width="0.6" stroke-linecap="round" stroke-linejoin="round"/>
<path d="M283.27 119.678C283.27 119.678 285.773 120.606 286.219 125.158C286.665 129.71 284.097 131.112 284.097 131.112" stroke="#495E4C" stroke-width="0.6" stroke-linecap="round" stroke-linejoin="round"/>
<path d="M228.291 166.743C228.291 166.743 221.925 167.111 221.217 166.743C220.51 166.375 216.549 158.899 216.365 156.569C216.181 154.24 215.807 146.764 215.616 142.092C215.425 137.419 215.439 130.142 206.668 131.692C202.75 132.4 202.092 136.103 200.79 144.435C199.489 152.768 200.698 154.984 199.765 165.624C198.831 176.265 199.949 180.491 202.191 185.85C204.433 191.209 205.261 204.837 211.23 209.878C217.2 214.918 219.541 224.624 219.541 224.624" fill="white"/>
<path opacity="0.4" d="M212.687 139.961C211.082 140.35 204.907 140.669 204.504 142.729C204.101 144.789 207.764 145.759 209.285 147.607C209.229 147.607 202.919 147.607 201.505 150.686C200.09 153.766 202.672 160.378 202.672 164.017C202.672 167.656 199.503 174.941 201.929 178.721C204.051 182.02 206.017 189.616 204.992 196.83C203.924 192.512 203.188 188.335 202.163 185.85C199.935 180.526 198.817 176.279 199.751 165.659C200.684 155.04 199.468 152.796 200.776 144.464C201.71 138.481 202.311 134.878 204.037 133.066C206.053 132.627 208.33 132.457 209.695 133.434C212.617 135.451 214.314 139.565 212.687 139.961Z" fill="#92E3A9"/>
<path d="M228.291 166.743C228.291 166.743 221.925 167.111 221.217 166.743C220.51 166.375 216.549 158.899 216.365 156.569C216.181 154.24 215.807 146.764 215.616 142.092C215.425 137.419 215.439 130.142 206.668 131.692C202.75 132.4 202.092 136.103 200.79 144.435C199.489 152.768 200.698 154.984 199.765 165.624C198.831 176.265 199.949 180.491 202.191 185.85C204.433 191.209 205.261 204.837 211.23 209.878C217.2 214.918 219.541 224.624 219.541 224.624" stroke="#495E4C" stroke-width="0.6" stroke-linecap="round" stroke-linejoin="round"/>
<path d="M216.351 156.569C216.351 156.569 215.75 156.378 215.396 152.739C215.282 151.669 214.91 150.642 214.313 149.747C213.715 148.852 212.91 148.115 211.966 147.6" stroke="#495E4C" stroke-width="0.6" stroke-linecap="round" stroke-linejoin="round"/>
<path d="M203.761 147.6C203.761 147.6 201.158 148.159 200.126 151.805" stroke="#495E4C" stroke-width="0.6" stroke-linecap="round" stroke-linejoin="round"/>
<path d="M23.4101 72.1173C23.207 72.1177 23.0505 72.0224 22.9407 71.8312C22.8309 71.6361 22.7754 71.2593 22.7742 70.7007C22.7722 69.7398 22.9943 67.6729 23.4405 64.5C23.4676 64.3633 23.4186 64.2813 23.2935 64.2543C23.1685 64.2233 22.6567 64.2088 21.7583 64.2107C20.5317 64.2133 19.8288 64.2871 19.6494 64.432C19.47 64.577 19.3308 65.2296 19.2317 66.39C19.1937 66.851 19.082 67.5993 18.8967 68.6349C18.6728 69.8775 18.5615 70.7625 18.5626 71.2899L18.5868 71.659C18.5876 72.0105 18.42 72.1867 18.0841 72.1874C17.6817 72.1883 17.48 71.9367 17.4789 71.4328C17.4781 71.0305 17.5105 70.675 17.5762 70.3662C17.6845 69.8426 17.7752 69.3384 17.8484 68.8539C17.8946 68.5491 17.9486 68.2189 18.0103 67.8633C18.2572 66.4487 18.3801 65.4406 18.3788 64.8391C18.3783 64.636 18.2843 64.5248 18.0968 64.5057C17.7256 64.4635 17.5397 64.3116 17.5392 64.0499C17.5388 63.8741 17.5834 63.7314 17.673 63.6219C17.7665 63.5123 17.8875 63.4534 18.0359 63.4453C18.4109 63.4289 18.6842 63.3677 18.8558 63.2619C19.0119 63.1834 19.129 63.1441 19.2071 63.1439C19.3673 63.1436 19.506 63.1784 19.6234 63.2485C19.7525 63.3264 20.1275 63.3646 20.7486 63.3633C20.7564 63.3633 21.1705 63.3506 21.9907 63.3254C22.8149 63.3002 23.266 63.2797 23.3441 63.2639C23.4222 63.2481 23.5179 63.2167 23.631 63.1695C23.8145 63.091 23.9648 63.0516 24.082 63.0514L24.5509 63.1207L25.0723 63.0844C25.3887 63.0837 25.5472 63.2221 25.5478 63.4994C25.5482 63.6791 25.4899 63.8316 25.373 63.9568C25.256 64.0782 25.1234 64.1429 24.975 64.151C24.8695 64.1591 24.7778 64.1983 24.6998 64.2688C24.6218 64.3354 24.519 64.6325 24.3912 65.1601C24.2634 65.6877 24.1385 66.6118 24.0163 67.9324C23.8981 69.253 23.8401 70.4406 23.8424 71.4953L23.8428 71.7062C23.843 71.7883 23.7924 71.8723 23.691 71.9585C23.5896 72.0486 23.496 72.1015 23.4101 72.1173Z" fill="#495E4C"/>
<path d="M30.7548 67.9999C30.7975 67.9178 30.8649 67.4274 30.9567 66.5287C31.0254 65.8098 31.2532 65.45 31.6399 65.4491C31.9563 65.4485 32.1148 65.6063 32.1155 65.9227C32.1157 65.9969 32.0887 66.1474 32.0345 66.3741C31.7364 67.6208 31.5882 68.6661 31.59 69.5098C31.592 70.4239 31.7437 71.0153 32.0451 71.2842C32.2016 71.4284 32.28 71.5454 32.2802 71.6353C32.2804 71.7447 32.2006 71.8444 32.0406 71.9346C31.8845 72.0248 31.7421 72.07 31.6132 72.0703C31.0038 72.0716 30.6971 71.1309 30.693 69.2481C30.6927 69.1231 30.6457 69.0607 30.552 69.0609C30.1848 69.0617 29.7356 69.0841 29.2045 69.1282C28.6733 69.1724 28.2926 69.2279 28.0622 69.2948C27.8358 69.3617 27.6953 69.4245 27.6408 69.4832C27.5901 69.538 27.5436 69.6885 27.5011 69.9346C27.4626 70.1769 27.4436 70.4289 27.4442 70.6906L27.4457 71.4113C27.4466 71.8293 27.2557 72.0387 26.8728 72.0395C26.5525 72.0402 26.3919 71.8316 26.391 71.4136C26.3904 71.1402 26.4248 70.7924 26.4942 70.3704C26.6215 69.5967 26.7475 68.2644 26.8723 66.3735C26.8874 66.1274 26.9086 65.9711 26.9358 65.9046C26.963 65.8381 27.0331 65.7657 27.1462 65.6874C27.2633 65.6051 27.3901 65.5638 27.5268 65.5635C27.8081 65.5629 27.949 65.6778 27.9495 65.9083C27.9495 65.9434 27.9052 66.2365 27.8166 66.7875C27.724 67.3385 27.6781 67.7663 27.6787 68.071C27.6792 68.2858 27.7536 68.3931 27.9021 68.3928C28.199 68.3921 28.7418 68.3421 29.5307 68.2428C30.3195 68.1395 30.7275 68.0585 30.7548 67.9999Z" fill="#495E4C"/>
<path d="M53.4444 66.3785C53.4445 66.4371 53.601 66.5384 53.9138 66.6822C54.2618 66.8455 54.518 67.0012 54.6824 67.1493C54.8507 67.2935 54.9878 67.4885 55.0938 67.7344C55.2037 67.9763 55.259 68.2672 55.2598 68.6071C55.2604 68.9196 55.0504 69.3458 54.6297 69.8858C54.2129 70.4218 53.6709 70.8722 53.0037 71.2369C52.3404 71.5977 51.6475 71.7789 50.9248 71.7805C50.7881 71.7808 50.5966 71.7402 50.3503 71.6587C50.108 71.5772 49.9867 71.4915 49.9865 71.4016C49.9854 70.9095 50.3325 70.6626 51.0279 70.6611C51.2427 70.6646 51.4536 70.6621 51.6607 70.6539C51.8677 70.6417 52.1312 70.5728 52.4512 70.4471C52.7752 70.3175 53.0795 70.1372 53.3641 69.9061C53.6488 69.675 53.8534 69.4499 53.9779 69.2309C54.1024 69.008 54.1645 68.795 54.164 68.5918C54.1632 68.2325 54.0122 67.9144 53.7108 67.6377C53.4094 67.361 52.999 67.2233 52.4794 67.2244C52.4013 67.2245 52.2159 67.2874 51.9232 67.4131C51.6305 67.5426 51.4392 67.6075 51.3494 67.6077C51.0447 67.6083 50.8532 67.5697 50.7749 67.4917C50.7005 67.4138 50.6631 67.2752 50.6627 67.076C50.6624 66.9392 50.9901 66.7413 51.6458 66.482C52.2898 66.2267 52.869 65.8368 53.3835 65.3123C53.9019 64.7877 54.1608 64.3692 54.1601 64.0567C54.1596 63.8457 54.0499 63.6604 53.8308 63.5008C53.6156 63.3372 53.3205 63.2558 52.9455 63.2566C52.4611 63.2576 51.8987 63.3252 51.2584 63.4594C50.6181 63.5897 50.2668 63.7174 50.2045 63.8426C50.1462 63.9677 49.9842 64.9192 49.7185 66.6971C49.4528 68.4711 49.3203 69.4968 49.3209 69.7742C49.3212 69.9226 49.3293 70.0652 49.3452 70.2019C49.3572 70.3425 49.3634 70.4753 49.3637 70.6003C49.3648 71.1354 49.1056 71.4035 48.5861 71.4047C48.4416 71.405 48.3222 71.3017 48.228 71.0949C48.1338 70.8881 48.0865 70.6987 48.0862 70.5268C48.086 70.4526 48.1498 70.1537 48.2776 69.6299C48.4323 68.9187 48.5864 67.9457 48.74 66.711C48.8936 65.4723 48.9703 64.812 48.9701 64.73C48.9698 64.5659 48.9461 64.4449 48.899 64.3669C48.8559 64.2888 48.7542 64.25 48.5941 64.2503C48.5316 64.2505 48.4691 64.2526 48.4066 64.2566C48.348 64.2606 48.2874 64.2237 48.2247 64.1457C48.166 64.0677 48.1365 63.974 48.1362 63.8646C48.1356 63.556 48.6466 63.2268 49.6693 62.8769C50.6919 62.5231 51.9123 62.3447 53.3302 62.3417C53.8497 62.3406 54.3111 62.5153 54.7142 62.866C55.1212 63.2167 55.3251 63.5776 55.3259 63.9487C55.3265 64.2143 55.1495 64.5917 54.7951 65.0807C54.4446 65.5658 53.9944 65.9985 53.4444 66.3785Z" fill="#495E4C"/>
<path d="M61.2381 66.6899C60.8748 66.6984 60.0998 67.7763 58.913 69.9234C58.5122 70.6469 58.2787 71.042 58.2124 71.1085C58.1462 71.1711 58.0232 71.2281 57.8437 71.2792C57.668 71.3304 57.5216 71.3561 57.4044 71.3563C57.1427 71.3569 57.0107 70.8474 57.0085 69.8279C57.0073 69.2537 57.1281 68.2144 57.3709 66.7099C57.4712 66.1003 57.521 65.6647 57.5204 65.403C57.5199 65.1451 57.6348 65.016 57.8653 65.0155C58.2989 65.0146 58.5164 65.3266 58.5177 65.9516C58.5183 66.2445 58.4473 66.8189 58.3046 67.6747C58.1388 68.6516 58.0541 69.2456 58.0507 69.4565C58.2923 69.2216 58.6467 68.7072 59.1137 67.9132C59.7755 66.8258 60.2623 66.1373 60.5741 65.8475C60.8899 65.5539 61.2158 65.4067 61.5517 65.406C61.8056 65.4054 62.0071 65.5749 62.1563 65.9144C62.3094 66.2539 62.4029 67.0643 62.4369 68.3455C62.4454 68.6658 62.4753 68.904 62.5264 69.0601C62.5775 69.2163 62.6148 69.2943 62.6382 69.2943C62.8218 69.2939 63.2189 68.668 63.8295 67.4167C64.1562 66.7558 64.4735 66.2532 64.7813 65.9088C65.0931 65.5643 65.4384 65.3917 65.8173 65.3909C66.1337 65.3902 66.3645 65.5538 66.5098 65.8816C66.655 66.2055 66.7595 66.6877 66.8234 67.3282C66.8834 67.9765 66.9745 68.5701 67.0968 69.1089C67.223 69.6476 67.4503 69.9929 67.7787 70.1445C68.0016 70.2495 68.1132 70.3723 68.1135 70.5129C68.1138 70.6496 68.0204 70.7905 67.8332 70.9354C67.646 71.0803 67.4743 71.153 67.318 71.1533C67.0055 71.154 66.7258 70.9632 66.4789 70.5809C66.232 70.1986 66.0446 69.3709 65.9169 68.0977C65.8611 67.5861 65.8076 67.223 65.7563 67.0082C65.7051 66.7935 65.6248 66.6862 65.5154 66.6865C65.3513 66.6868 65.1564 66.8435 64.9305 67.1565C64.7085 67.4695 64.3485 68.105 63.8506 69.0631C63.4616 69.8101 63.1658 70.3087 62.9632 70.5592C62.7645 70.8057 62.5714 70.9292 62.3839 70.9296C62.216 70.9299 62.0654 70.8639 61.9323 70.7313C61.7992 70.5949 61.7149 70.433 61.6793 70.2456C61.6438 70.0542 61.6056 69.5875 61.565 68.8454C61.5037 67.6112 61.3947 66.8926 61.2381 66.6899Z" fill="#495E4C"/>
<path d="M91.2 68.8925C91.3523 68.8922 91.4287 68.9858 91.4291 69.1733C91.4295 69.3686 91.2134 69.6484 90.7805 70.0126C90.3477 70.3768 89.8464 70.667 89.2766 70.883C88.7106 71.0991 88.1913 71.2076 87.7187 71.2087C87.0273 71.2102 86.3959 70.983 85.8246 70.5272C85.2572 70.0714 84.9726 69.4099 84.9707 68.5427C84.9673 66.9607 85.6437 65.4202 86.9998 63.9211C88.3599 62.4182 89.6707 61.6654 90.9325 61.6626C91.4051 61.6616 91.7824 61.8073 92.0643 62.0997C92.35 62.3881 92.4933 62.7257 92.4942 63.1124C92.495 63.4718 92.4741 63.755 92.4316 63.9621C92.3929 64.1693 92.2703 64.3453 92.0636 64.4903C91.8568 64.6314 91.691 64.702 91.566 64.7023C91.4761 64.7025 91.3979 64.6636 91.3313 64.5856C91.2648 64.5076 91.2313 64.4022 91.231 64.2694C91.2309 64.1796 91.2636 63.992 91.3294 63.7067C91.3952 63.4253 91.428 63.2163 91.4277 63.0795C91.4268 62.6811 91.2526 62.4823 90.9049 62.483C90.3659 62.4842 89.6986 62.7962 88.903 63.419C88.1114 64.0379 87.4393 64.8245 86.8866 65.7788C86.334 66.7292 86.0585 67.6048 86.0603 68.4056C86.0614 68.9407 86.2206 69.3857 86.5378 69.7405C86.8588 70.0914 87.3143 70.2662 87.9041 70.2649C88.244 70.2642 88.6559 70.1793 89.1399 70.0103C89.6278 69.8373 90.0746 69.6079 90.4802 69.3218C90.8859 69.0358 91.1258 68.8927 91.2 68.8925Z" fill="#495E4C"/>
<path d="M94.4836 69.9753C94.2937 70.6788 94.1162 71.6656 93.9509 72.9354L93.7893 74.0432C93.7622 74.1995 93.6903 74.354 93.5735 74.5066C93.4566 74.6631 93.3494 74.7414 93.2517 74.7417C93.1306 74.7419 92.9918 74.6797 92.8353 74.555C92.6827 74.4343 92.6063 74.3368 92.6061 74.2626C92.6057 74.0477 92.6539 73.7508 92.7507 73.3716C93.4593 70.4834 93.8113 67.9475 93.8065 65.7639L93.7996 65.2717C93.7909 64.8498 93.8645 64.543 94.0203 64.3513C94.1761 64.1596 94.3556 64.0635 94.5587 64.063C94.6525 64.0628 94.7425 64.1368 94.8287 64.2851C94.915 64.4294 94.9584 64.6364 94.959 64.9059C94.9598 65.2848 94.9217 65.7439 94.8448 66.2831C94.7447 66.963 94.6928 67.3538 94.6891 67.4553C95.2689 66.4385 95.8844 65.6442 96.5355 65.0724C97.1866 64.5007 97.7915 64.2143 98.3501 64.213C98.7446 64.2122 99.077 64.3599 99.3471 64.6562C99.6212 64.9486 99.7587 65.3135 99.7597 65.751C99.7624 67.0245 99.2766 68.1818 98.3023 69.2229C97.328 70.2641 96.3779 70.7857 95.4522 70.7877C95.2217 70.7882 95.038 70.73 94.901 70.6131C94.7679 70.4962 94.6288 70.2836 94.4836 69.9753ZM98.1121 65.2507C97.5613 65.2519 96.8808 65.769 96.0705 66.802C95.2602 67.835 94.8557 68.6386 94.857 69.2128C94.8573 69.3534 94.9376 69.49 95.0981 69.6224C95.2585 69.7549 95.4618 69.8209 95.7079 69.8203C96.2665 69.8191 96.9082 69.4056 97.6329 68.5798C98.3577 67.7501 98.7192 66.9369 98.7175 66.14C98.7169 65.8548 98.6578 65.6362 98.5403 65.4841C98.4267 65.3281 98.284 65.2503 98.1121 65.2507Z" fill="#495E4C"/>
<path d="M120.312 62.9418L120.295 63.2289C120.276 63.3071 120.171 63.819 119.982 64.7647L119.947 64.9172C119.912 65.1672 119.823 66.142 119.678 67.8416L119.529 69.3829C119.506 69.6369 119.489 69.9885 119.479 70.4377C119.453 71.219 119.409 71.6605 119.347 71.7622C119.288 71.8639 119.189 71.9559 119.048 72.0383C118.912 72.1245 118.781 72.1677 118.656 72.168C118.515 72.1683 118.406 72.0846 118.327 71.9168C118.249 71.7529 118.209 71.5498 118.209 71.3077C118.208 71.0225 118.289 70.3641 118.451 69.3325C118.562 68.6252 118.635 67.795 118.668 66.8418C118.648 66.7129 118.591 66.6447 118.498 66.6371C118.392 66.6373 118.059 66.808 117.497 67.149C116.845 67.5489 116.25 67.8255 115.711 67.9791C115.177 68.1286 114.751 68.2038 114.435 68.2045C113.919 68.2056 113.536 68.0423 113.285 67.7148C113.034 67.3833 112.908 66.6863 112.906 65.6238C112.905 65.1511 112.978 64.5494 113.124 63.8186C113.275 63.0839 113.462 62.6616 113.684 62.5518C113.91 62.4419 114.08 62.3869 114.194 62.3866C114.287 62.3864 114.371 62.437 114.446 62.5384C114.52 62.6398 114.558 62.7843 114.558 62.9718C114.558 63.0108 114.454 63.3997 114.244 64.1385C114.031 64.8811 113.925 65.4419 113.926 65.8208C113.927 66.4224 113.967 66.8031 114.045 66.9631C114.124 67.1192 114.36 67.1968 114.755 67.196C115.009 67.1954 115.374 67.1165 115.85 66.9592C116.326 66.8019 116.8 66.5919 117.272 66.3292C117.744 66.0665 118.107 65.8137 118.361 65.571C118.614 65.3282 118.768 65.158 118.822 65.0602C118.877 64.9585 118.921 64.7143 118.956 64.3275C118.963 64.2142 118.973 64.1146 118.984 64.0286C119.023 63.7082 119.041 63.4015 119.041 63.1086C119.041 62.9875 119.12 62.8408 119.28 62.6686C119.444 62.4964 119.59 62.4101 119.719 62.4098C119.864 62.4095 119.998 62.462 120.124 62.5672C120.249 62.6685 120.312 62.7933 120.312 62.9418Z" fill="#495E4C"/>
<path d="M126.514 66.9421C126.151 66.9507 125.376 68.0285 124.189 70.1756C123.788 70.8991 123.555 71.2942 123.488 71.3607C123.422 71.4234 123.299 71.4803 123.12 71.5314C122.944 71.5826 122.797 71.6083 122.68 71.6086C122.419 71.6091 122.287 71.0996 122.284 70.0801C122.283 69.5059 122.404 68.4666 122.647 66.9621C122.747 66.3525 122.797 65.9169 122.796 65.6552C122.796 65.3974 122.911 65.2682 123.141 65.2677C123.575 65.2668 123.792 65.5788 123.794 66.2038C123.794 66.4968 123.723 67.0711 123.581 67.9269C123.415 68.9038 123.33 69.4978 123.327 69.7087C123.568 69.4738 123.923 68.9594 124.39 68.1654C125.051 67.078 125.538 66.3895 125.85 66.0997C126.166 65.8061 126.492 65.6589 126.828 65.6582C127.081 65.6576 127.283 65.8271 127.432 66.1666C127.585 66.5062 127.679 67.3165 127.713 68.5977C127.721 68.918 127.751 69.1562 127.802 69.3123C127.853 69.4685 127.891 69.5465 127.914 69.5465C128.098 69.5461 128.495 68.9202 129.105 67.6689C129.432 67.008 129.749 66.5054 130.057 66.161C130.369 65.8166 130.714 65.6439 131.093 65.6431C131.41 65.6424 131.64 65.806 131.786 66.1338C131.931 66.4577 132.035 66.9399 132.099 67.5804C132.159 68.2287 132.25 68.8223 132.373 69.3611C132.499 69.8999 132.726 70.2451 133.055 70.3967C133.278 70.5017 133.389 70.6245 133.389 70.7651C133.39 70.9018 133.296 71.0427 133.109 71.1876C132.922 71.3325 132.75 71.4052 132.594 71.4055C132.281 71.4062 132.002 71.2154 131.755 70.8331C131.508 70.4508 131.321 69.6231 131.193 68.3499C131.137 67.8383 131.083 67.4752 131.032 67.2604C130.981 67.0457 130.901 66.9385 130.791 66.9387C130.627 66.939 130.432 67.0957 130.206 67.4087C129.984 67.7217 129.624 68.3572 129.126 69.3153C128.737 70.0623 128.442 70.561 128.239 70.8114C128.04 71.0579 127.847 71.1814 127.66 71.1818C127.492 71.1822 127.341 71.1161 127.208 70.9835C127.075 70.8471 126.991 70.6852 126.955 70.4978C126.92 70.3064 126.882 69.8397 126.841 69.0976C126.78 67.8634 126.671 67.1449 126.514 66.9421Z" fill="#495E4C"/>
<path d="M152.278 72.3131C152.075 72.3135 151.918 72.2182 151.808 72.027C151.699 71.8319 151.643 71.4551 151.642 70.8965C151.64 69.9356 151.862 67.8687 152.308 64.6958C152.335 64.5591 152.286 64.4771 152.161 64.4501C152.036 64.4191 151.524 64.4046 150.626 64.4065C149.399 64.4091 148.696 64.4829 148.517 64.6278C148.338 64.7728 148.198 65.4254 148.099 66.5858C148.061 67.0468 147.95 67.7951 147.764 68.8307C147.541 70.0733 147.429 70.9583 147.43 71.4857L147.455 71.8548C147.455 72.2063 147.288 72.3825 146.952 72.3832C146.549 72.3841 146.348 72.1325 146.347 71.6286C146.346 71.2263 146.378 70.8708 146.444 70.562C146.552 70.0384 146.643 69.5342 146.716 69.0497C146.762 68.7449 146.816 68.4147 146.878 68.0591C147.125 66.6445 147.248 65.6364 147.246 65.0349C147.246 64.8318 147.152 64.7206 146.964 64.7015C146.593 64.6593 146.407 64.5074 146.407 64.2457C146.406 64.0699 146.451 63.9272 146.541 63.8177C146.634 63.7081 146.755 63.6492 146.904 63.6411C147.279 63.6247 147.552 63.5635 147.724 63.4577C147.88 63.3792 147.997 63.3399 148.075 63.3397C148.235 63.3394 148.374 63.3742 148.491 63.4443C148.62 63.5222 148.995 63.5604 149.616 63.5591C149.624 63.5591 150.038 63.5464 150.858 63.5212C151.683 63.496 152.134 63.4755 152.212 63.4597C152.29 63.4439 152.386 63.4125 152.499 63.3653C152.682 63.2868 152.832 63.2474 152.95 63.2472L153.419 63.3165L153.94 63.2802C154.256 63.2795 154.415 63.4179 154.415 63.6952C154.416 63.8749 154.358 64.0274 154.241 64.1526C154.124 64.274 153.991 64.3387 153.843 64.3468C153.737 64.3549 153.645 64.3941 153.567 64.4646C153.49 64.5312 153.387 64.8283 153.259 65.3559C153.131 65.8835 153.006 66.8076 152.884 68.1282C152.766 69.4488 152.708 70.6364 152.71 71.6911L152.71 71.902C152.711 71.9841 152.66 72.0681 152.559 72.1543C152.457 72.2444 152.364 72.2973 152.278 72.3131Z" fill="#495E4C"/>
<path d="M159.556 67.3872C159.193 67.3958 158.418 68.4737 157.231 70.6208C156.83 71.3443 156.597 71.7393 156.531 71.8059C156.464 71.8685 156.341 71.9254 156.162 71.9766C155.986 72.0278 155.84 72.0535 155.723 72.0537C155.461 72.0543 155.329 71.5448 155.327 70.5253C155.325 69.9511 155.446 68.9117 155.689 67.4073C155.789 66.7977 155.839 66.3621 155.839 66.1003C155.838 65.8425 155.953 65.7134 156.183 65.7129C156.617 65.7119 156.835 66.024 156.836 66.649C156.837 66.9419 156.765 67.5163 156.623 68.3721C156.457 69.349 156.372 69.9429 156.369 70.1539C156.611 69.919 156.965 69.4046 157.432 68.6106C158.094 67.5232 158.58 66.8347 158.892 66.5449C159.208 66.2513 159.534 66.1041 159.87 66.1034C160.124 66.1028 160.325 66.2723 160.474 66.6118C160.628 66.9513 160.721 67.7617 160.755 69.0429C160.764 69.3632 160.793 69.6014 160.845 69.7575C160.896 69.9136 160.933 69.9917 160.956 69.9916C161.14 69.9912 161.537 69.3654 162.148 68.1141C162.474 67.4532 162.792 66.9506 163.099 66.6062C163.411 66.2617 163.757 66.0891 164.135 66.0883C164.452 66.0876 164.683 66.2512 164.828 66.579C164.973 66.9029 165.078 67.3851 165.142 68.0256C165.202 68.6739 165.293 69.2674 165.415 69.8062C165.541 70.345 165.768 70.6902 166.097 70.8419C166.32 70.9469 166.431 71.0697 166.432 71.2103C166.432 71.347 166.339 71.4878 166.151 71.6328C165.964 71.7777 165.792 71.8504 165.636 71.8507C165.324 71.8514 165.044 71.6606 164.797 71.2783C164.55 70.896 164.363 70.0683 164.235 68.7951C164.179 68.2835 164.126 67.9203 164.075 67.7056C164.023 67.4909 163.943 67.3836 163.834 67.3839C163.67 67.3842 163.475 67.5409 163.249 67.8539C163.027 68.1669 162.667 68.8024 162.169 69.7605C161.78 70.5074 161.484 71.0061 161.281 71.2566C161.083 71.5031 160.89 71.6266 160.702 71.627C160.534 71.6273 160.384 71.5612 160.251 71.4287C160.117 71.2923 160.033 71.1304 159.998 70.9429C159.962 70.7516 159.924 70.2849 159.883 69.5428C159.822 68.3085 159.713 67.59 159.556 67.3872Z" fill="#495E4C"/>
<path d="M118.288 41.2285C118.222 41.6073 118.007 41.798 117.643 41.8006L116.235 41.8109C116.075 41.8121 115.198 41.8891 113.604 42.042C113.035 42.0963 112.694 42.1239 112.58 42.1247C112.498 42.1253 112.354 42.0922 112.148 42.0253C112.039 41.9897 111.959 42.0313 111.91 42.1501L111.917 42.1364C111.427 46.2462 111.183 48.431 111.185 48.6907C111.186 48.8685 111.201 49.062 111.23 49.2715C111.264 49.5082 111.282 49.7291 111.283 49.9342C111.285 50.1894 111.132 50.4184 110.823 50.6212C110.519 50.8285 110.315 50.9325 110.21 50.9333C110.042 50.9345 109.836 50.8448 109.593 50.6643C109.355 50.4838 109.235 50.2636 109.233 50.0038C109.23 49.6803 109.257 49.336 109.314 48.971C109.331 48.8615 109.349 48.7246 109.366 48.5605C109.391 48.2914 109.476 47.6915 109.619 46.7607C109.785 45.6976 109.867 45.1456 109.867 45.1046L110.157 42.6551C110.15 41.7254 110.162 41.142 110.192 40.9048C110.222 40.663 110.332 40.4663 110.522 40.3145C110.717 40.1581 110.954 40.0789 111.232 40.0769C111.432 40.0754 111.654 40.1262 111.896 40.2293C112.293 40.3904 112.713 40.4694 113.155 40.4662L116.25 40.1975C116.76 40.1527 117.226 40.2086 117.646 40.365C118.071 40.5214 118.285 40.7751 118.287 41.126L118.288 41.2285Z" fill="#495E4C"/>
<path d="M122.377 49.8737C122.288 50.2435 122.179 50.9234 122.05 51.9133C121.92 52.9077 121.843 53.5737 121.818 53.9111C121.794 54.2531 121.677 54.5433 121.469 54.7818C121.266 55.0203 121.082 55.1401 120.918 55.1413C120.713 55.1428 120.51 55.0668 120.308 54.9134C120.106 54.7599 120.005 54.592 120.004 54.4097C120.001 54.0406 120.055 53.6141 120.165 53.1302C120.829 50.3954 121.182 47.5787 121.225 44.6798L121.224 44.5431C121.219 43.978 121.235 43.5974 121.27 43.4012C121.305 43.2004 121.417 43.0081 121.608 42.8245C121.798 42.6408 122.023 42.548 122.282 42.5461C122.501 42.5445 122.679 42.6412 122.818 42.8361C122.96 43.0311 123.033 43.3131 123.036 43.6822C123.038 44.0559 122.975 44.7104 122.845 45.6456C123.345 44.7988 123.943 44.0971 124.641 43.5406C125.343 42.9795 125.984 42.6968 126.563 42.6926C127.073 42.6888 127.507 42.868 127.866 43.23C128.228 43.5919 128.412 44.0486 128.416 44.6C128.426 46.072 127.864 47.4159 126.729 48.6319C125.599 49.8434 124.475 50.4531 123.359 50.4613C122.839 50.4651 122.512 50.2692 122.377 49.8737ZM126.308 44.2462C125.752 44.2503 125.033 44.7979 124.152 45.889C123.276 46.98 122.84 47.8354 122.845 48.4552C122.846 48.6147 122.925 48.7577 123.081 48.8842C123.241 49.0061 123.426 49.0662 123.636 49.0647C124.214 49.0605 124.874 48.6022 125.615 47.6899C126.36 46.7729 126.73 45.8907 126.724 45.043C126.721 44.7605 126.677 44.558 126.589 44.4356C126.502 44.3086 126.408 44.2455 126.308 44.2462Z" fill="#495E4C"/>
<path d="M136.991 47.9349C135.813 49.5159 134.675 50.3103 133.577 50.3183C133.167 50.3213 132.812 50.1621 132.514 49.8407C132.215 49.5193 132.064 49.108 132.06 48.6067C132.052 47.399 132.58 46.11 133.645 44.7396C134.711 43.3646 135.791 42.6731 136.884 42.6651C137.44 42.661 137.807 42.9386 137.984 43.4979C138.508 43.4941 138.772 43.6927 138.775 44.0937C138.776 44.2851 138.728 44.6318 138.632 45.1338C138.456 46.0739 138.371 46.8243 138.375 47.3848C138.379 47.9681 138.421 48.378 138.5 48.6144C138.584 48.8508 138.644 49.0053 138.681 49.0779C138.718 49.1506 138.828 49.2272 139.011 49.3079C139.194 49.3932 139.286 49.5133 139.287 49.6682C139.289 49.9006 139.172 50.0952 138.936 50.2519C138.705 50.4085 138.461 50.4878 138.206 50.4896C137.778 50.4927 137.466 50.2808 137.272 49.8538C137.082 49.4268 136.985 48.9262 136.981 48.352L136.979 48.147C136.979 48.0786 136.983 48.0079 136.991 47.9349ZM136.594 44.1301C136.134 44.1335 135.538 44.6483 134.808 45.6745C134.081 46.6961 133.721 47.5623 133.726 48.2732C133.729 48.6469 133.808 48.8332 133.962 48.8321C134.5 48.8282 135.158 48.3471 135.934 47.3889C136.716 46.4262 137.104 45.5871 137.099 44.8716C137.097 44.6437 137.043 44.4641 136.937 44.3327C136.836 44.1967 136.722 44.1292 136.594 44.1301Z" fill="#495E4C"/>
<path d="M148.657 49.3879C148.612 49.5888 148.529 50.3687 148.407 51.7277L148.199 54.1082C148.182 54.2952 148.081 54.4782 147.895 54.6573C147.71 54.8364 147.526 54.9266 147.343 54.9279C147.052 54.93 146.828 54.8496 146.672 54.6867C146.516 54.5284 146.437 54.3649 146.436 54.1962C146.433 53.8134 146.567 52.8759 146.839 51.3837C146.935 50.8406 147.038 50.2315 147.147 49.5562C146.522 50.062 145.872 50.3174 145.197 50.3224C144.514 50.3274 143.982 50.1398 143.6 49.7598C143.224 49.3797 143.033 48.8411 143.028 48.1438C143.02 47.0501 143.429 45.9123 144.254 44.7305C145.08 43.5486 145.902 42.9547 146.723 42.9487C147.169 42.9455 147.539 43.2686 147.83 43.9182C147.86 43.5716 147.872 43.1249 147.868 42.5781L147.826 40.5275C147.823 40.0809 147.8 39.7552 147.758 39.5505C147.73 39.4595 147.715 39.3958 147.715 39.3594C147.713 39.1224 147.789 38.9031 147.943 38.7014C148.096 38.4998 148.285 38.3981 148.508 38.3965C148.667 38.3953 148.85 38.4647 149.056 38.6044C149.262 38.7396 149.391 38.9051 149.443 39.1006C149.499 39.2916 149.528 39.574 149.531 39.9477C149.544 41.7569 149.468 43.234 149.304 44.3791L149.168 45.4261C149.544 44.5711 150.034 43.8816 150.636 43.3577C151.243 42.8337 151.863 42.5694 152.496 42.5648C153.011 42.561 153.441 42.7425 153.786 43.1091C154.135 43.4711 154.311 43.9256 154.315 44.4724C154.323 45.5434 154.14 46.4494 153.768 47.1904C153.395 47.9269 152.821 48.6033 152.046 49.2196C151.271 49.836 150.471 50.1471 149.646 50.1532C149.223 50.1563 148.893 49.9012 148.657 49.3879ZM149.164 47.8051C149.166 48.042 149.238 48.2443 149.381 48.4119C149.528 48.5749 149.727 48.6555 149.977 48.6536C150.547 48.6495 151.141 48.2418 151.759 47.4306C152.378 46.6195 152.684 45.7832 152.678 44.9219C152.676 44.6348 152.626 44.4301 152.53 44.3077C152.438 44.1854 152.341 44.1245 152.241 44.1253C151.945 44.1274 151.657 44.2526 151.376 44.5007C151.095 44.7443 150.743 45.1639 150.319 45.7595C149.894 46.3505 149.51 47.0323 149.164 47.8051ZM147.368 47.9686C147.471 47.1429 147.528 46.5227 147.539 46.1079C147.545 45.7296 147.523 45.4495 147.471 45.2675C147.424 45.081 147.304 44.8928 147.112 44.7028C146.919 44.5082 146.729 44.4116 146.542 44.413C146.323 44.4146 145.96 44.8411 145.451 45.6925C144.946 46.5393 144.697 47.3477 144.703 48.1179C144.705 48.3549 144.772 48.5481 144.905 48.6975C145.039 48.8469 145.228 48.9207 145.474 48.9189C145.725 48.9171 146.064 48.8075 146.49 48.5902C146.917 48.3684 147.21 48.1611 147.368 47.9686Z" fill="#495E4C"/>
<path d="M163.162 47.5183C162.73 48.319 162.227 48.9562 161.651 49.4298C161.081 49.9033 160.499 50.1423 159.907 50.1466C159.556 50.1492 159.199 49.9672 158.836 49.6007C158.478 49.2342 158.296 48.6681 158.291 47.9025C158.287 47.3602 158.417 46.5412 158.683 45.4455C158.913 44.5414 159.027 43.8547 159.023 43.3853C159.203 43.0012 159.486 42.8077 159.874 42.8049C160.138 42.8029 160.348 42.8903 160.504 43.0669C160.665 43.2389 160.746 43.4138 160.747 43.5915C160.75 43.915 160.639 44.3761 160.416 44.9748C160.286 45.3312 160.146 45.8358 159.996 46.4886C159.85 47.1369 159.778 47.5521 159.78 47.7344C159.784 48.3405 159.912 48.6426 160.162 48.6408C160.559 48.6379 161.091 48.2535 161.76 47.4875C162.429 46.7215 162.863 45.9391 163.063 45.1401C163.262 44.3593 163.441 43.8475 163.598 43.6049C163.756 43.3622 163.981 43.2397 164.272 43.2376C164.746 43.2342 164.985 43.4967 164.989 44.0254C164.99 44.1028 164.952 44.2581 164.876 44.4911C164.613 45.2996 164.485 46.2098 164.493 47.2215C164.501 48.4063 164.707 49.1135 165.11 49.343C165.243 49.4195 165.309 49.5147 165.31 49.6286C165.311 49.7927 165.196 49.9485 164.965 50.096C164.734 50.2436 164.513 50.3181 164.304 50.3196C163.944 50.3222 163.664 50.0713 163.464 49.5669C163.269 49.0579 163.168 48.375 163.162 47.5183Z" fill="#495E4C"/>
<path d="M173.086 46.4614C173.292 46.5101 173.484 46.5975 173.662 46.7238C173.841 46.8502 174.055 47.081 174.303 47.4165C174.782 48.0692 175.159 48.4972 175.434 48.7002C175.709 48.9033 176.008 49.0037 176.331 49.0013C176.669 48.9988 176.838 49.1024 176.84 49.3121C176.841 49.5126 176.726 49.7162 176.495 49.923C176.265 50.1297 175.898 50.235 175.397 50.2386C174.627 50.2442 173.841 49.6142 173.039 48.3486C172.573 47.6045 172.185 47.2337 171.875 47.2359C171.834 47.2362 171.723 47.2667 171.541 47.3272C171.364 47.3878 171.248 47.4433 171.193 47.4938C171.139 47.5398 171.096 47.8295 171.063 48.363L170.997 49.6213C170.989 49.8265 170.906 50.0025 170.748 50.1495C170.59 50.3011 170.392 50.3777 170.155 50.3794C169.904 50.3813 169.708 50.3121 169.565 50.1718C169.423 50.0361 169.352 49.8977 169.35 49.7564C169.349 49.5832 169.403 49.2114 169.513 48.6409C169.776 47.2034 169.98 45.4473 170.124 43.3726C170.141 43.1082 170.248 42.8659 170.447 42.6456C170.646 42.4254 170.88 42.3144 171.149 42.3124C171.336 42.311 171.491 42.3896 171.615 42.5483C171.74 42.7069 171.802 42.891 171.804 43.1006C171.805 43.2647 171.779 43.4312 171.726 43.6002C171.659 43.7967 171.564 44.1984 171.44 44.8054C171.322 45.4124 171.25 45.8756 171.225 46.1948C171.766 46.0267 172.186 45.7958 172.485 45.5019C172.783 45.2081 173.153 44.7383 173.595 44.0924C173.965 43.5611 174.313 43.1689 174.64 42.9158C174.966 42.6582 175.325 42.528 175.717 42.5251C175.931 42.5236 176.13 42.6133 176.314 42.7942C176.502 42.9706 176.596 43.159 176.598 43.3596C176.599 43.5282 176.548 43.6562 176.444 43.7435C176.344 43.8263 176.167 43.9073 175.912 43.9866C175.589 44.0847 175.245 44.347 174.879 44.7735C174.12 45.6586 173.522 46.2213 173.086 46.4614Z" fill="#495E4C"/>
<path d="M186.918 69.6613C187.071 69.661 187.147 69.7546 187.147 69.9421C187.148 70.1374 186.932 70.4172 186.499 70.7814C186.066 71.1456 185.565 71.4358 184.995 71.6518C184.429 71.8679 183.91 71.9764 183.437 71.9775C182.746 71.9789 182.114 71.7518 181.543 71.296C180.976 70.8402 180.691 70.1787 180.689 69.3115C180.686 67.7295 181.362 66.189 182.718 64.6899C184.078 63.187 185.389 62.4342 186.651 62.4314C187.123 62.4304 187.501 62.5761 187.783 62.8684C188.068 63.1569 188.212 63.4945 188.213 63.8812C188.213 64.2406 188.192 64.5238 188.15 64.7309C188.111 64.9381 187.989 65.1141 187.782 65.2591C187.575 65.4002 187.409 65.4708 187.284 65.4711C187.194 65.4713 187.116 65.4324 187.05 65.3544C186.983 65.2764 186.95 65.171 186.949 65.0382C186.949 64.9484 186.982 64.7608 187.048 64.4755C187.114 64.1941 187.146 63.9851 187.146 63.8483C187.145 63.4499 186.971 63.2511 186.623 63.2518C186.084 63.253 185.417 63.565 184.621 64.1878C183.83 64.8067 183.158 65.5933 182.605 66.5476C182.052 67.498 181.777 68.3736 181.779 69.1744C181.78 69.7095 181.939 70.1545 182.256 70.5093C182.577 70.8602 183.033 71.035 183.622 71.0337C183.962 71.033 184.374 70.9481 184.858 70.7791C185.346 70.6061 185.793 70.3767 186.199 70.0906C186.604 69.8046 186.844 69.6615 186.918 69.6613Z" fill="#495E4C"/>
<path d="M192.622 65.3307C192.473 64.9286 192.128 64.4938 191.588 64.0263C191.079 63.5899 190.824 63.2154 190.824 62.9029C190.823 62.6529 190.905 62.4516 191.068 62.2989C191.232 62.1423 191.537 62.001 191.982 61.875C192.536 61.7215 193.1 61.5484 193.674 61.3557C194.248 61.1592 194.593 61.0334 194.71 60.9785C194.784 60.9432 194.86 60.9254 194.939 60.9253C195.067 60.925 195.132 61.0401 195.133 61.2706C195.133 61.3995 194.977 61.5756 194.665 61.7989C194.353 62.0222 193.801 62.2305 193.008 62.4236C192.508 62.5497 192.202 62.6441 192.089 62.7068C191.98 62.7656 191.925 62.8263 191.925 62.8888C191.926 63.0294 192.078 63.2322 192.384 63.4972C193.534 64.4986 194.111 65.7571 194.114 67.2728C194.116 67.9251 193.945 68.6247 193.603 69.3715C193.261 70.1145 192.803 70.6682 192.23 71.0327C191.66 71.3972 191.102 71.5801 190.555 71.5812C190.063 71.5823 189.69 71.3429 189.435 70.8629C189.18 70.383 189.052 69.854 189.05 69.2759C189.048 68.2524 189.36 67.2869 189.987 66.3793C190.618 65.4717 191.285 65.0171 191.988 65.0156C192.082 65.0154 192.199 65.0757 192.34 65.1965C192.47 65.3134 192.563 65.3581 192.622 65.3307ZM190.076 69.2971C190.077 69.7307 190.134 70.0704 190.248 70.3163C190.366 70.5621 190.518 70.6848 190.706 70.6844C190.956 70.6839 191.293 70.5289 191.718 70.2193C192.143 69.9098 192.484 69.4521 192.741 68.846C193.001 68.24 193.131 67.6733 193.13 67.146C193.129 66.7085 193.066 66.3551 192.94 66.0858C192.818 65.8127 192.705 65.6762 192.599 65.6764C191.904 65.6779 191.309 66.103 190.815 66.9518C190.321 67.8005 190.074 68.5823 190.076 69.2971Z" fill="#495E4C"/>
<path d="M220.326 65.7218C220.326 65.7804 220.483 65.8816 220.796 66.0255C221.144 66.1888 221.4 66.3445 221.564 66.4926C221.733 66.6367 221.87 66.8318 221.976 67.0776C222.086 67.3196 222.141 67.6105 222.142 67.9503C222.142 68.2628 221.932 68.6891 221.512 69.229C221.095 69.7651 220.553 70.2155 219.886 70.5802C219.222 70.941 218.529 71.1222 217.807 71.1237C217.67 71.124 217.479 71.0834 217.232 71.0019C216.99 70.9204 216.869 70.8347 216.868 70.7449C216.867 70.2527 217.214 70.0059 217.91 70.0044C218.125 70.0078 218.336 70.0054 218.543 69.9972C218.75 69.985 219.013 69.9161 219.333 69.7904C219.657 69.6608 219.961 69.4804 220.246 69.2493C220.531 69.0182 220.735 68.7932 220.86 68.5742C220.984 68.3513 221.046 68.1382 221.046 67.9351C221.045 67.5757 220.894 67.2577 220.593 66.981C220.291 66.7043 219.881 66.5665 219.361 66.5676C219.283 66.5678 219.098 66.6307 218.805 66.7563C218.512 66.8859 218.321 66.9507 218.231 66.9509C217.927 66.9516 217.735 66.9129 217.657 66.835C217.582 66.757 217.545 66.6184 217.545 66.4192C217.544 66.2825 217.872 66.0845 218.528 65.8253C219.172 65.57 219.751 65.1801 220.265 64.6555C220.784 64.131 221.043 63.7124 221.042 63.3999C221.042 63.189 220.932 63.0037 220.713 62.844C220.497 62.6804 220.202 62.599 219.827 62.5998C219.343 62.6009 218.781 62.6685 218.14 62.8027C217.5 62.933 217.149 63.0607 217.086 63.1858C217.028 63.3109 216.866 64.2625 216.6 66.0404C216.335 67.8144 216.202 68.8401 216.203 69.1174C216.203 69.2659 216.211 69.4084 216.227 69.5451C216.239 69.6857 216.245 69.8185 216.246 69.9435C216.247 70.4787 215.988 70.7468 215.468 70.7479C215.323 70.7482 215.204 70.645 215.11 70.4382C215.016 70.2313 214.968 70.042 214.968 69.8701C214.968 69.7959 215.032 69.4969 215.16 68.9732C215.314 68.2619 215.468 67.2889 215.622 66.0542C215.776 64.8156 215.852 64.1553 215.852 64.0733C215.852 63.9092 215.828 63.7882 215.781 63.7101C215.738 63.6321 215.636 63.5933 215.476 63.5936C215.414 63.5937 215.351 63.5958 215.289 63.5999C215.23 63.6039 215.169 63.5669 215.107 63.4889C215.048 63.4109 215.018 63.3172 215.018 63.2079C215.017 62.8993 215.528 62.57 216.551 62.2202C217.574 61.8664 218.794 61.688 220.212 61.6849C220.732 61.6838 221.193 61.8586 221.596 62.2093C222.003 62.56 222.207 62.9209 222.208 63.292C222.208 63.5576 222.031 63.9349 221.677 64.424C221.327 64.9091 220.876 65.3417 220.326 65.7218Z" fill="#495E4C"/>
<path d="M225.306 71.0079C224.721 71.0092 224.269 70.8422 223.952 70.507C223.639 70.1717 223.481 69.7013 223.48 69.0959C223.478 68.0763 223.88 67.0013 224.686 65.8706C225.492 64.736 226.243 64.168 226.938 64.1665C227.255 64.1658 227.526 64.3371 227.754 64.6804C227.985 65.0197 228.101 65.3808 228.102 65.7636C228.102 65.9941 228.052 66.1934 227.951 66.3616C227.853 66.5259 227.754 66.6081 227.652 66.6083C227.426 66.6088 227.265 66.3807 227.171 65.9238C227.064 65.4319 226.911 65.1861 226.712 65.1865C226.306 65.1874 225.826 65.6709 225.274 66.6369C224.721 67.603 224.445 68.418 224.447 69.0821C224.448 69.7461 224.826 70.0773 225.58 70.0757C226.154 70.0745 226.829 69.8035 227.605 69.2627C227.878 69.0708 228.079 68.9746 228.208 68.9743C228.341 68.9741 228.408 69.0501 228.408 69.2024C228.409 69.4993 228.06 69.8751 227.362 70.3297C226.663 70.7804 225.978 71.0065 225.306 71.0079Z" fill="#495E4C"/>
</g>
<defs>
<clipPath id="clip0_206_216">
<rect width="288.709" height="274.126" fill="white"/>
</clipPath>
</defs>
</svg>
