<svg width="223" height="253" viewBox="0 0 223 253" fill="none" xmlns="http://www.w3.org/2000/svg">
<g opacity="0.5" clip-path="url(#clip0_206_319)">
<path d="M170.411 20.5115L208.407 18.9335C210.044 18.8638 211.679 19.1211 213.215 19.6901C214.751 20.2591 216.159 21.1286 217.354 22.2475C218.55 23.3665 219.511 24.7125 220.18 26.2068C220.848 27.701 221.212 29.3136 221.249 30.95L222.592 89.5805C222.66 92.6743 221.561 95.6806 219.512 98.0018C217.464 100.323 214.616 101.79 211.535 102.11C210.501 102.215 209.547 102.711 208.866 103.495C208.185 104.279 207.829 105.294 207.87 106.331L212.609 230.204C212.765 234.259 211.309 238.211 208.558 241.198C205.807 244.184 201.985 245.961 197.927 246.142L52.8029 252.532C52.2624 252.557 51.7223 252.474 51.2141 252.288C50.7059 252.102 50.2396 251.818 49.8422 251.451C49.4448 251.084 49.1242 250.642 48.899 250.151C48.6738 249.659 48.5484 249.128 48.5302 248.587L42.1092 33.5931C42.0779 32.5382 42.4555 31.5119 43.1633 30.7284C43.8711 29.9448 44.8544 29.4646 45.9081 29.3878L170.411 20.5115Z" fill="#5CCD6A"/>
<g opacity="0.3">
<path d="M48.4117 244.5L48.5302 248.572L204.806 234.212L201.821 19.186C201.821 19.186 163.911 24.9299 163.192 24.9299C162.473 24.9299 48.4117 244.5 48.4117 244.5Z" fill="black"/>
</g>
<path d="M150.626 8.96853L195.976 6.20703L200.659 229.076L41.0349 245.25L17.5307 23.5492L150.626 8.96853Z" fill="#EBEBEB"/>
<path d="M150.626 8.96847L148.257 9.25251L141.354 10.0415L114.849 12.9924L17.5467 23.6991L17.681 23.5334C23.9993 82.9292 32.1973 160.093 41.2404 245.242L41.0193 245.061L76.7968 241.439L200.667 228.886L200.494 229.083C198.456 131.634 196.813 51.6849 195.881 6.20697L195.984 6.30165L162.228 8.28993L153.541 8.79489C151.598 8.90535 150.611 8.9448 150.611 8.9448C150.611 8.9448 151.598 8.8659 153.541 8.73966L162.228 8.18736L195.976 6.08862H196.079V6.19119C197.05 51.6928 198.772 131.642 200.818 229.06V229.241H200.636L76.8363 241.834L41.0588 245.455H40.8534V245.25C31.8419 160.109 23.6755 82.945 17.3967 23.5413V23.3914H17.5467L114.849 12.803L141.362 9.93894L148.273 9.20517C149.829 9.07893 150.626 8.96847 150.626 8.96847Z" fill="#495E4C"/>
<path d="M9.60144 16.1482L31.2101 240.445L198.377 224.72L174.273 0.581299L9.60144 16.1482Z" fill="white"/>
<path d="M9.60144 16.1799L174.257 0.399902H174.423V0.565592C181.199 63.4882 189.547 141.007 198.567 224.696V224.902H198.361L197.177 225.02L31.2259 240.634H31.0442V240.453C18.3365 107.656 9.7594 17.7579 9.60144 16.1799C9.7594 17.8131 18.4866 107.704 31.3917 240.461L31.1943 240.295L197.177 224.657L198.361 224.547L198.172 224.767C189.184 141.023 180.86 63.5198 174.107 0.597152L174.288 0.747062L9.60144 16.1799Z" fill="#495E4C"/>
<path d="M141.261 196.508C141.272 191.639 142.728 186.882 145.445 182.84C148.162 178.798 152.018 175.651 156.526 173.798C161.033 171.945 165.989 171.47 170.767 172.431C175.545 173.392 179.93 175.747 183.368 179.198C186.807 182.649 189.143 187.042 190.082 191.82C191.021 196.597 190.521 201.546 188.645 206.04C186.768 210.534 183.6 214.371 179.541 217.066C175.481 219.76 170.713 221.192 165.839 221.18C159.307 221.157 153.051 218.546 148.443 213.921C143.836 209.296 141.253 203.033 141.261 196.508V196.508ZM190.086 196.618C190.098 191.838 188.692 187.162 186.043 183.18C183.395 179.199 179.625 176.092 175.209 174.251C170.793 172.411 165.93 171.92 161.234 172.841C156.539 173.762 152.223 176.053 148.831 179.425C145.439 182.796 143.124 187.097 142.18 191.783C141.235 196.469 141.702 201.33 143.523 205.751C145.344 210.171 148.436 213.953 152.408 216.618C156.38 219.283 161.054 220.711 165.839 220.722C172.252 220.731 178.406 218.197 182.952 213.679C187.497 209.16 190.063 203.024 190.086 196.618V196.618Z" fill="#E0E0E0"/>
<path d="M144.096 196.508C144.107 192.262 145.378 188.115 147.748 184.59C150.118 181.066 153.481 178.323 157.412 176.708C161.342 175.093 165.664 174.679 169.83 175.517C173.997 176.355 177.821 178.409 180.819 181.419C183.817 184.428 185.854 188.258 186.674 192.424C187.493 196.59 187.057 200.905 185.422 204.824C183.787 208.743 181.025 212.089 177.486 214.44C173.947 216.791 169.789 218.041 165.539 218.032C159.84 218.013 154.382 215.736 150.361 211.7C146.341 207.665 144.088 202.201 144.096 196.508V196.508ZM183.91 196.602C183.919 192.982 182.853 189.44 180.848 186.424C178.842 183.408 175.986 181.055 172.641 179.661C169.296 178.267 165.612 177.896 162.056 178.593C158.499 179.291 155.23 181.027 152.661 183.581C150.092 186.135 148.339 189.393 147.624 192.942C146.909 196.492 147.263 200.173 148.643 203.522C150.022 206.87 152.364 209.734 155.373 211.752C158.382 213.771 161.923 214.852 165.547 214.86C170.399 214.858 175.052 212.935 178.487 209.513C181.923 206.091 183.861 201.449 183.878 196.602H183.91Z" fill="#E0E0E0"/>
<path d="M149.357 196.847C149.357 194.379 149.942 191.945 151.062 189.746L153.89 191.174C152.994 192.94 152.526 194.891 152.524 196.871C152.518 199.132 153.116 201.355 154.256 203.309C155.396 205.263 157.038 206.878 159.011 207.987C160.984 209.097 163.217 209.66 165.481 209.62C167.745 209.58 169.957 208.937 171.889 207.759L173.54 210.457C171.126 211.93 168.362 212.732 165.534 212.782C162.706 212.831 159.916 212.126 157.451 210.739C154.987 209.352 152.938 207.334 151.515 204.892C150.092 202.45 149.347 199.673 149.357 196.847V196.847Z" fill="#E0E0E0"/>
<path d="M157.918 182.771C161.017 181.165 164.559 180.622 167.997 181.225C171.435 181.829 174.579 183.546 176.944 186.111C179.309 188.676 180.764 191.948 181.084 195.421C181.403 198.894 180.57 202.375 178.713 205.329L176.028 203.632C177.514 201.268 178.181 198.481 177.925 195.701C177.668 192.921 176.504 190.302 174.61 188.249C172.717 186.196 170.199 184.822 167.447 184.34C164.694 183.857 161.859 184.293 159.379 185.58L157.918 182.771Z" fill="#E0E0E0"/>
<path d="M170.308 58.2887C170.308 58.3992 138.78 61.4447 99.8586 65.1372C60.9378 68.8297 29.3699 71.6938 29.362 71.5833C29.3541 71.4729 60.8904 68.4273 99.8192 64.7269C138.748 61.0265 170.3 58.1704 170.308 58.2887Z" fill="#495E4C"/>
<path d="M93.8326 56.5214C93.8326 56.6319 79.2846 58.0994 61.3169 59.7958C43.3492 61.4921 28.7775 62.7703 28.7617 62.6598C28.7459 62.5494 43.3097 61.0818 61.2774 59.3855C79.2451 57.6891 93.8168 56.4189 93.8326 56.5214Z" fill="#495E4C"/>
<path d="M170.924 67.4648C170.924 67.5752 139.388 70.6208 100.475 74.3133C61.5617 78.0058 29.9859 80.8699 29.978 80.7594C29.9701 80.649 61.5065 77.6034 100.435 73.9109C139.364 70.2184 170.916 67.3149 170.924 67.4648Z" fill="#495E4C"/>
<path d="M171.54 76.5622C171.54 76.6805 140.004 79.7182 101.091 83.4186C62.1779 87.119 30.6021 89.9752 30.5942 89.8568C30.5863 89.7385 62.1226 86.7008 101.051 83.0083C139.98 79.3158 171.532 76.4517 171.54 76.5622Z" fill="#495E4C"/>
<path d="M172.156 85.7064C172.156 85.8168 140.62 88.8624 101.707 92.5549C62.7938 96.2474 31.218 99.1115 31.2101 99.0247C31.2022 98.9379 62.7385 95.8687 101.667 92.1683C140.596 88.4679 172.148 85.6117 172.156 85.7064Z" fill="#495E4C"/>
<path d="M172.772 94.843C172.772 94.9534 141.236 97.999 102.315 101.691C63.394 105.384 31.834 108.248 31.8182 108.138C31.8024 108.027 63.3466 104.982 102.275 101.281C141.204 97.5808 172.756 94.7325 172.772 94.843Z" fill="#495E4C"/>
<path d="M173.38 103.98C173.38 104.098 141.852 107.136 102.931 110.836C64.0101 114.536 32.4422 117.393 32.4422 117.274C32.4422 117.156 63.9706 114.118 102.899 110.426C141.828 106.733 173.372 103.869 173.38 103.98Z" fill="#495E4C"/>
<path d="M173.996 113.124C173.996 113.235 142.879 116.28 104.495 119.886C66.1109 123.492 34.93 126.356 34.9221 126.245C34.9142 126.135 66.0399 123.089 104.463 119.476C142.886 115.862 173.988 113.006 173.996 113.124Z" fill="#495E4C"/>
<path d="M119.69 130.703C119.69 130.814 100.901 132.597 77.7129 134.648C54.5247 136.699 35.704 138.333 35.6961 138.222C35.6882 138.112 54.4773 136.329 77.6735 134.238C100.87 132.147 119.675 130.585 119.69 130.703Z" fill="#495E4C"/>
<path d="M96.8653 206.242C96.8653 206.352 85.4371 207.417 71.3156 208.609C57.1942 209.8 45.7501 210.692 45.7343 210.573C45.7185 210.455 57.1626 209.398 71.284 208.206C85.4055 207.015 96.8575 206.123 96.8653 206.242Z" fill="#495E4C"/>
<path d="M74.8934 214.96C74.8934 215.079 68.4882 215.749 60.5666 216.388C52.645 217.027 46.2082 217.509 46.1924 217.398C46.1766 217.288 52.6055 216.649 60.5271 215.978C68.4487 215.307 74.8855 214.85 74.8934 214.96Z" fill="#495E4C"/>
<path d="M73.1322 150.641C73.1322 150.76 65.5976 151.588 56.2702 152.511C46.9428 153.434 39.3766 154.089 39.3687 153.971C39.3608 153.853 46.9033 153.016 56.2307 152.101C65.5581 151.186 73.1243 150.531 73.1322 150.641Z" fill="#5CCD6A"/>
<g opacity="0.3">
<path d="M27.7666 202.494L43.1122 199.535L51.6894 186.612L27.2375 194.636L27.7666 202.494Z" fill="black"/>
</g>
<path d="M0.850555 185.98L41.8249 182.106L51.6893 186.612L43.8151 195.456L2.1932 199.938L0.850555 185.98Z" fill="#5CCD6A"/>
<path d="M125.093 149.631L125.235 149.679C125.373 149.726 125.506 149.79 125.63 149.868C126.124 150.169 126.568 150.545 126.949 150.981C128.383 152.679 129.508 154.615 130.274 156.701C131.594 159.966 132.181 163.481 131.995 166.997C131.914 168.065 131.726 169.123 131.435 170.153C131.101 171.238 130.678 172.294 130.171 173.309C129.071 175.52 127.59 177.521 125.795 179.219C123.835 181.101 121.54 182.6 119.027 183.637C116.295 184.777 113.329 185.245 110.379 185.002C107.128 184.657 104.022 183.479 101.363 181.58C98.7027 179.682 96.5795 177.129 95.199 174.169C94.4662 172.584 94.0018 170.888 93.8248 169.151C93.6055 167.37 93.7945 165.562 94.3776 163.865C94.9218 162.088 96.0309 160.537 97.5368 159.446C98.3258 158.915 99.2303 158.579 100.175 158.466C101.12 158.354 102.079 158.468 102.971 158.8C104.791 159.454 106.325 160.724 107.306 162.389C108.273 164.064 108.859 165.931 109.02 167.857C109.416 171.764 108.838 175.708 107.338 179.337C105.858 182.98 103.455 186.175 100.364 188.608C97.3306 190.94 93.7127 192.392 89.9074 192.805C86.2365 193.253 82.5139 192.648 79.1741 191.062C75.9958 189.484 73.3451 187.016 71.5448 183.961C69.7952 181.082 68.8996 177.766 68.9622 174.398C68.9729 172.776 69.2863 171.171 69.8862 169.664C70.4492 168.195 71.3758 166.892 72.5794 165.877C73.1689 165.383 73.854 165.016 74.5919 164.799C75.3298 164.582 76.1047 164.519 76.868 164.614C78.3315 164.857 79.6656 165.598 80.6432 166.713C81.5866 167.764 82.2399 169.042 82.5387 170.421C82.7914 171.724 82.7914 173.064 82.5387 174.366C82.0195 176.779 81.0668 179.078 79.727 181.152C78.5926 183.03 77.2694 184.788 75.7781 186.399C74.4823 187.797 73.0773 189.089 71.5764 190.265C70.3042 191.235 68.9692 192.121 67.58 192.916C65.661 194.024 63.6273 194.921 61.5144 195.591C60.783 195.835 60.0396 196.044 59.2872 196.214C59.2872 196.214 59.4768 196.143 59.848 196.032C60.2192 195.922 60.7799 195.78 61.4907 195.512C63.5826 194.81 65.5967 193.895 67.5011 192.782C68.8732 191.975 70.1922 191.082 71.45 190.107C72.9327 188.93 74.3192 187.637 75.5964 186.241C77.0778 184.657 78.3955 182.929 79.5296 181.081C80.8385 179.027 81.7693 176.756 82.278 174.374C82.5268 173.098 82.5268 171.785 82.278 170.508C81.9898 169.185 81.3579 167.96 80.4457 166.958C79.5145 165.903 78.2484 165.201 76.8601 164.969C76.1429 164.883 75.4156 164.946 74.7239 165.154C74.0321 165.361 73.3908 165.71 72.84 166.177C71.6829 167.157 70.7919 168.414 70.2495 169.83C69.6719 171.29 69.372 172.844 69.365 174.414C69.3172 177.718 70.2071 180.968 71.9318 183.787C73.7059 186.767 76.3028 189.172 79.4111 190.715C82.6861 192.255 86.3292 192.843 89.9232 192.411C93.6591 192 97.2106 190.573 100.19 188.284C103.219 185.886 105.569 182.74 107.006 179.156C108.476 175.587 109.045 171.713 108.665 167.873C108.501 166.007 107.935 164.198 107.006 162.571C106.072 160.991 104.618 159.783 102.892 159.155C102.048 158.851 101.146 158.743 100.254 158.839C99.3782 158.953 98.5405 159.266 97.8053 159.754C96.3703 160.794 95.3138 162.273 94.7962 163.967C94.2265 165.611 94.0427 167.363 94.2591 169.088C94.409 170.78 94.8443 172.433 95.5465 173.98C96.8993 176.881 98.9777 179.386 101.581 181.252C104.185 183.117 107.226 184.281 110.41 184.631C113.308 184.873 116.221 184.421 118.908 183.314C121.389 182.296 123.658 180.824 125.598 178.974C128.193 176.523 130.111 173.444 131.166 170.035C131.461 169.029 131.649 167.995 131.727 166.95C131.94 163.453 131.381 159.951 130.092 156.693C129.348 154.615 128.253 152.68 126.854 150.973C126.485 150.536 126.057 150.154 125.582 149.836C125.282 149.694 125.085 149.655 125.093 149.631Z" fill="#495E4C"/>
<path d="M137.713 39.2582C137.713 39.2582 137.713 39.1241 137.658 38.8716C137.603 38.6191 137.579 38.2325 137.524 37.7512C137.413 36.7571 137.255 35.2974 137.042 33.4117L135.273 17.1426L135.407 17.253L50.1098 26.2318L50.2914 26.0109C51.0812 33.6011 51.871 41.0019 52.5976 48.1423L52.3765 47.9609L113.246 41.7041L131.174 39.8894L136.007 39.4081L137.263 39.2898H137.705L137.295 39.345L136.063 39.487L131.277 40.0157L113.404 41.9408L52.4317 48.3633H52.2264V48.166C51.4366 41.065 50.7021 33.6248 49.9044 26.0346V25.8295H50.1098L135.383 16.969H135.51V17.0873C136.213 24.1015 136.773 29.6482 137.153 33.4512C137.334 35.329 137.476 36.7729 137.571 37.767C137.619 38.2483 137.65 38.6112 137.674 38.8716C137.698 39.132 137.713 39.2582 137.713 39.2582Z" fill="#455A64"/>
<path d="M56.0678 40.9953L55.2017 31.8543L59.7983 31.4188C60.9039 31.314 61.7318 31.4771 62.2821 31.9081C62.8316 32.3304 63.1558 33.0638 63.2548 34.1085C63.3538 35.1532 63.1735 35.9388 62.714 36.4655C62.2536 36.9834 61.4706 37.2948 60.365 37.3996L57.3485 37.6854L57.6479 40.8455L56.0678 40.9953ZM57.2074 36.1967L60.1325 35.9196C60.7158 35.8643 61.1312 35.7063 61.3788 35.4457C61.6256 35.1764 61.7243 34.7806 61.6748 34.2582C61.6244 33.7272 61.4532 33.3569 61.1611 33.1474C60.8776 32.9371 60.4399 32.86 59.8479 32.9161L56.9228 33.1933L57.2074 36.1967Z" fill="#78C081"/>
<path d="M67.3653 40.0434C66.4773 40.1275 65.8087 40.024 65.3595 39.7327C64.9094 39.4328 64.6502 38.9216 64.5817 38.199C64.5108 37.4503 64.6868 36.8978 65.1098 36.5415C65.5407 36.1757 66.2697 35.9441 67.297 35.8468L69.4778 35.6401C69.4092 35.102 69.2197 34.7247 68.9094 34.5082C68.6069 34.2821 68.1509 34.198 67.5415 34.2557C67.0453 34.3027 66.6701 34.4217 66.4159 34.6127C66.1609 34.795 66.0067 35.0687 65.9535 35.4339L64.4779 35.5737C64.523 34.7525 64.7808 34.1352 65.251 33.7217C65.7205 33.2995 66.4602 33.0406 67.47 32.9449C68.6017 32.8377 69.4419 32.9908 69.9906 33.4044C70.5479 33.8171 70.8749 34.5328 70.9714 35.5513L71.35 39.5472L69.8613 39.6883L69.7883 38.9178C69.3395 39.5576 68.5318 39.9328 67.3653 40.0434ZM66.0524 38.0069C66.1052 38.5641 66.6191 38.7965 67.5941 38.7041C68.2644 38.6406 68.7578 38.4709 69.0742 38.1949C69.3907 37.919 69.5676 37.5157 69.6052 36.9852L69.5829 36.7501L67.7939 36.9196C66.5751 37.0351 65.9946 37.3975 66.0524 38.0069Z" fill="#78C081"/>
<path d="M72.5365 37.3003L74.0121 37.1605C74.2535 37.7613 74.8965 38.0122 75.9412 37.9132C76.9859 37.8142 77.4864 37.534 77.4426 37.0726C77.4039 36.6634 76.7581 36.4304 75.5054 36.3734C74.4214 36.3356 73.6426 36.181 73.1689 35.9096C72.7031 35.6288 72.4397 35.1662 72.3787 34.522C72.3135 33.8343 72.4959 33.3031 72.926 32.9286C73.3647 32.5532 74.0847 32.3181 75.0858 32.2233C76.1044 32.1268 76.8874 32.2326 77.4349 32.5409C77.9823 32.8492 78.3493 33.3853 78.5359 34.1494L77.0603 34.2892C76.9332 33.9675 76.7194 33.7506 76.4189 33.6385C76.1263 33.5169 75.7145 33.4813 75.1835 33.5316C74.2258 33.6223 73.7677 33.8853 73.8089 34.3206C73.8295 34.5383 73.9853 34.6992 74.2763 34.8034C74.5751 34.898 75.029 34.9604 75.6379 34.9906C76.794 35.0479 77.6042 35.2083 78.0683 35.4717C78.5404 35.7257 78.8065 36.1704 78.8667 36.8059C78.9335 37.5111 78.7401 38.0652 78.2864 38.4683C77.8327 38.8714 77.0791 39.1229 76.0258 39.2227C74.9985 39.3201 74.2068 39.215 73.6506 38.9076C73.1032 38.5993 72.7318 38.0636 72.5365 37.3003Z" fill="#78C081"/>
<path d="M83.5397 38.5107C82.3557 38.6229 81.4675 38.426 80.8749 37.92C80.2824 37.414 79.9279 36.5472 79.8116 35.3197C79.6953 34.0922 79.8806 33.1743 80.3676 32.566C80.8546 31.9577 81.69 31.5975 82.874 31.4853C83.9274 31.3855 84.7398 31.5237 85.3113 31.9C85.8827 32.2762 86.2735 32.9243 86.4837 33.8443L85.0081 33.9841C84.8694 33.5405 84.6426 33.2326 84.3276 33.0604C84.0127 32.8882 83.581 32.8281 83.0325 32.8801C82.3535 32.9444 81.8777 33.1608 81.6051 33.5292C81.3318 33.8889 81.2302 34.4387 81.3003 35.1787C81.3704 35.9187 81.5739 36.444 81.9108 36.7546C82.2468 37.0566 82.7544 37.1754 83.4334 37.111C83.9731 37.0599 84.3815 36.9202 84.6586 36.6919C84.9435 36.4541 85.1127 36.1087 85.1664 35.6556L86.642 35.5158C86.6163 36.4493 86.3542 37.1593 85.8557 37.6457C85.3651 38.1226 84.5931 38.4109 83.5397 38.5107Z" fill="#78C081"/>
<path d="M90.6129 37.8405C89.7249 37.9247 89.0563 37.8211 88.6071 37.5299C88.157 37.23 87.8978 36.7187 87.8293 35.9962C87.7584 35.2475 87.9344 34.695 88.3574 34.3387C88.7883 33.9729 89.5174 33.7413 90.5446 33.644L92.7254 33.4373C92.6568 32.8992 92.4674 32.5219 92.157 32.3054C91.8545 32.0793 91.3985 31.9951 90.7891 32.0529C90.2929 32.0999 89.9177 32.2189 89.6635 32.4099C89.4085 32.5921 89.2543 32.8659 89.2011 33.2311L87.7255 33.3709C87.7707 32.5497 88.0284 31.9324 88.4987 31.5189C88.9681 31.0967 89.7078 30.8378 90.7176 30.7421C91.8494 30.6348 92.6895 30.788 93.2382 31.2016C93.7955 31.6143 94.1225 32.3299 94.219 33.3485L94.5976 37.3444L93.109 37.4854L93.036 36.715C92.5871 37.3548 91.7794 37.73 90.6129 37.8405ZM89.3 35.8041C89.3528 36.3613 89.8667 36.5937 90.8417 36.5013C91.512 36.4378 92.0054 36.268 92.3218 35.9921C92.6383 35.7162 92.8153 35.3129 92.8528 34.7823L92.8306 34.5473L91.0415 34.7168C89.8228 34.8323 89.2422 35.1947 89.3 35.8041Z" fill="#78C081"/>
<path d="M96.3241 37.1808L95.3961 27.3869L96.8717 27.2471L97.7997 37.041L96.3241 37.1808Z" fill="#78C081"/>
<path d="M101.578 27.46L103.249 27.3016L107.288 34.4686L109.909 26.6706L111.581 26.5122L108.346 36.0416L106.544 36.2124L101.578 27.46Z" fill="#78C081"/>
<path d="M112.445 32.2276C112.33 31.0088 112.52 30.0948 113.015 29.4857C113.51 28.8679 114.367 28.5012 115.586 28.3857C116.805 28.2702 117.71 28.4655 118.303 28.9715C118.895 29.4775 119.25 30.3443 119.366 31.5718C119.375 31.6675 119.381 31.8207 119.383 32.0313L114.016 32.5398C114.126 33.1443 114.351 33.571 114.691 33.8198C115.039 34.0679 115.523 34.1626 116.141 34.1041C117.055 34.0175 117.613 33.6527 117.816 33.0099L119.357 32.8639C119.261 33.7074 118.946 34.3214 118.411 34.7058C117.877 35.0903 117.157 35.3254 116.251 35.4112C115.033 35.5266 114.123 35.3318 113.521 34.8266C112.92 34.3214 112.561 33.4551 112.445 32.2276ZM113.924 31.4286L117.802 31.0611C117.671 30.5114 117.438 30.1339 117.102 29.9285C116.766 29.7145 116.306 29.6351 115.723 29.6903C115.139 29.7456 114.698 29.9104 114.399 30.1846C114.109 30.4581 113.95 30.8728 113.924 31.4286Z" fill="#78C081"/>
<path d="M120.459 28.0426L121.934 27.9027L122.011 28.7124C122.431 28.0489 123.185 27.6656 124.274 27.5625C125.24 27.4709 125.968 27.6479 126.458 28.0933C126.956 28.5292 127.256 29.2782 127.356 30.3403L127.723 34.2056L126.247 34.3454L125.881 30.4801C125.826 29.9056 125.643 29.5013 125.331 29.2674C125.028 29.0326 124.576 28.9437 123.975 29.0006C123.296 29.0649 122.82 29.2769 122.546 29.6366C122.282 29.9955 122.185 30.5493 122.256 31.2979L122.578 34.6931L121.102 34.833L120.459 28.0426Z" fill="#78C081"/>
<path d="M130.783 27.0643L132.755 26.8774L132.886 28.2616L130.914 28.4485L131.192 31.3736C131.228 31.7566 131.346 32.0265 131.545 32.1833C131.744 32.3401 132.053 32.3987 132.471 32.3591L133.359 32.275L133.49 33.6592L132.563 33.747C131.649 33.8336 130.965 33.7139 130.513 33.3879C130.068 33.0523 129.808 32.484 129.732 31.6831L129.439 28.5883L128.368 28.6897L128.237 27.3055L129.308 27.2041L129.167 25.7154L130.642 25.5756L130.783 27.0643Z" fill="#78C081"/>
</g>
<defs>
<clipPath id="clip0_206_319">
<rect width="221.742" height="252.132" fill="white" transform="translate(0.850555 0.399902)"/>
</clipPath>
</defs>
</svg>
