<svg width="280" height="247" viewBox="0 0 280 247" fill="none" xmlns="http://www.w3.org/2000/svg">
<g opacity="0.5" clip-path="url(#clip0_206_77)">
<path d="M12.5265 42.2033C13.4712 41.603 14.493 41.1336 15.5641 40.8078L16.1291 37.7742L21.2565 37.5801L22.0584 40.5712C23.1497 40.8185 24.2036 41.2081 25.1932 41.73L27.7508 39.9827L31.5113 43.4652L29.9621 46.1409C30.5578 47.0864 31.0256 48.1064 31.3533 49.1745L34.3909 49.7448L34.5853 54.8655L31.5903 55.6603C31.3463 56.7532 30.956 57.8082 30.4299 58.797L32.1795 61.3452L28.7107 65.1251L26.0072 63.5416C25.0626 64.1418 24.0407 64.6112 22.9697 64.937L22.3986 67.9706L17.2773 68.1647L16.4754 65.1736C15.3835 64.9283 14.3293 64.5386 13.3406 64.0148L10.8194 65.7743L7.05892 62.2917L8.60807 59.6161C8.01058 58.6708 7.54075 57.6507 7.2108 56.5825L4.13678 56.0243L3.95453 50.8915L6.94956 50.0967C7.19349 49.0038 7.58378 47.9487 8.10991 46.9599L6.3542 44.4117L9.84132 40.6501L12.5265 42.2033ZM15.4001 48.9682C14.6612 49.7649 14.1755 50.7626 14.0044 51.835C13.8333 52.9075 13.9845 54.0065 14.4388 54.9931C14.8931 55.9797 15.6301 56.8097 16.5567 57.378C17.4833 57.9463 18.5578 58.2274 19.6444 58.1858C20.731 58.1442 21.7808 57.7818 22.6611 57.1444C23.5415 56.507 24.2128 55.6231 24.5902 54.6047C24.9676 53.5862 25.0341 52.4789 24.7813 51.4227C24.5285 50.3665 23.9679 49.4089 23.1701 48.6709C22.0996 47.6827 20.6802 47.159 19.2235 47.2148C17.7668 47.2705 16.3918 47.9011 15.4001 48.9682V48.9682Z" fill="#B4FFCD"/>
<path d="M247.543 150.533C248.489 149.937 249.51 149.47 250.58 149.143L251.145 146.11L256.273 145.916L257.074 148.907C258.167 149.151 259.221 149.541 260.209 150.066L262.767 148.312L266.527 151.795L264.972 154.476C265.573 155.42 266.043 156.44 266.369 157.51L269.407 158.08L269.601 163.195L266.606 163.996C266.36 165.086 265.969 166.139 265.446 167.127L267.196 169.681L263.709 173.436L261.048 171.907C260.101 172.504 259.08 172.973 258.01 173.303L257.439 176.336L252.312 176.531L251.516 173.54C250.423 173.297 249.368 172.907 248.381 172.381L245.823 174.134L242.057 170.652L243.612 167.97C243.011 167.026 242.541 166.006 242.215 164.936L239.177 164.366L238.977 159.251L241.972 158.45C242.218 157.36 242.609 156.308 243.132 155.32L241.382 152.765L244.87 149.01L247.549 150.557L247.543 150.533ZM250.416 157.298C249.675 158.095 249.188 159.093 249.016 160.167C248.843 161.24 248.993 162.341 249.447 163.329C249.901 164.317 250.638 165.149 251.566 165.719C252.493 166.289 253.568 166.571 254.656 166.53C255.744 166.49 256.796 166.128 257.678 165.49C258.56 164.852 259.232 163.968 259.611 162.948C259.989 161.929 260.057 160.82 259.804 159.763C259.552 158.705 258.991 157.746 258.192 157.006C257.122 156.016 255.702 155.49 254.244 155.544C252.786 155.599 251.409 156.23 250.416 157.298V157.298Z" fill="#B4FFCD"/>
<path d="M19.3246 14.8221C19.7676 14.5369 20.2481 14.3144 20.7523 14.1608L21.0135 12.7411L23.3949 12.6561L23.7716 14.0455C24.2773 14.158 24.7656 14.3376 25.2235 14.5794L26.4386 13.7664L28.1882 15.3864L27.441 16.6483C27.7199 17.0884 27.9385 17.5639 28.091 18.062L29.5065 18.3229L29.5976 20.7012L28.2064 21.0774C28.0907 21.5843 27.9089 22.0738 27.6657 22.5335L28.4798 23.7469L26.8578 25.464L25.6427 24.742C25.1897 25.0257 24.6988 25.2442 24.1847 25.3911L23.9174 26.8048L21.5542 26.9019L21.1836 25.5125C20.6757 25.3979 20.1854 25.2163 19.7256 24.9725L18.5105 25.7855L16.767 24.1716L17.5021 22.9157C17.2245 22.477 17.0059 22.0038 16.852 21.5081L15.4365 21.2412L15.3454 18.8629L16.7427 18.4928C16.8553 17.9858 17.0351 17.4961 17.2773 17.0366L16.4693 15.8535L18.1096 14.1062L19.3246 14.8221ZM20.6611 17.971C20.3218 18.3432 20.1002 18.8072 20.0241 19.3047C19.9479 19.8023 20.0207 20.3112 20.2332 20.7676C20.4457 21.224 20.7885 21.6075 21.2186 21.87C21.6486 22.1325 22.1467 22.2623 22.6503 22.243C23.1539 22.2237 23.6406 22.0563 24.0493 21.7617C24.4579 21.4671 24.7703 21.0585 24.9472 20.5872C25.1241 20.1158 25.1577 19.6028 25.0436 19.1126C24.9296 18.6223 24.673 18.1766 24.3062 17.8314C24.0593 17.6008 23.7691 17.4213 23.4523 17.3033C23.1355 17.1854 22.7984 17.1313 22.4606 17.1443C22.1228 17.1573 21.7908 17.237 21.4841 17.3789C21.1773 17.5208 20.9017 17.722 20.6733 17.971H20.6611Z" fill="#B4FFCD"/>
<path d="M34.9194 228.533L28.5831 231.117C28.5831 231.117 30.758 236.432 25.2661 238.786C24.2199 239.262 23.0511 239.402 21.9221 239.184C20.7931 238.967 19.7599 238.403 18.9662 237.573C18.2908 236.881 17.7889 236.039 17.5017 235.116C17.2145 234.194 17.1501 233.216 17.3137 232.264C17.6661 230.055 19.361 227.483 23.9417 226.488L18.1096 212.2L11.8461 214.76L15.2543 223.115C15.2543 223.115 7.39305 228.975 11.3601 238.647C15.151 247.899 24.3366 246.649 27.8966 245.199C30.6122 244.107 39.6094 239.642 34.9194 228.533Z" fill="#EBEBEB"/>
<path d="M10.5651 211.842L16.9245 209.243L14.4953 203.314L8.13596 205.912L10.5651 211.842Z" fill="#EBEBEB"/>
<path d="M256.358 69.4873L262.22 71.9142C262.22 71.9142 264.286 66.9998 269.437 69.0505C270.437 69.4292 271.294 70.1093 271.89 70.9964C272.485 71.8835 272.79 72.9337 272.76 74.0013C272.746 74.9004 272.518 75.7832 272.095 76.5773C271.673 77.3714 271.068 78.0543 270.33 78.5699C268.648 79.7834 265.841 80.3901 262.184 78.0178L256.637 91.22L262.439 93.6469L265.683 85.9112C265.683 85.9112 274.698 87.2217 278.441 78.2666C282.037 69.7058 275.184 64.5001 271.892 63.0986C269.413 62.0914 260.58 59.1064 256.358 69.4873Z" fill="#EBEBEB"/>
<path d="M261.377 96.436L255.495 93.9724L253.19 99.4613L259.072 101.925L261.377 96.436Z" fill="#EBEBEB"/>
<path d="M243.843 8.31197L236.699 28.449C236.416 29.2444 236.434 30.1157 236.751 30.8983C237.068 31.6809 237.661 32.3204 238.418 32.696V32.696C239.212 33.0935 240.129 33.1703 240.979 32.9105C241.828 32.6507 242.545 32.0741 242.98 31.3005L253.587 12.5287C253.776 12.1937 253.892 11.8224 253.926 11.4394C253.96 11.0564 253.913 10.6706 253.786 10.3074C253.66 9.94419 253.458 9.612 253.193 9.33283C252.928 9.05367 252.607 8.83391 252.251 8.68814L247.433 6.71024C247.093 6.57079 246.728 6.50178 246.361 6.5074C245.993 6.51301 245.63 6.59313 245.294 6.7429C244.959 6.89267 244.657 7.10897 244.407 7.37869C244.158 7.6484 243.966 7.96591 243.843 8.31197V8.31197Z" fill="#E0E0E0"/>
<path d="M238.904 45.9467C238.221 46.7178 237.324 47.2694 236.327 47.5316C235.33 47.7937 234.277 47.7548 233.303 47.4196C232.328 47.0843 231.475 46.468 230.85 45.6483C230.226 44.8287 229.86 43.8427 229.797 42.815C229.734 41.7873 229.978 40.7641 230.497 39.8747C231.017 38.9853 231.789 38.2697 232.715 37.8185C233.642 37.3672 234.682 37.2005 235.703 37.3395C236.725 37.4785 237.682 37.9169 238.454 38.5993C238.967 39.0518 239.386 39.601 239.687 40.2154C239.987 40.8298 240.163 41.4974 240.205 42.1799C240.247 42.8623 240.153 43.5463 239.93 44.1927C239.707 44.839 239.358 45.4351 238.904 45.9467V45.9467Z" fill="#E0E0E0"/>
<path d="M244.961 104.98C249.43 97.4002 251.05 88.4782 249.529 79.8136C249.475 79.4678 249.402 79.128 249.317 78.7883C248.709 75.8093 248.205 73.3885 246.759 70.8645C246.613 70.543 246.467 70.2578 246.309 69.9181C246.151 69.5783 245.993 69.3113 245.829 68.9898C242.775 63.48 238.366 58.838 233.017 55.5016C227.669 52.1653 221.557 50.2446 215.259 49.9206C213.121 29.6987 198.972 11.2059 180.024 3.81004C161.075 -3.58586 138.105 0.527692 122.851 13.9908C106.703 1.95955 84.4317 -1.38954 65.4955 5.39357C46.5594 12.1767 31.4748 28.8918 26.6755 48.4281C25.2114 54.4043 24.6039 60.7323 21.5542 66.0715C19.2456 70.1061 15.716 73.2671 12.7027 76.7983C7.86886 82.4544 4.33184 89.0978 2.33943 96.2628C0.347017 103.428 -0.0525871 110.941 1.16861 118.277C2.38981 125.612 5.20227 132.593 9.40896 138.728C13.6157 144.864 19.1148 150.007 25.5212 153.797C15.3211 167.788 18.8993 189.818 33.0058 199.871C41.1039 205.641 51.9055 207.855 58.0778 215.646C60.7023 218.964 62.221 223.005 64.4992 226.567C72.245 238.701 89.4558 243.634 102.469 237.488L171.591 219.96C195.106 221.727 218.391 214.322 236.553 199.301C243.181 193.749 249.134 187.075 252.002 178.903C254.869 170.73 254.189 161.017 248.679 154.373C261.722 140.965 259.833 116.271 244.961 104.98Z" fill="#E9E9E9"/>
<path d="M41.8258 179.932C41.7153 178.772 41.7605 177.602 41.9601 176.454L39.4025 174.48L41.6281 169.621L44.7867 170.285C45.5315 169.384 46.3925 168.586 47.3471 167.911L46.9236 164.715L51.9431 162.855L53.7045 165.557C54.8659 165.447 56.0366 165.492 57.186 165.69L59.1612 163.129L64.0136 165.351L63.3137 168.51C64.2125 169.253 65.0078 170.113 65.6784 171.067L68.8777 170.642L70.7305 175.664L68.0238 177.427C68.1455 178.577 68.1159 179.739 67.9359 180.881L70.4934 182.855L68.2624 187.711L65.1039 187.047C64.3627 187.949 63.5022 188.746 62.5461 189.416L62.967 192.617L57.9474 194.477L56.1834 191.767C55.0232 191.881 53.8532 191.839 52.7046 191.642L50.7294 194.204L45.8797 191.976L46.5416 188.811C45.6422 188.069 44.8469 187.209 44.1769 186.254L40.983 186.682L39.1302 181.66L41.8342 179.889L41.8258 179.932ZM49.4742 180.444C49.868 181.507 50.5679 182.428 51.4856 183.093C52.4033 183.757 53.4974 184.134 54.6297 184.175C55.762 184.217 56.8816 183.922 57.8468 183.327C58.812 182.732 59.5796 181.864 60.0525 180.833C60.5253 179.802 60.6822 178.654 60.5033 177.534C60.3243 176.415 59.8176 175.374 59.0472 174.543C58.2768 173.712 57.2773 173.129 56.1751 172.867C55.073 172.606 53.9176 172.677 52.8551 173.072C52.1492 173.334 51.5017 173.732 50.9496 174.244C50.3975 174.757 49.9517 175.373 49.6376 176.058C49.3236 176.742 49.1475 177.482 49.1195 178.235C49.0914 178.988 49.212 179.738 49.4742 180.444V180.444Z" fill="white"/>
<path d="M177.278 51.7347C177.812 51.3995 178.388 51.1363 178.991 50.9521L179.307 49.2351L182.199 49.1259L182.648 50.8125C183.262 50.948 183.855 51.1664 184.41 51.4617L185.85 50.4788L187.97 52.4385L187.095 53.9432C187.433 54.4762 187.698 55.0515 187.885 55.6541L189.598 55.9757L189.708 58.8576L188.025 59.3066C187.883 59.921 187.663 60.5145 187.369 61.0721L188.353 62.5101L186.391 64.6275L184.884 63.7538C184.35 64.0891 183.774 64.3523 183.171 64.5365L182.849 66.2535L179.963 66.3627L179.513 64.676C178.898 64.5396 178.303 64.3213 177.746 64.0269L176.306 65.0097L174.186 63.05L175.06 61.5393C174.712 61.0101 174.436 60.4367 174.24 59.8344L172.521 59.5129L172.418 56.631L174.107 56.1759C174.243 55.5619 174.463 54.9697 174.763 54.4164L173.785 52.9907L175.747 50.8732L177.278 51.7347ZM178.894 55.5449C178.478 55.9942 178.205 56.5566 178.109 57.1609C178.013 57.7653 178.098 58.3844 178.355 58.9402C178.611 59.4959 179.027 59.9633 179.549 60.2832C180.071 60.603 180.677 60.7611 181.289 60.7374C181.901 60.7136 182.493 60.5091 182.989 60.1498C183.484 59.7904 183.863 59.2922 184.075 58.7183C184.287 58.1444 184.325 57.5205 184.182 56.9254C184.04 56.3303 183.724 55.7908 183.274 55.3751C182.975 55.0961 182.623 54.879 182.24 54.7364C181.856 54.5938 181.448 54.5286 181.039 54.5444C180.63 54.5602 180.229 54.6567 179.857 54.8284C179.486 55.0002 179.152 55.2437 178.876 55.5449H178.894Z" fill="#78C081"/>
<path d="M78.6762 211.537C78.5889 210.721 78.6123 209.897 78.7455 209.087L76.9557 207.719L78.5117 204.319L80.7296 204.76C81.2505 204.132 81.8519 203.575 82.5184 203.105L82.223 200.866L85.7225 199.565L86.9506 201.452C87.7626 201.374 88.5813 201.406 89.3847 201.546L90.7562 199.748L94.1491 201.307L93.7063 203.527C94.3352 204.045 94.8918 204.644 95.3611 205.31L97.5936 205.009L98.895 208.513L97.0052 209.75C97.074 210.569 97.0343 211.393 96.887 212.202L98.674 213.575L97.1208 216.97L94.9029 216.529C94.384 217.158 93.7843 217.715 93.1195 218.187L93.4205 220.402L89.9155 221.7L88.6874 219.812C87.8877 219.887 87.0817 219.853 86.2914 219.711L84.9199 221.509L81.527 219.95L81.9697 217.729C81.3408 217.212 80.7843 216.612 80.315 215.946L78.0961 216.247L76.7947 212.744L78.6899 211.51L78.6762 211.537ZM84.0157 211.895C84.2914 212.638 84.7812 213.282 85.423 213.746C86.0647 214.21 86.8297 214.473 87.6213 214.501C88.4128 214.53 89.1953 214.323 89.8699 213.907C90.5444 213.491 91.0808 212.884 91.411 212.163C91.7413 211.442 91.8507 210.64 91.7255 209.857C91.6002 209.075 91.2458 208.347 90.7072 207.767C90.1685 207.186 89.4698 206.778 88.6993 206.595C87.9288 206.412 87.1212 206.462 86.3785 206.738C85.383 207.11 84.5751 207.862 84.1322 208.829C83.6892 209.796 83.6473 210.898 84.0157 211.895V211.895Z" fill="#78C081"/>
<path d="M182.755 185.579C183.445 185.144 184.191 184.803 184.973 184.566L185.386 182.345L189.122 182.206L189.729 184.384C190.525 184.562 191.293 184.845 192.014 185.227L193.879 183.953L196.619 186.489L195.489 188.443C195.907 189.134 196.234 189.876 196.461 190.651L198.678 191.07L198.824 194.795L196.643 195.402C196.463 196.196 196.179 196.963 195.798 197.683L197.074 199.546L194.535 202.282L192.579 201.154C191.893 201.57 191.156 201.895 190.386 202.118L189.972 204.339L186.236 204.479L185.629 202.3C184.833 202.123 184.065 201.839 183.344 201.457L181.485 202.731L178.739 200.195L179.876 198.241C179.438 197.554 179.095 196.811 178.855 196.033L176.637 195.62L176.492 191.889L178.679 191.282C178.856 190.487 179.14 189.72 179.523 189.001L178.247 187.139L180.787 184.402L182.737 185.531L182.755 185.579ZM184.851 190.506C184.312 191.087 183.957 191.814 183.832 192.596C183.707 193.378 183.817 194.179 184.147 194.899C184.478 195.619 185.015 196.224 185.691 196.639C186.366 197.054 187.149 197.26 187.942 197.23C188.734 197.2 189.5 196.937 190.142 196.472C190.784 196.008 191.275 195.364 191.55 194.622C191.826 193.879 191.876 193.072 191.692 192.301C191.508 191.531 191.1 190.832 190.519 190.293C190.133 189.936 189.68 189.657 189.186 189.474C188.693 189.291 188.167 189.207 187.641 189.227C187.115 189.247 186.597 189.37 186.119 189.589C185.64 189.809 185.209 190.12 184.851 190.506V190.506Z" fill="white"/>
<path d="M54.0743 109.106C53.6416 108.015 52.9694 107.035 52.1073 106.238C51.2451 105.441 50.215 104.848 49.0927 104.501C47.1608 103.949 44.8826 104.167 43.376 102.839C42.6591 102.232 42.2339 101.31 41.6021 100.594C40.3894 99.3674 38.7777 98.6142 37.0579 98.4703C31.3837 97.7059 26.1773 101.583 24.1118 106.121C21.7911 107.656 19.4279 109.221 17.6782 111.381C15.9286 113.541 14.8472 116.423 15.4912 119.123C15.9711 121.107 17.3137 122.8 17.8058 124.778C18.2493 126.598 17.9516 128.491 18.0974 130.347C18.2432 132.204 19.033 134.242 20.7705 134.922C22.9089 135.753 25.5637 134.182 27.5442 135.353C28.8868 136.148 29.3182 137.889 30.4178 138.993C32.3193 140.916 35.5269 140.425 38.0906 139.539C41.055 138.518 43.894 137.164 46.5533 135.504C48.3322 134.477 49.9074 133.132 51.2008 131.536C51.8408 130.736 52.3145 129.816 52.594 128.831C52.8736 127.845 52.9535 126.814 52.8289 125.797C52.6223 124.583 52.027 123.406 51.9541 122.157C51.8143 119.96 53.2663 118.025 54.0439 115.968C54.909 113.764 54.9199 111.317 54.0743 109.106V109.106Z" fill="white"/>
<path d="M49.8339 132.926L44.2873 136.742L44.2812 136.748L49.9554 138.756L49.8339 132.926Z" fill="#F5F5F5"/>
<path d="M31.7543 119.178C31.7543 119.629 31.6203 120.07 31.3693 120.445C31.1183 120.82 30.7616 121.113 30.3442 121.285C29.9268 121.458 29.4675 121.503 29.0244 121.415C28.5813 121.327 28.1743 121.11 27.8548 120.791C27.5354 120.472 27.3178 120.065 27.2297 119.623C27.1415 119.18 27.1868 118.721 27.3597 118.305C27.5326 117.888 27.8253 117.531 28.201 117.281C28.5766 117.03 29.0183 116.896 29.47 116.896C30.0759 116.896 30.6569 117.137 31.0852 117.565C31.5136 117.992 31.7543 118.573 31.7543 119.178V119.178Z" fill="#495E4C"/>
<path d="M38.8561 119.178C38.8573 119.63 38.724 120.073 38.4731 120.45C38.2221 120.827 37.8648 121.121 37.4465 121.295C37.0281 121.469 36.5674 121.515 36.1227 121.428C35.678 121.34 35.2693 121.123 34.9484 120.803C34.6275 120.484 34.4088 120.076 34.3199 119.632C34.231 119.188 34.276 118.728 34.4492 118.31C34.6224 117.891 34.9159 117.534 35.2927 117.282C35.6695 117.031 36.1125 116.896 36.5658 116.896C37.1721 116.896 37.7538 117.137 38.1831 117.564C38.6125 117.992 38.8545 118.572 38.8561 119.178V119.178Z" fill="#495E4C"/>
<path d="M45.9519 119.178C45.9519 119.629 45.8179 120.07 45.5669 120.445C45.3159 120.82 44.9591 121.113 44.5418 121.285C44.1244 121.458 43.6651 121.503 43.222 121.415C42.7789 121.327 42.3719 121.11 42.0524 120.791C41.7329 120.472 41.5154 120.065 41.4273 119.623C41.3391 119.18 41.3844 118.721 41.5572 118.305C41.7301 117.888 42.0229 117.531 42.3985 117.281C42.7742 117.03 43.2158 116.896 43.6676 116.896C44.2734 116.896 44.8544 117.137 45.2828 117.565C45.7112 117.992 45.9519 118.573 45.9519 119.178V119.178Z" fill="#495E4C"/>
<path d="M227.975 70.5855C227.458 69.7543 226.359 69.5541 225.381 69.4692C221.845 69.1492 218.284 69.2735 214.779 69.8393C213.564 70.0334 211.778 69.9242 211.657 68.6744C211.674 68.305 211.808 67.9506 212.04 67.6618C212.271 67.373 212.588 67.1647 212.945 67.0666C214.16 66.6055 215.478 66.8239 216.76 66.7936C218.042 66.7632 219.494 66.3385 220.01 65.1675C220.794 63.3899 218.759 61.5272 216.833 61.2663C214.907 61.0055 212.884 61.5151 211.031 60.9387L206.979 61.0237C203.984 61.0741 201.007 61.5063 198.122 62.3099C197.314 62.5344 196.36 62.9652 196.299 63.7964C196.238 64.6276 197.083 65.1736 197.471 65.8956C198.255 67.3517 196.979 69.178 195.43 69.7483C193.881 70.3186 192.162 70.0941 190.515 70.2154C188.869 70.3368 187.034 71.0345 186.488 72.5938C186.056 73.8072 186.573 75.2209 186.196 76.4646C185.716 78.0482 183.966 78.8915 182.338 79.1706C180.71 79.4497 178.985 79.4133 177.478 80.105C176.376 80.6076 175.477 81.4685 174.928 82.547C174.379 83.6255 174.212 84.8581 174.454 86.0436C174.697 87.2291 175.335 88.2975 176.263 89.0745C177.192 89.8516 178.357 90.2913 179.568 90.3221C180.734 90.3221 181.883 90.0005 183.043 89.9399C183.897 89.8756 184.75 90.0884 185.473 90.5466C185.537 91.7884 185.978 92.9813 186.738 93.9665C187.498 94.9517 188.54 95.6825 189.726 96.0617C191.336 96.4924 193.061 96.2194 194.689 96.5652C196.317 96.9111 198 98.2944 197.69 99.9264C197.465 101.097 196.305 101.953 196.214 103.136C196.098 104.586 197.672 105.642 199.124 105.775C200.576 105.909 202.022 105.46 203.474 105.545C204.926 105.63 206.548 106.552 206.584 108.002C206.621 109.622 204.713 110.762 204.683 112.376C204.652 113.729 205.946 114.73 207.21 115.216C208.474 115.701 209.895 115.956 210.891 116.872C211.888 117.788 212.052 119.748 210.812 120.294C212.817 120.227 213.99 117.321 212.635 115.883C211.772 114.991 210.326 114.749 209.664 113.699C208.923 112.534 209.567 110.92 210.636 110.059C211.705 109.197 213.066 108.803 214.342 108.238C215.618 107.674 216.863 106.776 217.191 105.435C217.677 103.427 215.752 101.522 213.728 101.073C211.705 100.624 209.61 101.134 207.544 101.255C205.478 101.377 203.127 100.958 201.961 99.2469L208.717 96.0374C209.041 95.9324 209.341 95.7634 209.599 95.5403C209.857 95.3173 210.067 95.0448 210.217 94.739C210.594 93.5802 209.269 92.6337 208.158 92.1301L203.759 90.134C203.743 89.8654 203.683 89.6012 203.583 89.3513C206.256 88.2592 209.275 88.6779 212.137 89.0662C214.998 89.4545 218.054 89.7578 220.642 88.4595C223.23 87.1611 224.895 83.6543 223.224 81.2941C222.331 80.0261 220.599 79.1524 220.557 77.5931C220.557 76.3069 221.772 75.3361 222.987 74.9236C224.202 74.511 225.551 74.4261 226.681 73.8072C227.811 73.1884 228.655 71.6534 227.975 70.5855Z" fill="white"/>
<path d="M195.892 80.1292C197.1 80.1292 198.079 79.1513 198.079 77.9451C198.079 76.7388 197.1 75.7609 195.892 75.7609C194.684 75.7609 193.705 76.7388 193.705 77.9451C193.705 79.1513 194.684 80.1292 195.892 80.1292Z" fill="#495E4C"/>
<path d="M204.865 77.9451C204.865 78.377 204.737 78.7993 204.496 79.1585C204.256 79.5177 203.914 79.7977 203.515 79.963C203.115 80.1283 202.675 80.1715 202.251 80.0873C201.827 80.003 201.437 79.795 201.131 79.4895C200.826 79.184 200.617 78.7949 200.533 78.3712C200.448 77.9475 200.492 77.5083 200.657 77.1092C200.823 76.7101 201.103 76.369 201.463 76.129C201.822 75.889 202.245 75.7609 202.678 75.7609C203.258 75.7609 203.814 75.991 204.224 76.4006C204.635 76.8102 204.865 77.3658 204.865 77.9451V77.9451Z" fill="#495E4C"/>
<path d="M209.47 80.1292C210.678 80.1292 211.657 79.1513 211.657 77.9451C211.657 76.7388 210.678 75.7609 209.47 75.7609C208.262 75.7609 207.283 76.7388 207.283 77.9451C207.283 79.1513 208.262 80.1292 209.47 80.1292Z" fill="#495E4C"/>
<path d="M56.3828 27.6299C53.9364 27.619 51.5409 28.3276 49.495 29.6674C47.4491 31.0071 45.8435 32.9187 44.8782 35.1637C43.9129 37.4088 43.6308 39.888 44.0669 42.2921C44.5031 44.6962 45.6383 46.9189 47.3309 48.683C41.353 49.9571 37.55 56.9526 39.1234 62.8377C40.6969 68.7229 47.0211 72.7454 53.0962 72.3268C59.1713 71.9082 64.6389 67.4731 66.8806 61.776C67.7117 64.1433 69.2407 66.204 71.2666 67.687C73.2926 69.17 75.7205 70.0059 78.2311 70.0846C80.7418 70.1634 83.2175 69.4814 85.3326 68.1284C87.4478 66.7753 89.1034 64.8146 90.0815 62.504C92.7728 67.5095 100.44 68.3407 104.832 64.7368C109.224 61.1329 110.227 54.4226 108.125 49.1623C106.023 43.9021 101.339 39.9827 96.1931 37.5922C99.4798 34.6314 99.8929 29.2073 97.5479 25.4578C95.2029 21.7083 90.5919 19.694 86.1509 19.9246C81.71 20.1551 77.5668 22.3939 74.4442 25.5185C73.7447 23.6161 72.4293 22.0013 70.7067 20.93C68.9841 19.8588 66.9527 19.3925 64.9346 19.605C62.9165 19.8175 61.0271 20.6966 59.566 22.103C58.105 23.5095 57.1557 25.3627 56.8688 27.369" fill="white"/>
<path d="M63.1323 38.4659L68.8429 48.5071C69.0677 48.9042 69.4307 49.2052 69.8629 49.3528C70.2952 49.5004 70.7666 49.4845 71.1879 49.308C71.6311 49.1243 71.9867 48.7775 72.1812 48.3394C72.3756 47.9013 72.3941 47.4053 72.2328 46.9539L68.3083 36.0026C68.2376 35.807 68.1262 35.6284 67.9815 35.4788C67.8368 35.3291 67.662 35.2118 67.4686 35.1344C67.2752 35.0571 67.0677 35.0214 66.8595 35.0299C66.6514 35.0384 66.4474 35.0908 66.261 35.1836L63.7519 36.4516C63.5761 36.5404 63.4201 36.6637 63.2931 36.8141C63.1661 36.9646 63.0708 37.139 63.013 37.3271C62.9551 37.5152 62.9359 37.713 62.9564 37.9087C62.9769 38.1043 63.0367 38.2939 63.1323 38.4659V38.4659Z" fill="#495E4C"/>
<path d="M76.777 53.8038C76.8491 54.3556 76.7557 54.9165 76.5087 55.4154C76.2617 55.9143 75.8722 56.3289 75.3894 56.6068C74.9066 56.8847 74.3521 57.0135 73.796 56.9768C73.2399 56.9401 72.7072 56.7396 72.2652 56.4007C71.8232 56.0618 71.4917 55.5996 71.3125 55.0726C71.1334 54.5455 71.1147 53.9773 71.2589 53.4397C71.403 52.9021 71.7034 52.4192 72.1222 52.052C72.541 51.6849 73.0594 51.4499 73.6119 51.3769C73.9793 51.3283 74.3527 51.3526 74.7108 51.4483C75.0688 51.544 75.4044 51.7093 75.6984 51.9347C75.9924 52.1602 76.239 52.4413 76.4241 52.762C76.6092 53.0827 76.7291 53.4367 76.777 53.8038Z" fill="#495E4C"/>
<path d="M81.5946 32.4896L81.7829 42.458C81.7898 42.8512 81.9407 43.2283 82.2071 43.5178C82.4736 43.8074 82.837 43.9894 83.2288 44.0294V44.0294C83.6403 44.0733 84.0529 43.9572 84.3809 43.7052C84.709 43.4533 84.9273 43.0849 84.9906 42.6765L86.5458 32.7384C86.5734 32.5609 86.563 32.3795 86.5151 32.2063C86.4673 32.0332 86.3831 31.8721 86.2682 31.7339C86.1533 31.5956 86.0104 31.4833 85.8487 31.4044C85.6871 31.3255 85.5106 31.2818 85.3308 31.2762L82.9007 31.2034C82.7294 31.1985 82.5588 31.2282 82.3993 31.2909C82.2398 31.3536 82.0947 31.4478 81.9726 31.568C81.8506 31.6882 81.7542 31.8318 81.6892 31.9902C81.6242 32.1486 81.592 32.3185 81.5946 32.4896V32.4896Z" fill="#E0E0E0"/>
<path d="M85.6163 49.7387C85.4443 50.1866 85.1432 50.5736 84.751 50.8507C84.3588 51.1279 83.8932 51.2827 83.413 51.2956C82.9328 51.3086 82.4595 51.1791 82.0529 50.9235C81.6463 50.6679 81.3247 50.2977 81.1288 49.8596C80.9328 49.4216 80.8712 48.9354 80.9518 48.4624C81.0324 47.9894 81.2516 47.5509 81.5817 47.2023C81.9117 46.8537 82.3378 46.6106 82.8062 46.5037C83.2745 46.3968 83.7641 46.431 84.213 46.6019C84.5115 46.7156 84.7847 46.8869 85.0169 47.1062C85.2491 47.3254 85.4357 47.5882 85.5661 47.8796C85.6964 48.171 85.768 48.4851 85.7766 48.8041C85.7852 49.1231 85.7307 49.4407 85.6163 49.7387Z" fill="#E0E0E0"/>
<path d="M201.557 140.326L196.387 154.887C196.184 155.464 196.199 156.096 196.428 156.663C196.657 157.23 197.085 157.694 197.632 157.969V157.969C198.208 158.256 198.872 158.311 199.487 158.122C200.103 157.933 200.622 157.516 200.937 156.956L208.616 143.366C208.753 143.123 208.837 142.854 208.863 142.576C208.888 142.299 208.854 142.019 208.762 141.756C208.671 141.492 208.524 141.251 208.333 141.049C208.141 140.846 207.908 140.687 207.65 140.581L204.163 139.149C203.915 139.049 203.65 139 203.382 139.005C203.115 139.01 202.851 139.069 202.607 139.18C202.364 139.29 202.145 139.448 201.964 139.645C201.784 139.842 201.645 140.074 201.557 140.326V140.326Z" fill="white"/>
<path d="M197.985 167.568C197.49 168.126 196.841 168.525 196.119 168.715C195.397 168.905 194.635 168.876 193.93 168.634C193.224 168.391 192.606 167.944 192.155 167.351C191.703 166.757 191.438 166.043 191.393 165.299C191.348 164.555 191.525 163.814 191.902 163.171C192.278 162.527 192.838 162.009 193.509 161.683C194.18 161.357 194.933 161.237 195.672 161.339C196.412 161.44 197.104 161.758 197.663 162.253C198.034 162.581 198.336 162.978 198.553 163.423C198.77 163.867 198.897 164.35 198.927 164.844C198.957 165.337 198.889 165.832 198.728 166.3C198.566 166.767 198.314 167.198 197.985 167.568V167.568Z" fill="white"/>
<path d="M117.966 33.4117H122.887C122.887 33.4117 122.887 28.8795 127.182 28.8006C128.039 28.7924 128.875 29.0584 129.57 29.5595C130.264 30.0606 130.779 30.7706 131.04 31.5855C131.301 32.2955 131.405 33.0535 131.345 33.8075C131.285 34.5615 131.063 35.2936 130.694 35.9538C129.855 37.4646 128.027 38.8358 124.71 38.1987V50.3634H129.57V43.2345C129.57 43.2345 136.398 41.3051 136.398 33.0537C136.398 25.1664 129.94 23.3462 127.176 23.3462C125.074 23.328 117.875 23.868 117.966 33.4117Z" fill="white"/>
<path d="M129.643 52.8691H124.698V57.9292H129.643V52.8691Z" fill="white"/>
<path d="M242.44 120.755C242.44 120.755 242.506 120.688 242.646 120.573C242.867 120.403 243.119 120.278 243.387 120.203C243.829 120.085 244.294 120.085 244.736 120.203C245.358 120.342 245.913 120.694 246.303 121.198C246.793 121.839 247.069 122.618 247.093 123.425C247.115 124.394 246.882 125.352 246.419 126.203C245.21 128.285 243.569 130.085 241.607 131.482C240.464 132.334 239.275 133.124 238.047 133.848C236.765 134.619 235.405 135.407 233.934 136.147C232.405 136.929 230.809 137.572 229.165 138.071C228.293 138.34 227.401 138.543 226.498 138.677C225.56 138.82 224.61 138.871 223.661 138.829C222.663 138.867 221.675 138.614 220.818 138.101C220.381 137.806 220.075 137.354 219.962 136.839C219.865 136.318 219.93 135.78 220.15 135.298C220.616 134.35 221.269 133.506 222.07 132.817C222.853 132.079 223.687 131.398 224.566 130.778C226.347 129.516 228.248 128.351 230.204 127.138C232.204 125.873 234.35 124.854 236.595 124.104C237.767 123.729 238.978 123.491 240.204 123.394C241.464 123.272 242.737 123.392 243.952 123.746C245.229 124.084 246.332 124.887 247.044 125.997C247.366 126.588 247.54 127.248 247.553 127.921C247.565 128.593 247.416 129.259 247.117 129.862C246.523 131.089 245.567 132.106 244.377 132.774C243.193 133.463 241.925 134 240.605 134.37C237.893 135.098 235.077 135.369 232.276 135.171C229.392 134.966 226.525 134.561 223.698 133.957C222.239 133.689 220.796 133.337 219.378 132.902C218.661 132.674 217.959 132.403 217.276 132.089C216.555 131.803 215.906 131.361 215.375 130.796C215.105 130.492 214.928 130.117 214.865 129.716C214.804 129.301 214.874 128.877 215.065 128.503C215.45 127.806 216.031 127.237 216.736 126.865C218.117 126.117 219.645 125.68 221.213 125.585C224.362 125.312 227.529 125.312 230.678 125.585C232.282 125.731 233.877 125.97 235.453 126.3C236.249 126.464 237.039 126.664 237.822 126.907C238.638 127.089 239.411 127.424 240.101 127.896C240.461 128.148 240.746 128.492 240.926 128.893C241.106 129.293 241.173 129.735 241.121 130.171C241.002 130.588 240.797 130.975 240.519 131.308C240.24 131.64 239.895 131.91 239.505 132.101C238.033 132.925 236.416 133.458 234.742 133.672C233.902 133.777 233.054 133.804 232.209 133.751C231.353 133.716 230.506 133.559 229.694 133.284C228.846 133.014 228.118 132.459 227.634 131.712C227.419 131.316 227.306 130.871 227.306 130.42C227.306 129.969 227.419 129.525 227.634 129.128C228.061 128.343 228.708 127.702 229.497 127.282C230.285 126.862 231.18 126.683 232.069 126.768C232.979 126.838 233.826 127.258 234.432 127.939C235.022 128.642 235.31 129.549 235.234 130.463C235.194 130.923 235.042 131.367 234.791 131.755C234.531 132.137 234.177 132.446 233.764 132.653C232.936 133.051 231.994 133.145 231.103 132.92C230.644 132.84 230.21 132.655 229.834 132.38C229.458 132.106 229.15 131.749 228.935 131.336C228.838 131.11 228.8 130.863 228.824 130.618C228.849 130.373 228.935 130.138 229.074 129.935C229.36 129.543 229.779 129.269 230.253 129.164C231.161 129.045 232.084 129.156 232.938 129.486C233.812 129.723 234.642 130.098 235.398 130.596C236.169 131.114 236.766 131.852 237.112 132.713C237.288 133.151 237.367 133.621 237.342 134.092C237.317 134.562 237.188 135.022 236.966 135.438C236.5 136.24 235.815 136.895 234.991 137.325C234.185 137.781 233.294 138.068 232.373 138.168C230.516 138.379 228.645 137.919 227.1 136.869C225.57 135.801 224.387 134.307 223.698 132.574C222.939 130.853 222.809 128.92 223.333 127.113C223.624 126.2 224.196 125.402 224.967 124.832C225.737 124.294 226.607 123.917 227.525 123.722C229.319 123.327 231.159 123.182 232.993 123.291C234.816 123.317 236.633 123.52 238.418 123.898C240.236 124.28 241.854 125.306 242.974 126.786C243.503 127.548 243.816 128.439 243.879 129.364C243.928 130.28 243.783 131.196 243.454 132.052C242.762 133.728 241.592 135.162 240.088 136.178C239.368 136.698 238.613 137.168 237.828 137.585C237.056 138.015 236.259 138.398 235.441 138.732C233.804 139.444 231.996 139.669 230.235 139.381C226.816 138.586 223.778 136.633 221.638 133.854C220.638 132.441 220.034 130.786 219.889 129.061C219.745 127.361 219.975 125.651 220.563 124.05C221.133 122.464 222.031 121.017 223.2 119.802C224.35 118.6 225.711 117.617 227.215 116.902C228.706 116.207 230.304 115.77 231.942 115.61C233.582 115.46 235.235 115.623 236.814 116.089C238.386 116.518 239.78 117.436 240.793 118.71C241.696 120.03 242.208 121.578 242.269 123.176C242.45 126.27 241.905 129.363 240.678 132.21C240.091 133.604 239.334 134.921 238.424 136.129C237.525 137.331 236.39 138.336 235.089 139.084C233.792 139.806 232.318 140.149 230.836 140.073C229.371 139.957 227.983 139.369 226.881 138.398C225.822 137.461 224.848 136.432 223.971 135.322C223.019 134.294 222.229 133.128 221.626 131.864C221.358 131.222 221.202 130.538 221.164 129.844C221.141 129.152 221.24 128.462 221.456 127.805C221.908 126.535 222.596 125.361 223.485 124.347C225.131 122.302 227.38 120.827 229.913 120.13C231.123 119.804 232.387 119.723 233.63 119.892C234.872 120.061 236.068 120.476 237.148 121.113C239.154 122.431 240.669 124.371 241.461 126.634C242.271 128.734 242.553 131.001 242.282 133.235C242.05 135.373 241.076 137.363 239.53 138.86C238.006 140.174 236.154 141.05 234.171 141.396C232.349 141.787 230.474 141.867 228.625 141.632C226.898 141.402 225.285 140.643 224.008 139.46C222.854 138.372 221.993 137.012 221.505 135.504C221.055 134.136 220.916 132.686 221.098 131.257C221.405 128.862 222.415 126.612 224.002 124.79C225.158 123.461 226.54 122.346 228.084 121.495C229.024 120.968 230.01 120.528 231.03 120.179C231.723 119.942 232.087 119.851 232.087 119.851L231.82 119.942L231.043 120.209C230.03 120.572 229.051 121.021 228.114 121.55C226.586 122.408 225.219 123.525 224.074 124.85C222.509 126.664 221.515 128.899 221.219 131.276C221.046 132.682 221.187 134.11 221.632 135.456C222.121 136.941 222.976 138.281 224.117 139.351C225.374 140.508 226.96 141.248 228.655 141.468C230.479 141.693 232.327 141.609 234.123 141.22C236.069 140.875 237.886 140.014 239.384 138.726C240.892 137.253 241.84 135.3 242.063 133.205C242.334 130.996 242.056 128.754 241.255 126.677C240.471 124.458 238.976 122.56 237.002 121.277C235.955 120.66 234.794 120.26 233.589 120.098C232.384 119.937 231.159 120.018 229.986 120.336C227.503 121.021 225.3 122.471 223.692 124.48C222.822 125.471 222.15 126.618 221.711 127.86C221.506 128.488 221.411 129.147 221.432 129.807C221.472 130.473 221.624 131.127 221.881 131.743C222.455 132.987 223.215 134.137 224.135 135.152C225.004 136.246 225.968 137.261 227.015 138.186C228.076 139.122 229.413 139.69 230.824 139.806C232.26 139.876 233.687 139.541 234.943 138.841C236.21 138.108 237.316 137.125 238.193 135.953C239.089 134.764 239.834 133.468 240.41 132.095C241.617 129.289 242.151 126.242 241.972 123.194C241.913 121.649 241.421 120.152 240.55 118.874C239.574 117.649 238.231 116.769 236.717 116.362C235.194 115.908 233.598 115.747 232.015 115.889C230.411 116.042 228.845 116.469 227.385 117.151C224.383 118.535 222.049 121.047 220.891 124.141C220.322 125.692 220.098 127.348 220.235 128.994C220.366 130.682 220.952 132.302 221.93 133.684C224.02 136.401 226.99 138.31 230.332 139.084C232.034 139.374 233.784 139.163 235.368 138.477C236.173 138.148 236.959 137.771 237.719 137.349C238.491 136.938 239.233 136.476 239.943 135.965C241.397 134.984 242.532 133.598 243.205 131.979C243.516 131.165 243.652 130.295 243.606 129.425C243.551 128.553 243.257 127.714 242.755 126.998C241.679 125.58 240.126 124.6 238.381 124.238C236.619 123.861 234.825 123.658 233.023 123.631C231.214 123.521 229.399 123.662 227.628 124.05C226.756 124.24 225.93 124.6 225.198 125.111C224.479 125.641 223.946 126.384 223.673 127.235C223.174 128.978 223.3 130.841 224.032 132.501C224.698 134.177 225.84 135.622 227.319 136.657C228.806 137.653 230.601 138.083 232.379 137.871C233.258 137.777 234.107 137.505 234.876 137.07C235.64 136.656 236.271 136.036 236.699 135.28C236.9 134.904 237.016 134.489 237.039 134.063C237.062 133.637 236.991 133.212 236.832 132.817C236.509 132.015 235.952 131.328 235.234 130.845C234.503 130.367 233.702 130.007 232.859 129.777C232.057 129.469 231.191 129.361 230.338 129.461C229.939 129.549 229.585 129.777 229.342 130.105C229.232 130.266 229.165 130.452 229.147 130.646C229.128 130.841 229.16 131.036 229.238 131.215C229.435 131.579 229.713 131.894 230.05 132.136C230.386 132.378 230.774 132.54 231.182 132.61C231.995 132.813 232.854 132.729 233.612 132.374C233.981 132.191 234.296 131.915 234.525 131.573C234.754 131.232 234.89 130.836 234.919 130.426C234.958 130.015 234.915 129.6 234.79 129.206C234.665 128.812 234.462 128.447 234.192 128.134C233.923 127.82 233.592 127.565 233.221 127.382C232.85 127.199 232.446 127.094 232.033 127.071C231.206 126.992 230.374 127.157 229.64 127.545C228.906 127.934 228.301 128.528 227.902 129.255C227.711 129.609 227.612 130.004 227.612 130.405C227.612 130.806 227.711 131.201 227.902 131.555C228.347 132.24 229.017 132.748 229.797 132.993C230.582 133.256 231.4 133.409 232.227 133.448C233.054 133.495 233.884 133.467 234.706 133.363C236.339 133.158 237.916 132.641 239.353 131.84C239.706 131.671 240.019 131.429 240.273 131.131C240.526 130.834 240.714 130.486 240.824 130.111C240.867 129.729 240.806 129.343 240.646 128.993C240.487 128.644 240.235 128.344 239.918 128.127C239.26 127.678 238.521 127.359 237.743 127.186C236.96 126.968 236.182 126.768 235.392 126.58C233.828 126.249 232.246 126.01 230.654 125.864C227.524 125.579 224.375 125.566 221.243 125.827C219.718 125.91 218.23 126.324 216.881 127.041C216.224 127.386 215.681 127.915 215.32 128.564C215.158 128.879 215.097 129.237 215.145 129.588C215.193 129.94 215.347 130.268 215.587 130.529C216.099 131.062 216.721 131.476 217.41 131.743C218.082 132.054 218.774 132.322 219.482 132.544C220.89 132.976 222.322 133.327 223.771 133.593C226.578 134.225 229.426 134.661 232.294 134.898C235.067 135.1 237.854 134.833 240.538 134.109C241.836 133.752 243.082 133.228 244.244 132.55C245.392 131.91 246.317 130.933 246.893 129.753C247.175 129.186 247.317 128.559 247.308 127.926C247.298 127.293 247.137 126.671 246.838 126.112C246.16 125.051 245.105 124.284 243.885 123.965C242.704 123.617 241.466 123.499 240.24 123.619C239.029 123.713 237.833 123.945 236.674 124.31C234.448 125.054 232.319 126.06 230.332 127.308C228.382 128.521 226.474 129.68 224.7 130.948C223.828 131.561 223 132.234 222.222 132.962C221.439 133.637 220.8 134.462 220.344 135.389C220.138 135.834 220.074 136.332 220.162 136.815C220.269 137.285 220.549 137.699 220.946 137.974C221.772 138.467 222.724 138.709 223.686 138.671C224.624 138.715 225.564 138.666 226.492 138.526C227.387 138.391 228.271 138.188 229.135 137.919C230.772 137.426 232.362 136.788 233.886 136.014C235.35 135.286 236.711 134.503 237.999 133.739C239.224 133.017 240.41 132.231 241.553 131.385C243.507 130.007 245.143 128.228 246.352 126.167C246.815 125.33 247.049 124.387 247.032 123.431C247.014 122.639 246.748 121.874 246.273 121.24C245.891 120.745 245.351 120.396 244.742 120.251C244.306 120.138 243.848 120.138 243.412 120.251C243.052 120.34 242.719 120.512 242.44 120.755V120.755Z" fill="#F5F5F5"/>
<path d="M178.225 17.4066C178.331 17.3012 178.443 17.2019 178.56 17.1093C178.91 16.8339 179.31 16.628 179.738 16.5026C180.447 16.3165 181.192 16.3165 181.901 16.5026C182.893 16.7295 183.776 17.2935 184.398 18.0983C185.18 19.1222 185.62 20.3661 185.655 21.6537C185.684 23.2011 185.309 24.7294 184.568 26.0888C183.013 29.0496 180.315 31.9193 176.871 34.5222C175.039 35.8875 173.134 37.1533 171.166 38.3141C169.107 39.5276 166.914 40.8078 164.575 41.9909C162.126 43.2506 159.57 44.2922 156.938 45.1033C155.547 45.5249 154.125 45.8393 152.686 46.0437C151.186 46.2706 149.669 46.3539 148.154 46.2925C146.558 46.342 144.981 45.929 143.615 45.1033C142.931 44.6305 142.45 43.918 142.267 43.1072C142.112 42.2864 142.218 41.4378 142.571 40.6803C143.304 39.1694 144.337 37.8234 145.608 36.7245C146.861 35.5465 148.194 34.4578 149.599 33.4665C151.021 32.4472 152.503 31.4886 154.016 30.53C155.529 29.5713 157.054 28.5945 158.633 27.642C161.834 25.6196 165.267 23.9899 168.858 22.7882C170.733 22.199 172.669 21.8205 174.629 21.6597C176.641 21.4664 178.672 21.6579 180.613 22.224C181.599 22.5221 182.535 22.9659 183.389 23.5406C184.265 24.1179 184.995 24.8905 185.522 25.7976C186.029 26.736 186.303 27.782 186.322 28.8482C186.341 29.9144 186.104 30.9696 185.631 31.9254C184.681 33.8761 183.16 35.4925 181.269 36.5607C179.378 37.6584 177.355 38.5106 175.249 39.0968C170.911 40.2684 166.407 40.7012 161.926 40.377C157.308 40.0344 152.721 39.3695 148.196 38.387C145.864 37.9539 143.558 37.3908 141.289 36.7003C140.147 36.3341 139.029 35.8985 137.941 35.3958C136.792 34.9373 135.756 34.2356 134.904 33.3391C134.497 32.8614 134.234 32.2789 134.144 31.6584C134.058 31.0232 134.17 30.3767 134.466 29.808C135.077 28.7087 135.992 27.809 137.103 27.2173C139.305 26.0278 141.742 25.336 144.241 25.1908C149.283 24.7683 154.353 24.7825 159.393 25.2333C161.958 25.468 164.508 25.8529 167.029 26.3861C168.299 26.647 169.562 26.9928 170.82 27.3143C172.124 27.6004 173.362 28.1339 174.465 28.8857C175.005 29.2971 175.443 29.8263 175.747 30.4329C176.069 31.0499 176.18 31.7552 176.063 32.4411C175.923 33.1166 175.592 33.7378 175.109 34.2309C174.641 34.7203 174.105 35.1392 173.517 35.4747C171.172 36.7857 168.596 37.6344 165.929 37.9744C164.588 38.1431 163.233 38.1878 161.883 38.1079C160.505 38.0555 159.142 37.8021 157.837 37.3555C156.497 36.9356 155.347 36.0596 154.587 34.8801C154.235 34.2615 154.059 33.5589 154.077 32.8476C154.105 32.142 154.285 31.4508 154.605 30.8212C155.28 29.5832 156.305 28.5706 157.551 27.9093C158.798 27.2481 160.211 26.9673 161.616 27.102C162.33 27.1436 163.029 27.3286 163.67 27.6461C164.311 27.9635 164.881 28.4067 165.347 28.9493C165.813 29.4919 166.164 30.1227 166.38 30.804C166.596 31.4853 166.672 32.203 166.604 32.9144C166.554 33.6385 166.315 34.3369 165.911 34.9404C165.507 35.5439 164.952 36.0313 164.301 36.3544C162.991 36.979 161.504 37.125 160.097 36.767C159.379 36.6406 158.699 36.3518 158.109 35.9228C157.52 35.4938 157.036 34.9358 156.695 34.2916C156.544 33.9432 156.484 33.5621 156.521 33.1841C156.558 32.8062 156.691 32.4439 156.908 32.1317C157.347 31.5187 157.995 31.0871 158.73 30.9183C159.445 30.7666 160.184 30.7666 160.899 30.9183C161.61 31.0457 162.296 31.2337 162.983 31.4279C164.376 31.8054 165.699 32.4035 166.901 33.1995C168.124 34.0166 169.071 35.1841 169.617 36.5486C169.881 37.237 170.003 37.9718 169.975 38.7085C169.931 39.4523 169.724 40.1772 169.368 40.832C168.643 42.1193 167.563 43.172 166.257 43.8656C165.623 44.2313 164.951 44.5263 164.253 44.7454C163.553 44.9694 162.833 45.1219 162.102 45.2004C159.15 45.5365 156.176 44.8046 153.718 43.1376C151.281 41.4363 149.398 39.0561 148.305 36.2938C147.736 34.9221 147.379 33.4715 147.248 31.9921C147.099 30.503 147.26 28.9989 147.722 27.5752C148.18 26.1219 149.083 24.8487 150.304 23.9349C151.532 23.0862 152.915 22.4863 154.375 22.1694C157.249 21.5385 160.197 21.3098 163.135 21.4899C166.045 21.6355 168.967 21.7507 171.81 22.4606C174.653 23.1705 177.363 24.6327 179.052 27.0474C179.898 28.2581 180.397 29.6759 180.498 31.1488C180.579 32.5958 180.351 34.0436 179.829 35.3958C178.815 38.1261 176.755 40.3042 174.465 41.9666C173.314 42.7968 172.108 43.5488 170.856 44.2175C169.622 44.8995 168.348 45.5073 167.041 46.0377C165.73 46.568 164.362 46.9447 162.965 47.1601C161.566 47.3576 160.144 47.3269 158.755 47.0691C156.021 46.5088 153.42 45.4295 151.094 43.8899C148.73 42.4367 146.668 40.5438 145.019 38.3141C143.427 36.0631 142.466 33.428 142.236 30.6816C141.914 26.6027 142.91 22.528 145.08 19.0569C145.414 18.4805 145.839 17.9588 146.216 17.4066C146.592 16.8545 147.06 16.3691 147.528 15.8959C149.366 13.9797 151.538 12.4132 153.937 11.2727C156.315 10.1576 158.867 9.45977 161.482 9.20987C164.071 8.98491 166.678 9.25046 169.167 9.99254C171.671 10.6708 173.891 12.1314 175.504 14.1607C176.936 16.2674 177.749 18.733 177.849 21.2775C178.132 26.2208 177.261 31.1622 175.303 35.7113C174.367 37.9378 173.157 40.0391 171.701 41.9666C170.27 43.8838 168.461 45.4881 166.385 46.6808C164.314 47.8333 161.961 48.382 159.593 48.2643C158.426 48.1844 157.281 47.9031 156.209 47.4331C155.16 46.9629 154.181 46.3505 153.299 45.613C151.605 44.1142 150.046 42.4697 148.64 40.6986C147.151 39.0444 145.922 37.1747 144.995 35.1531C144.573 34.1293 144.325 33.0427 144.259 31.9375C144.224 30.8406 144.383 29.746 144.727 28.7037C145.444 26.6772 146.541 24.8055 147.959 23.1887C150.587 19.9236 154.177 17.5674 158.22 16.4541C160.151 15.93 162.168 15.7985 164.15 16.0674C166.133 16.3363 168.042 17.0001 169.763 18.0194C171.398 19.0434 172.827 20.3622 173.979 21.9085C175.092 23.4148 175.99 25.0689 176.646 26.8229C177.946 30.1933 178.391 33.8326 177.94 37.4162C177.722 39.1287 177.238 40.7969 176.506 42.361C175.784 43.8807 174.783 45.2514 173.554 46.4017C171.124 48.6526 168.001 49.8236 165.006 50.4485C162.092 51.0722 159.093 51.1993 156.136 50.8247C154.739 50.6217 153.38 50.2127 152.102 49.6112C150.877 49.0359 149.75 48.2722 148.761 47.3482C146.914 45.6073 145.533 43.4316 144.745 41.0201C144.028 38.8374 143.803 36.5227 144.089 34.2431C144.334 32.2087 144.913 30.2285 145.803 28.3822C146.576 26.757 147.558 25.2395 148.725 23.8682C150.576 21.7455 152.784 19.9613 155.249 18.5958C156.755 17.7464 158.335 17.0357 159.97 16.4723C161.069 16.0901 161.653 15.9444 161.653 15.9444L161.233 16.084C160.948 16.1689 160.529 16.3085 159.982 16.5026C158.354 17.0789 156.781 17.7977 155.28 18.6504C152.829 20.0215 150.636 21.8076 148.798 23.9289C147.637 25.2898 146.661 26.7973 145.894 28.4125C145.015 30.2484 144.444 32.2162 144.205 34.237C143.926 36.4972 144.152 38.7909 144.867 40.9534C145.651 43.3415 147.024 45.4945 148.858 47.2147C150.878 49.0752 153.424 50.2662 156.148 50.6245C159.086 50.9925 162.065 50.8591 164.957 50.2301C167.934 49.6234 171.033 48.4099 173.414 46.2197C174.62 45.0836 175.605 43.7341 176.318 42.2396C177.038 40.69 177.513 39.0384 177.727 37.3434C178.167 33.7941 177.725 30.1912 176.439 26.8532C175.783 25.1221 174.891 23.4889 173.791 21.9995C172.654 20.4777 171.245 19.1797 169.635 18.1711C166.373 16.1204 162.151 15.6593 158.269 16.6422C154.275 17.7493 150.732 20.0844 148.141 23.3161C146.742 24.9176 145.662 26.7708 144.958 28.7765C144.621 29.7909 144.469 30.8574 144.509 31.9254C144.568 33.002 144.811 34.0606 145.225 35.0561C146.158 37.0492 147.387 38.8901 148.87 40.5165C150.264 42.2683 151.811 43.8926 153.494 45.3703C155.207 46.8811 157.364 47.7965 159.642 47.9792C161.957 48.0941 164.258 47.5558 166.282 46.426C168.326 45.2513 170.108 43.6718 171.519 41.7846C172.954 39.8707 174.15 37.7883 175.079 35.5839C177.013 31.0756 177.874 26.1805 177.594 21.2836C177.495 18.7912 176.7 16.3762 175.297 14.3124C173.722 12.3358 171.555 10.9137 169.113 10.2534C166.64 9.52487 164.05 9.27163 161.482 9.50716C158.903 9.75341 156.386 10.4409 154.04 11.5397C151.676 12.6678 149.536 14.2135 147.722 16.1022C147.261 16.5694 146.86 17.0911 146.428 17.5887C145.997 18.0862 145.639 18.6443 145.31 19.2147C143.189 22.6299 142.216 26.6328 142.534 30.6392C142.759 33.333 143.701 35.9178 145.262 38.1261C146.886 40.3216 148.915 42.1873 151.24 43.6229C153.527 45.1589 156.089 46.2423 158.785 46.8143C160.142 47.0638 161.531 47.0925 162.898 46.8992C164.288 46.692 165.648 46.3214 166.95 45.795C168.247 45.2649 169.511 44.6571 170.735 43.9748C171.973 43.3099 173.167 42.564 174.307 41.7421C176.567 40.104 178.56 37.9683 179.556 35.317C180.063 34.0011 180.287 32.5932 180.212 31.1852C180.119 29.7757 179.642 28.4184 178.833 27.2597C178.009 26.1016 176.951 25.1283 175.729 24.4021C174.499 23.6694 173.166 23.1272 171.774 22.7943C168.942 22.1998 166.059 21.8788 163.165 21.8357C160.258 21.6554 157.34 21.8821 154.496 22.5091C153.076 22.8139 151.73 23.3953 150.535 24.2201C149.371 25.0878 148.506 26.2967 148.062 27.6784C147.617 29.0617 147.462 30.522 147.607 31.9679C147.734 33.4159 148.082 34.8359 148.64 36.1785C149.714 38.8743 151.558 41.1952 153.943 42.8524C156.326 44.4876 159.216 45.2153 162.09 44.9031C162.8 44.8243 163.5 44.6739 164.18 44.4541C164.86 44.2468 165.515 43.9618 166.13 43.6047C167.382 42.9414 168.418 41.9327 169.113 40.6986C169.441 40.0847 169.631 39.4065 169.669 38.7115C169.707 38.0165 169.592 37.3217 169.331 36.676C168.809 35.3718 167.905 34.2552 166.737 33.4725C165.557 32.7006 164.261 32.121 162.898 31.7555C161.555 31.3854 160.146 30.9365 158.809 31.2459C158.149 31.3913 157.564 31.7706 157.163 32.3137C156.977 32.5832 156.862 32.8956 156.831 33.2215C156.799 33.5473 156.85 33.8759 156.981 34.1763C157.268 34.7895 157.723 35.3091 158.293 35.6749C158.862 36.0573 159.499 36.3271 160.17 36.4697C161.503 36.8117 162.913 36.6765 164.155 36.0875C164.762 35.7907 165.279 35.3393 165.654 34.7789C166.03 34.2186 166.25 33.5691 166.294 32.8962C166.357 32.2263 166.284 31.5505 166.08 30.9095C165.875 30.2684 165.543 29.6751 165.103 29.1653C164.664 28.6554 164.126 28.2394 163.521 27.9422C162.917 27.645 162.258 27.4727 161.586 27.4357C160.247 27.312 158.901 27.5821 157.713 28.2128C156.526 28.8434 155.549 29.807 154.903 30.985C154.6 31.5719 154.43 32.2181 154.405 32.878C154.391 33.5341 154.554 34.1819 154.879 34.7527C155.601 35.8706 156.693 36.6995 157.965 37.0946C159.222 37.5197 160.533 37.7648 161.859 37.8227C163.189 37.9018 164.523 37.8591 165.844 37.6953C168.472 37.3608 171.011 36.5245 173.323 35.232C173.887 34.9028 174.4 34.4941 174.848 34.0186C175.296 33.5641 175.6 32.9881 175.723 32.3622C175.789 31.7382 175.686 31.1079 175.426 30.537C175.165 29.966 174.755 29.4754 174.24 29.1163C173.174 28.3928 171.981 27.8781 170.723 27.5995C169.471 27.2537 168.214 26.9321 166.95 26.6712C164.439 26.1426 161.899 25.7598 159.344 25.5245C154.325 25.0728 149.276 25.0545 144.253 25.4699C141.795 25.6113 139.397 26.2907 137.231 27.46C136.166 28.0254 135.287 28.8847 134.697 29.9354C134.428 30.454 134.326 31.0432 134.406 31.622C134.493 32.2005 134.749 32.7406 135.141 33.1752C135.958 34.039 136.953 34.7158 138.057 35.1592C139.141 35.6564 140.255 36.086 141.392 36.4455C143.651 37.1332 145.947 37.6943 148.269 38.1261C152.781 39.1126 157.357 39.7796 161.962 40.1222C166.413 40.444 170.885 40.0174 175.194 38.8602C177.279 38.2822 179.282 37.4402 181.154 36.3544C182.999 35.3155 184.483 33.7384 185.406 31.8344C185.866 30.914 186.097 29.8969 186.081 28.8686C186.066 27.8403 185.803 26.8308 185.315 25.925C184.807 25.0479 184.102 24.3003 183.256 23.7408C182.418 23.18 181.504 22.7446 180.54 22.4485C178.629 21.8913 176.629 21.7039 174.647 21.8964C172.704 22.0516 170.784 22.4241 168.924 23.0066C165.35 24.1999 161.931 25.8172 158.743 27.824C157.169 28.7705 155.638 29.7473 154.125 30.7059C152.613 31.6645 151.13 32.6171 149.721 33.6303C148.317 34.6121 146.987 35.6949 145.742 36.8702C144.475 37.9446 143.442 39.2659 142.704 40.7532C142.371 41.4795 142.269 42.2908 142.413 43.0769C142.581 43.8437 143.038 44.5168 143.688 44.9577C145.023 45.7521 146.558 46.1459 148.111 46.0923C149.616 46.1586 151.124 46.0773 152.613 45.8496C154.052 45.6488 155.474 45.3385 156.865 44.9213C159.486 44.1336 162.033 43.1186 164.477 41.8877C166.829 40.7168 169.01 39.4608 171.069 38.2474C173.034 37.0912 174.936 35.8314 176.767 34.4736C180.206 31.8829 182.897 29.0132 184.452 26.0948C185.192 24.75 185.569 23.2363 185.546 21.7022C185.521 20.429 185.096 19.1957 184.331 18.1772C183.803 17.4979 183.09 16.9861 182.277 16.7039C181.464 16.4218 180.586 16.3814 179.75 16.5876C179.183 16.7323 178.659 17.0135 178.225 17.4066V17.4066Z" fill="#495E4C"/>
<path d="M67.9614 88.4066C67.9614 88.4066 67.846 88.4066 67.6273 88.3702L66.6431 88.2185C65.387 88.0277 64.1615 87.6727 62.998 87.1628C62.1484 86.7777 61.3858 86.2246 60.7563 85.5368C59.989 84.7207 59.5091 83.677 59.3894 82.5639C59.3381 81.9377 59.4556 81.3092 59.7296 80.7437C60.0387 80.1513 60.4946 79.6479 61.054 79.2815C61.6514 78.8832 62.3681 78.7032 63.0831 78.7719C63.457 78.8296 63.8138 78.968 64.1286 79.1776C64.4433 79.3872 64.7085 79.6628 64.9056 79.9853C65.3046 80.6646 65.479 81.4523 65.4038 82.2363C65.3416 83.0439 65.1097 83.8295 64.7234 84.5418C64.5237 84.9086 64.2788 85.249 63.9944 85.555C63.7149 85.8743 63.4102 86.1705 63.0831 86.4408C62.394 86.972 61.6305 87.3993 60.8171 87.7089C59.9695 88.0161 59.0809 88.1961 58.1805 88.2428C57.252 88.301 56.3203 88.2067 55.4224 87.9637C54.4939 87.7173 53.6173 87.3063 52.8344 86.7502C52.0328 86.1698 51.3622 85.4278 50.866 84.5721C49.8343 82.7923 49.4501 80.7111 49.7786 78.6809C49.9453 77.6366 50.3102 76.6337 50.8539 75.7262C51.1322 75.267 51.4602 74.8397 51.832 74.4521C52.1949 74.04 52.6343 73.7021 53.126 73.4571C53.6357 73.1762 54.2348 73.1044 54.7966 73.2568C55.0779 73.352 55.335 73.5073 55.5499 73.7119C55.751 73.93 55.8986 74.1916 55.9813 74.4763C56.118 75.0323 56.118 75.6131 55.9813 76.1691C55.8602 76.7169 55.6746 77.2484 55.4284 77.7526C54.906 78.7416 54.341 79.682 53.7335 80.6285C53.1198 81.5871 52.396 82.4708 51.5768 83.2616C50.746 84.0602 49.7596 84.6798 48.679 85.0818C47.6018 85.4814 46.4294 85.549 45.3134 85.2759C44.2243 84.9826 43.2354 84.3997 42.452 83.5892C41.6774 82.8068 41.0589 81.8844 40.6294 80.8711C39.899 78.8867 39.5188 76.7908 39.5055 74.6766C39.4204 73.656 39.4387 72.6295 39.5602 71.6126C39.645 70.5584 40.114 69.5718 40.8785 68.8399C41.2752 68.51 41.7578 68.2996 42.2697 68.2332C42.7703 68.1659 43.2798 68.2243 43.7521 68.4031C44.6771 68.7523 45.4363 69.4369 45.8783 70.3203C46.2728 71.1793 46.42 72.1309 46.3036 73.0687C46.2102 73.9653 45.9701 74.8405 45.5928 75.6594C45.2435 76.4519 44.8031 77.2012 44.2806 77.8922C43.7721 78.5528 43.2004 79.1624 42.5735 79.7123C41.382 80.7416 40.0074 81.538 38.5214 82.0603C37.1771 82.5358 35.7546 82.752 34.3295 82.6974C33.059 82.6473 31.807 82.3762 30.6298 81.8965C28.7382 81.1347 27.0675 79.9125 25.7697 78.3411C24.9509 77.3491 24.3079 76.2246 23.8682 75.0163C23.7483 74.7056 23.6488 74.3874 23.5705 74.0638C23.5158 73.8514 23.4915 73.7361 23.4915 73.7361C23.4915 73.7361 23.6069 74.1851 23.9289 74.9921C24.3942 76.1714 25.051 77.2661 25.873 78.2319C27.1692 79.7662 28.8237 80.9581 30.6905 81.7024C31.8523 82.1653 33.0855 82.424 34.3356 82.4668C35.7347 82.51 37.1295 82.2918 38.4485 81.8237C40.682 81.0331 42.6354 79.6074 44.068 77.7223C44.5743 77.0435 45.0004 76.3086 45.3377 75.532C45.7044 74.7407 45.9365 73.8938 46.0241 73.0263C46.1313 72.1378 45.9905 71.237 45.6171 70.4235C45.2053 69.6061 44.5004 68.9736 43.6427 68.6518C43.2146 68.4809 42.7482 68.4285 42.2928 68.5C41.8373 68.5716 41.4096 68.7644 41.0547 69.0583C40.3677 69.7367 39.9474 70.6388 39.87 71.6005C39.7481 72.6072 39.7318 73.624 39.8214 74.6341C39.8379 76.7049 40.212 78.7574 40.9271 80.7013C41.3451 81.6766 41.9474 82.5624 42.7011 83.3102C43.4428 84.083 44.3818 84.6389 45.4166 84.918C46.4707 85.1743 47.5776 85.1088 48.5939 84.7299C49.632 84.3463 50.5823 83.7582 51.3885 83.0007C53.0105 81.4657 54.1223 79.4818 55.1672 77.5827C55.6799 76.6596 55.8702 75.5922 55.7079 74.5491C55.6306 74.3248 55.5087 74.1185 55.3495 73.9424C55.1765 73.7747 54.9693 73.6464 54.742 73.5663C54.2573 73.4366 53.7412 73.4996 53.3021 73.7422C52.8412 73.9735 52.4288 74.2906 52.0871 74.6766C51.7334 75.0471 51.4198 75.4538 51.1516 75.89C50.6266 76.763 50.2759 77.7293 50.1188 78.7355C49.7937 80.6967 50.1586 82.7097 51.1516 84.4326C51.6288 85.2399 52.2616 85.9447 53.0135 86.5061C53.7654 87.0674 54.6213 87.4742 55.5317 87.7028C56.7982 88.0504 58.1281 88.1004 59.4171 87.8489C60.7062 87.5973 61.9193 87.051 62.9616 86.2527C63.5976 85.7485 64.1351 85.1314 64.5472 84.4326C64.9146 83.7396 65.13 82.9764 65.179 82.1938C65.2569 81.4583 65.0995 80.717 64.7295 80.0763C64.543 79.7851 64.2964 79.537 64.0062 79.3487C63.716 79.1604 63.3888 79.0361 63.0466 78.9842C62.3817 78.9173 61.7141 79.0823 61.1573 79.4514C60.6166 79.7983 60.175 80.2791 59.8754 80.8469C59.6106 81.3785 59.4951 81.9719 59.5413 82.5639C59.6529 83.6422 60.1111 84.6554 60.8475 85.4519C61.4574 86.1293 62.1969 86.678 63.0223 87.0657C64.1848 87.5875 65.41 87.9566 66.6674 88.1639L67.6455 88.352L67.9614 88.4066Z" fill="#495E4C"/>
<path d="M148.293 202.587H110.988C109.516 202.587 108.322 203.779 108.322 205.25V205.462C108.322 206.933 109.516 208.126 110.988 208.126H148.293C149.765 208.126 150.959 206.933 150.959 205.462V205.25C150.959 203.779 149.765 202.587 148.293 202.587Z" fill="#495E4C"/>
<path d="M118.546 211.44H141.526C141.526 211.44 138.469 217.544 129.563 217.544C120.275 217.544 118.546 211.44 118.546 211.44Z" fill="#495E4C"/>
<path d="M140.914 82.4304C140.065 81.0772 138.835 80.0046 137.378 79.3475C135.922 78.6904 134.303 78.4781 132.726 78.7372C131.148 78.9963 129.683 79.7154 128.514 80.8039C127.344 81.8925 126.523 83.302 126.153 84.8555C125.783 86.4089 125.88 88.037 126.434 89.5351C126.987 91.0332 127.971 92.3346 129.262 93.2756C130.554 94.2167 132.095 94.7556 133.692 94.8245C135.288 94.8933 136.87 94.4892 138.238 93.6629L138.339 93.5953L132.848 116.084L150.544 120.393L150.472 120.292C149.658 118.931 149.264 117.362 149.339 115.779C149.414 114.196 149.955 112.671 150.893 111.393C151.831 110.116 153.126 109.143 154.614 108.596C156.103 108.05 157.72 107.954 159.263 108.321C160.806 108.688 162.207 109.501 163.289 110.659C164.372 111.817 165.089 113.268 165.351 114.83C165.613 116.393 165.407 117.998 164.761 119.445C164.114 120.892 163.055 122.116 161.715 122.965L161.546 123.071L180.565 127.708C184.68 118.54 187.061 106.251 182.014 92.2057C179.389 84.6704 174.995 77.8726 169.202 72.3804C163.409 66.8882 156.383 62.8612 148.714 60.6362L146.511 60.1006L141.02 82.6041L140.914 82.4304Z" fill="#E9E9E9"/>
<path d="M140.914 82.4302C140.954 82.4846 140.991 82.541 141.025 82.5991C141.218 81.7065 143.174 73.5909 146.449 60.0859V60.0135H146.521L148.332 60.4526C148.951 60.5925 149.564 60.8 150.192 60.9882C151.438 61.3983 152.713 61.8615 153.998 62.4019C156.732 63.5379 159.36 64.9135 161.851 66.5127C164.601 68.2867 167.181 70.3105 169.559 72.5584C172.096 75.0431 174.379 77.7747 176.374 80.7125C176.89 81.4749 177.34 82.2903 177.823 83.0816L178.552 84.2878C178.774 84.7028 178.977 85.1322 179.194 85.5568L180.479 88.1285L181.575 90.8304C183.075 94.5688 184.101 98.4801 184.628 102.473C185.152 106.677 185.091 110.933 184.444 115.119C184.299 116.19 184.058 117.252 183.845 118.323C183.633 119.394 183.328 120.446 183 121.498C182.362 123.625 181.586 125.709 180.677 127.736L180.638 127.833H180.537L167.26 124.6L161.513 123.22L161.218 123.148L161.479 122.989C162.899 122.137 164.016 120.863 164.676 119.346C165 118.597 165.206 117.803 165.285 116.991C165.377 116.186 165.338 115.371 165.169 114.579C165.088 114.184 164.98 113.796 164.845 113.416C164.699 113.041 164.528 112.677 164.333 112.326C163.952 111.623 163.464 110.985 162.884 110.434C162.036 109.624 161.02 109.011 159.907 108.64C158.794 108.269 157.613 108.148 156.448 108.286C155.282 108.424 154.162 108.819 153.168 109.44C152.173 110.062 151.328 110.896 150.694 111.882C150.281 112.518 149.965 113.212 149.757 113.942C149.534 114.659 149.422 115.406 149.424 116.157C149.431 117.645 149.856 119.101 150.651 120.359L150.805 120.61L150.525 120.542L132.834 116.224L132.728 116.195L132.752 116.089C134.766 107.887 136.616 100.345 138.258 93.6048L138.398 93.7013C137.165 94.477 135.748 94.9101 134.292 94.9558C132.912 94.992 131.547 94.6712 130.327 94.0245C129.284 93.4795 128.371 92.715 127.652 91.7838C126.933 90.8526 126.425 89.7767 126.162 88.6303C125.899 87.484 125.887 86.2942 126.129 85.1431C126.37 83.992 126.858 82.9068 127.56 81.9622C128.676 80.4899 130.251 79.4306 132.037 78.9514C132.794 78.7656 133.571 78.6796 134.35 78.6957C135.033 78.7293 135.711 78.8393 136.369 79.0238C138.042 79.5069 139.511 80.5236 140.552 81.9188C140.689 82.0945 140.813 82.2799 140.924 82.4736L140.827 82.3385C140.764 82.242 140.668 82.1069 140.532 81.9333C140.132 81.416 139.671 80.9479 139.161 80.5388C138.328 79.877 137.373 79.3851 136.35 79.0914C135.697 78.9143 135.026 78.8108 134.35 78.7826C133.579 78.768 132.809 78.8556 132.061 79.0431C130.301 79.5236 128.751 80.5762 127.656 82.0346C126.968 82.9644 126.489 84.0323 126.254 85.1647C126.018 86.2971 126.032 87.467 126.292 88.5938C126.553 89.7207 127.055 90.7776 127.764 91.6919C128.473 92.6061 129.373 93.3558 130.4 93.8895C131.628 94.5355 133.005 94.8455 134.392 94.7879C135.779 94.7302 137.126 94.3071 138.296 93.5614L138.489 93.4407L138.436 93.6579C136.794 100.413 134.964 107.925 132.964 116.152L132.887 116.021L150.578 120.32L150.457 120.504C149.633 119.205 149.192 117.7 149.187 116.161C149.181 115.388 149.295 114.618 149.525 113.879C149.739 113.127 150.065 112.412 150.491 111.756C151.354 110.421 152.585 109.364 154.036 108.712C155.521 108.042 157.172 107.829 158.779 108.1C160.385 108.37 161.875 109.113 163.058 110.232C163.655 110.794 164.161 111.445 164.56 112.161C164.76 112.524 164.936 112.9 165.087 113.286C165.226 113.676 165.338 114.076 165.42 114.482C165.596 115.3 165.639 116.141 165.545 116.972C165.422 118.243 165.002 119.467 164.318 120.545C163.634 121.624 162.706 122.527 161.609 123.182L161.575 122.95L167.323 124.349L180.595 127.587L180.45 127.654C181.354 125.636 182.126 123.562 182.763 121.445C183.092 120.398 183.343 119.341 183.604 118.284C183.865 117.228 184.058 116.166 184.198 115.105C184.847 110.941 184.912 106.708 184.391 102.526C183.876 98.5375 182.862 94.6293 181.372 90.8932L180.281 88.2008C179.856 87.342 179.426 86.488 179.006 85.6388C178.793 85.219 178.59 84.7896 178.368 84.3795L177.644 83.1781C177.161 82.382 176.707 81.5714 176.195 80.8139C172.425 75.1427 167.507 70.3236 161.759 66.6671C159.28 65.0703 156.665 63.6947 153.944 62.5563C152.665 62.0111 151.394 61.5479 150.153 61.1378C149.525 60.9496 148.922 60.7421 148.303 60.5974L146.497 60.1728L146.584 60.1197C143.271 73.6295 141.271 81.721 141.025 82.6039L140.914 82.4302Z" fill="#495E4C"/>
<path d="M157.523 140.808L157.658 140.668C158.752 139.546 159.49 138.125 159.778 136.586C160.067 135.046 159.893 133.455 159.28 132.014C158.666 130.572 157.64 129.344 156.329 128.483C155.019 127.623 153.484 127.168 151.915 127.177C150.347 127.186 148.817 127.657 147.516 128.532C146.216 129.407 145.203 130.647 144.605 132.095C144.008 133.543 143.852 135.136 144.157 136.672C144.463 138.209 145.216 139.621 146.323 140.731L146.41 140.808H127.526V161.984L127.603 161.893C128.331 161.162 129.197 160.581 130.15 160.185C131.103 159.788 132.125 159.583 133.157 159.582C134.456 159.58 135.735 159.897 136.883 160.505C138.031 161.112 139.012 161.992 139.739 163.067C140.467 164.141 140.92 165.378 141.058 166.669C141.195 167.959 141.014 169.263 140.529 170.467C140.045 171.671 139.272 172.738 138.278 173.573C137.284 174.409 136.1 174.988 134.83 175.26C133.56 175.532 132.243 175.489 130.994 175.133C129.744 174.778 128.602 174.121 127.666 173.222L127.526 173.082V197.361H148.82C148.82 197.361 149.786 189.26 150.752 183.103C151.718 176.947 165.506 164.387 169.462 159.152C171.056 157.044 174.992 150.13 176.706 140.817L157.523 140.808Z" fill="#E9E9E9"/>
<path d="M164.023 165.227C163.788 164.69 163.373 164.251 162.849 163.987C162.326 163.723 161.726 163.65 161.154 163.779C160.386 163.972 159.705 164.537 158.899 164.45C158.544 164.375 158.213 164.213 157.935 163.98C157.657 163.747 157.441 163.45 157.305 163.114C156.976 162.467 156.798 161.748 156.411 161.135C156.244 160.813 155.986 160.546 155.67 160.366C155.354 160.186 154.992 160.102 154.629 160.122C153.697 160.276 153.113 161.42 152.166 161.439C151.886 161.418 151.616 161.328 151.379 161.179C151.141 161.029 150.944 160.824 150.804 160.58C150.49 160.098 150.297 159.587 149.973 159.133C149.433 158.437 148.642 157.979 147.768 157.857C146.895 157.736 146.009 157.96 145.298 158.482C144.39 158.94 143.424 160.46 143.294 162.009C142.903 166.689 141.077 167.528 141.077 167.528C141.078 169.083 140.622 170.603 139.765 171.9C138.908 173.197 137.688 174.213 136.256 174.823C134.825 175.432 133.246 175.608 131.716 175.327C130.186 175.047 128.772 174.323 127.651 173.246L127.51 173.106V197.385H148.805C148.805 197.385 149.771 189.284 150.736 183.127L150.703 182.973C150.718 182.909 150.729 182.845 150.736 182.78C151.364 178.375 164.023 165.227 164.023 165.227Z" fill="#5CCD6A"/>
<path d="M157.523 140.807L176.726 140.74H176.808V140.822C176.041 144.934 174.803 148.944 173.118 152.773C172.155 155.017 170.972 157.16 169.587 159.171C168.027 161.193 166.207 163.113 164.333 165.13C162.459 167.147 160.527 169.221 158.59 171.402C156.567 173.637 154.7 176.009 153.002 178.5C152.106 179.777 151.422 181.192 150.979 182.688C150.684 184.237 150.496 185.848 150.245 187.455C149.791 190.678 149.361 193.988 148.955 197.356V197.462H127.4V172.777L127.613 172.995C128.463 173.855 129.504 174.505 130.651 174.892C131.799 175.279 133.021 175.393 134.22 175.224C135.01 175.124 135.778 174.895 136.494 174.548C136.852 174.38 137.198 174.187 137.528 173.969C137.85 173.742 138.158 173.496 138.45 173.231C139.442 172.317 140.18 171.162 140.592 169.878C141.003 168.594 141.074 167.226 140.798 165.906C140.521 164.587 139.907 163.361 139.015 162.35C138.122 161.339 136.983 160.576 135.707 160.136C135.006 159.889 134.272 159.748 133.529 159.716C132.792 159.672 132.053 159.74 131.336 159.919C129.918 160.27 128.628 161.012 127.613 162.061L127.405 162.274V161.984C127.405 154.515 127.405 147.437 127.405 140.807V140.701H127.511H146.395L146.337 140.861C145.302 139.863 144.556 138.604 144.178 137.218C143.831 135.902 143.831 134.519 144.178 133.203C144.621 131.437 145.655 129.875 147.108 128.776C148.562 127.678 150.349 127.11 152.171 127.166C153.992 127.223 155.74 127.9 157.123 129.086C158.506 130.272 159.442 131.895 159.774 133.686C159.891 134.348 159.932 135.022 159.894 135.693C159.825 136.749 159.542 137.779 159.064 138.723C158.773 139.303 158.41 139.843 157.982 140.33C157.842 140.499 157.721 140.614 157.648 140.692L157.528 140.807L157.639 140.687C157.711 140.6 157.822 140.484 157.962 140.315C159.066 139.014 159.717 137.391 159.817 135.688C159.841 135.367 159.841 135.044 159.817 134.723C159.757 133.618 159.459 132.538 158.943 131.558C158.21 130.142 157.063 128.983 155.654 128.235C154.245 127.486 152.642 127.183 151.057 127.367C149.472 127.551 147.981 128.213 146.782 129.264C145.582 130.315 144.732 131.706 144.343 133.252C144.005 134.541 144.005 135.895 144.343 137.184C144.718 138.535 145.448 139.761 146.458 140.735L146.617 140.894H146.395H127.511L127.617 140.788C127.617 147.418 127.617 154.496 127.617 161.965L127.415 161.888C128.459 160.801 129.79 160.031 131.254 159.668C132.747 159.317 134.309 159.394 135.76 159.89C136.882 160.276 137.904 160.906 138.754 161.733C139.604 162.56 140.26 163.565 140.676 164.676C141.091 165.786 141.255 166.974 141.157 168.156C141.059 169.337 140.7 170.482 140.107 171.509C139.704 172.212 139.194 172.849 138.595 173.395C138.29 173.67 137.967 173.924 137.629 174.157C137.288 174.381 136.931 174.581 136.562 174.756C135.822 175.113 135.03 175.348 134.215 175.45C133.397 175.567 132.566 175.556 131.752 175.417C130.102 175.133 128.583 174.342 127.405 173.154L127.622 173.062V180.411C127.622 186.2 127.622 191.918 127.622 197.341L127.501 197.221H148.796L148.675 197.327C149.09 193.946 149.525 190.643 149.979 187.416C150.216 185.8 150.418 184.213 150.718 182.635C151.169 181.113 151.864 179.674 152.775 178.374C154.484 175.877 156.36 173.5 158.392 171.258C160.324 169.057 162.28 166.983 164.149 164.985C166.018 162.988 167.849 161.053 169.399 159.051C170.781 157.053 171.961 154.925 172.925 152.696C174.613 148.881 175.859 144.886 176.639 140.788L176.702 140.865L157.523 140.807Z" fill="#495E4C"/>
<path d="M143.348 155.957C143.348 156.321 143.24 156.676 143.037 156.979C142.835 157.281 142.548 157.517 142.212 157.656C141.875 157.795 141.505 157.831 141.148 157.76C140.791 157.689 140.464 157.514 140.206 157.257C139.949 157 139.774 156.673 139.703 156.316C139.632 155.959 139.668 155.59 139.807 155.254C139.947 154.918 140.182 154.631 140.485 154.429C140.788 154.227 141.143 154.119 141.507 154.119C141.995 154.119 142.463 154.313 142.809 154.657C143.154 155.002 143.348 155.47 143.348 155.957V155.957Z" fill="#5CCD6A"/>
<g opacity="0.2">
<path d="M133.891 175.296C132.017 175.45 129.94 174.693 129.061 173.018L127.613 173.655C127.613 174.62 128.815 176.517 129.699 176.878C131.467 177.666 133.454 177.816 135.321 177.303C136.261 176.978 137.104 176.419 137.768 175.679C138.432 174.938 138.896 174.041 139.117 173.072C137.46 174.278 135.765 175.141 133.891 175.296Z" fill="black"/>
</g>
<path d="M116.567 88.4817C118.591 88.1602 120.66 88.6359 122.339 89.8085L122.489 89.9291L118.944 67.4835L116.751 67.8309C109.07 69.3844 101.874 72.7527 95.7637 77.6541C89.6533 82.5556 84.8067 88.8475 81.6294 96.0037C75.5584 109.325 76.8914 121.547 80.1804 130.83L82.518 130.459L100.726 127.588L100.61 127.752C99.7052 129.031 99.1988 130.549 99.1546 132.114C99.1104 133.68 99.5303 135.224 100.362 136.552C101.193 137.88 102.398 138.933 103.827 139.578C105.255 140.224 106.843 140.434 108.39 140.181C109.937 139.928 111.375 139.224 112.523 138.157C113.671 137.091 114.478 135.709 114.843 134.185C115.207 132.662 115.113 131.065 114.571 129.595C114.03 128.125 113.066 126.848 111.801 125.923L111.699 125.86L112.206 125.778L127.801 123.298L124.256 100.867L124.189 100.969C123.584 101.805 122.82 102.513 121.941 103.054C121.061 103.595 120.084 103.957 119.064 104.119C117.04 104.34 115.008 103.775 113.389 102.54C111.77 101.306 110.688 99.4967 110.367 97.4875C110.047 95.4783 110.511 93.4228 111.665 91.7464C112.82 90.0701 114.575 88.9012 116.567 88.4817V88.4817Z" fill="#5CCD6A"/>
<path d="M116.567 88.4812L116.036 88.6018C115.818 88.6484 115.603 88.7097 115.394 88.7852C115.268 88.8286 115.133 88.8672 114.988 88.9251L114.534 89.1229C113.746 89.4842 113.023 89.9733 112.394 90.5704C111.542 91.3902 110.882 92.3888 110.463 93.4943C110.34 93.8094 110.237 94.1317 110.153 94.4593C110.072 94.8119 110.015 95.1698 109.984 95.5304C109.903 96.304 109.944 97.0855 110.105 97.8464C110.483 99.7274 111.538 101.405 113.071 102.561C114.604 103.716 116.507 104.271 118.422 104.119C119.536 104.032 120.617 103.702 121.59 103.154C122.617 102.578 123.5 101.778 124.174 100.814L124.295 100.64L124.329 100.848C125.377 107.453 126.574 114.994 127.893 123.279V123.38H127.791L111.718 125.923L111.762 125.715C112.979 126.563 113.936 127.732 114.524 129.093C114.827 129.781 115.021 130.512 115.099 131.259C115.197 132.013 115.184 132.777 115.06 133.527C114.934 134.284 114.702 135.02 114.37 135.713C114.028 136.413 113.591 137.062 113.071 137.643C112.002 138.812 110.613 139.643 109.076 140.031C107.508 140.431 105.855 140.343 104.338 139.78C102.797 139.208 101.467 138.182 100.523 136.837C100.035 136.167 99.6678 135.417 99.4363 134.622C99.182 133.83 99.0565 133.003 99.0644 132.171C99.0748 130.478 99.6209 128.831 100.624 127.467L100.745 127.665L87.4586 129.759L80.2141 130.902H80.1078L80.074 130.801C78.6633 126.822 77.7784 122.676 77.4418 118.468C77.2786 116.42 77.2576 114.363 77.379 112.312C77.466 111.298 77.5239 110.285 77.6785 109.286C77.7461 108.804 77.7944 108.288 77.8861 107.795L78.1614 106.319C78.9203 102.489 80.1652 98.7709 81.8658 95.2554L83.1409 92.7223L83.4596 92.0951C83.5707 91.8876 83.7011 91.6946 83.817 91.492L84.5463 90.3002C84.783 89.9046 85.0293 89.5089 85.2659 89.1181L85.6233 88.5295L86.0242 87.9746L87.6228 85.7648C87.874 85.3932 88.1783 85.0603 88.4632 84.7178L89.3277 83.6997L90.1826 82.6865C90.4724 82.3584 90.7959 82.0592 91.1002 81.7456C91.7136 81.128 92.3076 80.4959 92.9307 79.9073L94.8626 78.2234C97.3612 76.1442 100.052 74.3072 102.899 72.7374C105.53 71.3223 108.277 70.1343 111.11 69.1863C113.665 68.3174 116.298 67.6969 118.972 67.3335H119.05V67.4107C120.634 77.5865 121.822 85.2002 122.551 89.8611V89.9528L122.488 89.9287C121.215 88.9896 119.689 88.4519 118.108 88.3847C117.723 88.3697 117.337 88.381 116.954 88.4185L116.577 88.4571C116.577 88.4571 116.698 88.433 116.954 88.3992C117.336 88.3504 117.722 88.3327 118.108 88.3461C119.702 88.3953 121.245 88.9251 122.532 89.866L122.469 89.9046C121.725 85.2485 120.508 77.6347 118.881 67.4686L118.972 67.5361C116.31 67.9009 113.689 68.5247 111.148 69.3986C105.226 71.352 99.7319 74.4159 94.9592 78.426L93.0514 80.1051C92.4284 80.6938 91.8392 81.3258 91.2258 81.9386C90.9264 82.2522 90.6076 82.5514 90.3178 82.9036C90.028 83.2558 89.7527 83.5742 89.4678 83.912L88.6081 84.9252C88.3096 85.2591 88.0291 85.6086 87.7677 85.9722L86.1836 88.1676L85.7827 88.6983L85.4253 89.2821L84.7105 90.4643L83.9909 91.6512C83.8701 91.849 83.7446 92.0468 83.6335 92.2495L83.3196 92.8767C82.8945 93.7114 82.4744 94.551 82.0494 95.3953C80.3601 98.8964 79.1234 102.598 78.3691 106.411C78.2822 106.893 78.1904 107.376 78.0987 107.858C78.0069 108.341 77.9586 108.823 77.891 109.344C77.7364 110.309 77.6785 111.342 77.5964 112.35C77.475 114.39 77.4959 116.436 77.6591 118.473C77.9954 122.66 78.8771 126.784 80.2817 130.743L80.1465 130.661L87.391 129.517L100.682 127.423L100.982 127.375L100.803 127.616C100.074 128.599 99.5898 129.74 99.3891 130.946C99.1884 132.153 99.2774 133.389 99.6488 134.555C99.7663 134.938 99.9116 135.312 100.083 135.674C100.264 136.031 100.471 136.375 100.702 136.702C101.617 138.006 102.907 139.002 104.401 139.558C105.136 139.826 105.905 139.989 106.686 140.041C107.462 140.072 108.239 139.995 108.994 139.814C109.74 139.627 110.454 139.333 111.115 138.94C112.42 138.154 113.469 137.006 114.133 135.635C114.451 134.961 114.677 134.247 114.804 133.512C114.923 132.785 114.936 132.044 114.843 131.312C114.764 130.587 114.577 129.878 114.288 129.209C113.716 127.889 112.792 126.752 111.617 125.923L111.38 125.759L111.66 125.715L127.758 123.221L127.671 123.341C126.352 115.018 125.183 107.482 124.15 100.881L124.3 100.91C123.608 101.895 122.704 102.712 121.653 103.299C120.658 103.854 119.554 104.183 118.417 104.264C116.469 104.413 114.535 103.843 112.979 102.662C111.424 101.481 110.357 99.7708 109.98 97.8561C109.821 97.0833 109.784 96.2906 109.868 95.5063C109.923 94.7959 110.086 94.0979 110.351 93.4364C110.721 92.4698 111.279 91.5857 111.992 90.8348C112.704 90.0838 113.558 89.4808 114.505 89.0602L114.964 88.8624L115.374 88.7321C115.585 88.6581 115.801 88.6016 116.021 88.5632C116.384 88.4812 116.567 88.4812 116.567 88.4812Z" fill="#495E4C"/>
<path d="M127.188 197.423H107.932C107.932 197.423 106.966 189.322 106 183.165C105.034 177.008 91.245 164.449 87.2895 159.209C85.6957 157.101 81.7595 150.191 80.0449 140.874H98.2336L98.0935 141.019C96.9985 142.142 96.2602 143.563 95.9713 145.104C95.6823 146.645 95.8557 148.236 96.4696 149.679C97.0836 151.122 98.1106 152.351 99.4217 153.212C100.733 154.073 102.269 154.528 103.839 154.519C105.408 154.511 106.939 154.039 108.241 153.163C109.542 152.287 110.556 151.047 111.153 149.598C111.751 148.148 111.907 146.555 111.601 145.017C111.295 143.48 110.541 142.067 109.434 140.956L109.347 140.874L127.048 141.005V162.181C127.048 162.181 128.699 159.668 132.684 159.769C136.668 159.87 139.677 162.702 140.32 165.559C140.962 168.415 140.426 173.805 135.055 175.257C129.685 176.709 126.99 172.926 126.99 172.926L127.048 197.534" fill="white"/>
<path d="M127.023 196.342C127.091 196.342 127.149 196.612 127.149 196.945C127.149 197.278 127.095 197.548 127.023 197.548C126.951 197.548 126.897 197.278 126.897 196.945C126.897 196.612 126.951 196.342 127.023 196.342Z" fill="#495E4C"/>
<path d="M127.008 191.406C127.131 191.805 127.175 192.225 127.139 192.641C127.181 193.057 127.138 193.477 127.013 193.876C126.891 193.477 126.848 193.057 126.888 192.641C126.845 192.225 126.886 191.805 127.008 191.406V191.406Z" fill="#495E4C"/>
<path d="M126.999 186.47C127.121 186.87 127.164 187.29 127.125 187.706C127.167 188.121 127.126 188.541 127.004 188.941C126.879 188.542 126.834 188.122 126.873 187.706C126.831 187.29 126.874 186.869 126.999 186.47V186.47Z" fill="#495E4C"/>
<path d="M126.985 181.535C127.11 181.934 127.155 182.354 127.116 182.77C127.158 183.186 127.115 183.606 126.99 184.005C126.868 183.606 126.825 183.186 126.864 182.77C126.822 182.354 126.863 181.934 126.985 181.535V181.535Z" fill="#495E4C"/>
<path d="M126.975 176.599C127.097 176.998 127.14 177.418 127.101 177.834C127.143 178.249 127.102 178.669 126.98 179.069C126.857 178.669 126.813 178.25 126.849 177.834C126.807 177.418 126.85 176.997 126.975 176.599V176.599Z" fill="#495E4C"/>
<path d="M127.801 173.795C127.801 173.824 127.656 173.757 127.482 173.622C127.378 173.543 127.28 173.457 127.187 173.366L127.028 173.197L126.946 173.101L126.907 173.052V173.028L127.134 172.956C127.176 173.362 127.134 173.773 127.009 174.162C126.865 173.764 126.805 173.34 126.835 172.917L127.062 172.845V172.869L127.1 172.917L127.173 173.009L127.313 173.178L127.559 173.467C127.738 173.66 127.801 173.771 127.801 173.795Z" fill="#495E4C"/>
<path d="M132.081 175.566C131.279 175.68 130.463 175.489 129.796 175.03C130.188 175.057 130.575 175.137 130.946 175.267C131.335 175.317 131.717 175.417 132.081 175.566V175.566Z" fill="#495E4C"/>
<path d="M136.649 174.634C136.688 174.692 136.239 175.001 135.606 175.213C135.235 175.375 134.83 175.44 134.427 175.402C134.427 175.324 134.91 175.18 135.524 174.977C135.882 174.812 136.26 174.697 136.649 174.634V174.634Z" fill="#495E4C"/>
<path d="M139.792 171.242C139.752 171.648 139.596 172.033 139.343 172.352C138.986 172.912 138.565 173.264 138.522 173.216C138.479 173.168 138.792 172.733 139.131 172.212C139.469 171.691 139.725 171.214 139.792 171.242Z" fill="#495E4C"/>
<path d="M140.463 166.645C140.624 167.015 140.682 167.422 140.633 167.822C140.668 168.225 140.593 168.631 140.415 168.995C140.347 168.606 140.336 168.209 140.381 167.817C140.351 167.425 140.378 167.029 140.463 166.645Z" fill="#495E4C"/>
<path d="M138.567 162.413C138.615 162.365 139.049 162.712 139.407 163.262C139.671 163.571 139.839 163.95 139.89 164.353C139.827 164.382 139.566 163.928 139.204 163.388C138.842 162.848 138.513 162.462 138.567 162.413Z" fill="#495E4C"/>
<path d="M134.562 160.039C134.967 160.016 135.37 160.106 135.726 160.3C136.34 160.551 136.77 160.883 136.731 160.941C136.347 160.855 135.977 160.717 135.63 160.531C135.254 160.414 134.895 160.249 134.562 160.039Z" fill="#495E4C"/>
<path d="M129.906 160.16C130.234 159.917 130.625 159.775 131.032 159.75C131.422 159.64 131.835 159.64 132.225 159.75C131.853 159.88 131.464 159.958 131.07 159.981C130.691 160.086 130.3 160.146 129.906 160.16V160.16Z" fill="#495E4C"/>
<path d="M127.023 160.966C127.148 161.355 127.191 161.766 127.149 162.172L126.917 162.1V162.076L126.956 162.023L127.033 161.926L127.192 161.757C127.283 161.662 127.381 161.575 127.487 161.497C127.661 161.362 127.786 161.304 127.811 161.328C127.835 161.352 127.748 161.463 127.608 161.627C127.468 161.791 127.434 161.83 127.361 161.912L127.221 162.085L127.154 162.177L127.12 162.225V162.249L126.888 162.182C126.85 161.772 126.896 161.358 127.023 160.966Z" fill="#495E4C"/>
<path d="M127.023 155.605C127.19 156.49 127.19 157.399 127.023 158.283C126.856 157.399 126.856 156.49 127.023 155.605V155.605Z" fill="#495E4C"/>
<path d="M127.023 150.239C127.19 151.124 127.19 152.032 127.023 152.917C126.856 152.032 126.856 151.124 127.023 150.239V150.239Z" fill="#495E4C"/>
<path d="M127.023 144.884C127.19 145.769 127.19 146.677 127.023 147.562C126.856 146.677 126.856 145.769 127.023 144.884V144.884Z" fill="#495E4C"/>
<path d="M125.816 140.986C126.207 140.867 126.617 140.828 127.023 140.87L127.149 140.996V141.222C127.149 141.295 127.149 141.372 127.149 141.449C127.149 141.526 127.149 141.724 127.149 141.835C127.125 142.052 127.091 142.187 127.057 142.187C127.023 142.187 126.99 142.052 126.97 141.835C126.97 141.724 126.97 141.594 126.941 141.449V140.996L127.067 141.121C126.645 141.166 126.218 141.12 125.816 140.986V140.986Z" fill="#495E4C"/>
<path d="M121.45 140.957C121.799 140.832 122.173 140.791 122.541 140.836C122.911 140.8 123.283 140.846 123.633 140.971C123.282 141.09 122.909 141.129 122.541 141.087C122.172 141.123 121.8 141.079 121.45 140.957V140.957Z" fill="#495E4C"/>
<path d="M117.08 140.923C117.8 140.759 118.547 140.759 119.267 140.923C118.916 141.047 118.541 141.088 118.171 141.044C117.803 141.084 117.43 141.043 117.08 140.923V140.923Z" fill="#495E4C"/>
<path d="M112.713 140.894C113.063 140.769 113.436 140.728 113.805 140.773C114.174 140.734 114.548 140.78 114.896 140.908C114.545 141.027 114.173 141.066 113.805 141.024C113.436 141.06 113.063 141.016 112.713 140.894V140.894Z" fill="#495E4C"/>
<path d="M110.125 141.768C110.096 141.768 109.985 141.705 109.825 141.555C109.743 141.483 109.651 141.391 109.555 141.29L109.405 141.126L109.328 141.039L109.284 141C109.212 141.193 109.391 140.73 109.371 140.778C109.779 140.742 110.189 140.788 110.579 140.914C110.189 141.035 109.777 141.075 109.371 141.029C109.371 141.078 109.531 140.614 109.453 140.812V140.836L109.497 140.88L109.579 140.971L109.724 141.15C109.816 141.266 109.898 141.372 109.96 141.464C110.086 141.623 110.154 141.743 110.125 141.768Z" fill="#495E4C"/>
<path d="M111.713 146.085C111.575 145.72 111.484 145.339 111.442 144.951C111.324 144.579 111.258 144.193 111.244 143.803C111.494 144.12 111.648 144.502 111.689 144.903C111.81 145.287 111.819 145.697 111.713 146.085Z" fill="#495E4C"/>
<path d="M110.608 150.558C110.852 149.819 111.149 149.098 111.496 148.401C111.466 149.203 111.151 149.967 110.608 150.558V150.558Z" fill="#495E4C"/>
<path d="M107.197 153.656C107.168 153.588 107.618 153.328 108.163 152.976C108.709 152.623 109.1 152.305 109.129 152.358C109.158 152.411 108.83 152.841 108.284 153.183C107.974 153.44 107.597 153.604 107.197 153.656Z" fill="#495E4C"/>
<path d="M102.638 154.336C103.019 154.243 103.415 154.228 103.802 154.293C104.19 154.222 104.589 154.237 104.971 154.336C104.601 154.484 104.205 154.555 103.807 154.544C103.407 154.558 103.008 154.487 102.638 154.336V154.336Z" fill="#495E4C"/>
<path d="M98.4704 152.372C98.5187 152.319 98.9534 152.633 99.4364 152.985C99.9193 153.337 100.402 153.598 100.402 153.665C100.002 153.61 99.6251 153.443 99.3156 153.183C98.7747 152.83 98.4221 152.42 98.4704 152.372Z" fill="#495E4C"/>
<path d="M96.0991 148.425C96.3071 148.754 96.4696 149.11 96.5821 149.482C96.7664 149.826 96.9045 150.192 96.9926 150.572C96.9346 150.611 96.6014 150.186 96.3502 149.578C96.1571 149.226 96.0699 148.826 96.0991 148.425Z" fill="#495E4C"/>
<path d="M96.3258 143.823C96.3156 144.213 96.2523 144.599 96.1375 144.972C96.1024 145.36 96.0129 145.742 95.8718 146.105C95.7413 145.315 95.9026 144.504 96.3258 143.823V143.823Z" fill="#495E4C"/>
<path d="M97.0015 140.865C97.3915 140.743 97.8021 140.7 98.209 140.74C98.2476 140.836 98.122 140.527 98.3007 140.957L98.2573 141L98.1751 141.082L98.0254 141.251L97.7598 141.521C97.6052 141.671 97.4893 141.753 97.4652 141.733C97.441 141.714 97.499 141.589 97.6246 141.41C97.6873 141.319 97.7646 141.208 97.8516 141.092L97.9964 140.913C98.0212 140.88 98.0487 140.85 98.0786 140.822L98.122 140.778C98.3007 141.208 98.1703 140.899 98.209 140.99C97.8021 141.033 97.3909 140.99 97.0015 140.865V140.865Z" fill="#495E4C"/>
<path d="M92.8151 140.865C92.8151 140.797 93.0855 140.74 93.4188 140.74C93.752 140.74 94.0225 140.797 94.0225 140.865C94.0225 140.933 93.752 140.99 93.4188 140.99C93.0855 140.99 92.8151 140.937 92.8151 140.865Z" fill="#495E4C"/>
<path d="M127.25 197.422H126.903H125.893H122.029L107.999 197.524H107.912V197.437C107.429 193.485 106.84 189.003 106.106 184.183C105.922 181.722 104.507 179.527 103.029 177.428C101.455 175.27 99.7683 173.196 97.9775 171.213C95.6061 168.535 93.2009 166.007 90.9262 163.537C89.796 162.297 88.6852 161.076 87.6709 159.822C87.1704 159.201 86.7137 158.546 86.3041 157.863C85.8888 157.197 85.5121 156.516 85.1498 155.846C83.8227 153.308 82.7096 150.665 81.8222 147.943C81.0475 145.635 80.4343 143.276 79.9869 140.884V140.782H80.0883L89.1778 140.821L91.5927 140.845H92.2253H92.4379H92.2253H91.5927H89.1778L80.0883 140.884L80.1704 140.782C80.6203 143.156 81.2302 145.497 81.996 147.788C82.8909 150.496 84.0088 153.125 85.3382 155.648C85.6956 156.319 86.0723 156.994 86.4877 157.655C86.8955 158.329 87.3489 158.973 87.8448 159.585C88.8494 160.825 89.9602 162.041 91.0952 163.276C93.37 165.747 95.78 168.27 98.1514 170.958C99.9496 172.967 101.639 175.07 103.213 177.259C103.969 178.305 104.65 179.403 105.251 180.545C105.54 181.11 105.779 181.699 105.966 182.306C106.13 182.906 106.25 183.517 106.323 184.134C107.048 188.959 107.613 193.442 108.091 197.408L107.99 197.316L122.025 197.36L125.888 197.389H126.898C127.134 197.413 127.25 197.422 127.25 197.422Z" fill="#495E4C"/>
<path d="M125.981 197.423C125.981 197.351 126.251 197.298 126.584 197.298C126.918 197.298 127.188 197.351 127.188 197.423C127.188 197.496 126.918 197.549 126.584 197.549C126.251 197.549 125.981 197.491 125.981 197.423Z" fill="#495E4C"/>
<path d="M121.17 197.423C121.966 197.254 122.789 197.254 123.585 197.423C122.789 197.592 121.966 197.592 121.17 197.423V197.423Z" fill="#495E4C"/>
<path d="M116.354 197.423C117.15 197.254 117.973 197.254 118.769 197.423C117.973 197.592 117.15 197.592 116.354 197.423V197.423Z" fill="#495E4C"/>
<path d="M111.543 197.423C112.34 197.254 113.162 197.254 113.958 197.423C113.162 197.592 112.34 197.592 111.543 197.423V197.423Z" fill="#495E4C"/>
<path d="M107.782 196.226C107.816 196.226 107.864 196.352 107.917 196.564C107.917 196.675 107.966 196.8 107.99 196.945C108.014 197.09 108.014 197.1 108.024 197.167V197.288V197.35V197.403C107.966 197.355 108.144 197.519 107.898 197.293C108.305 197.25 108.716 197.293 109.106 197.418C108.716 197.54 108.305 197.583 107.898 197.543C107.898 197.288 107.734 197.486 107.773 197.428V197.312V197.191V196.969C107.773 196.824 107.773 196.694 107.773 196.583C107.734 196.366 107.748 196.231 107.782 196.226Z" fill="#495E4C"/>
<path d="M107.144 191.251C107.421 192.049 107.532 192.895 107.468 193.736C107.197 192.938 107.087 192.093 107.144 191.251V191.251Z" fill="#495E4C"/>
<path d="M106.459 186.296C106.64 186.679 106.742 187.094 106.758 187.517C106.857 187.93 106.875 188.357 106.811 188.776C106.53 187.981 106.411 187.138 106.459 186.296V186.296Z" fill="#495E4C"/>
<path d="M105.454 181.404C105.728 181.736 105.911 182.133 105.985 182.557C106.121 182.962 106.158 183.394 106.092 183.816C106.009 183.816 105.908 183.271 105.744 182.62C105.596 182.228 105.498 181.82 105.454 181.404V181.404Z" fill="#495E4C"/>
<path d="M102.893 177.11C103.22 177.378 103.492 177.706 103.695 178.075C103.965 178.402 104.165 178.779 104.284 179.185C104.226 179.224 103.869 178.789 103.483 178.22C103.214 177.893 103.014 177.516 102.893 177.11Z" fill="#495E4C"/>
<path d="M99.7885 173.178C99.8416 173.134 100.243 173.535 100.682 174.07C100.981 174.371 101.219 174.726 101.382 175.117C101.324 175.161 100.928 174.76 100.489 174.23C100.188 173.928 99.9502 173.571 99.7885 173.178V173.178Z" fill="#495E4C"/>
<path d="M96.476 169.42C96.5243 169.376 96.959 169.753 97.4033 170.269C97.7158 170.556 97.9685 170.902 98.1471 171.287C98.094 171.335 97.6641 170.954 97.215 170.438C96.7658 169.922 96.4084 169.468 96.476 169.42Z" fill="#495E4C"/>
<path d="M93.0759 165.737C93.1242 165.689 93.5589 166.061 94.0419 166.572C94.3593 166.854 94.6185 167.195 94.805 167.576C94.7518 167.619 94.322 167.248 93.839 166.741C93.356 166.234 93.0276 165.786 93.0759 165.737Z" fill="#495E4C"/>
<path d="M89.6803 162.051C89.7286 162.003 90.1633 162.379 90.6173 162.891C90.9286 163.177 91.1841 163.519 91.3707 163.899C91.3176 163.947 90.8878 163.571 90.4289 163.06C89.9701 162.548 89.6465 162.095 89.6803 162.051Z" fill="#495E4C"/>
<path d="M87.2797 159.209C87.3329 159.166 87.5454 159.344 87.7627 159.605C87.98 159.866 88.0911 160.088 88.038 160.155C87.9849 160.223 87.7724 160.02 87.555 159.759C87.3377 159.499 87.2314 159.253 87.2797 159.209Z" fill="#495E4C"/>
</g>
<defs>
<clipPath id="clip0_206_77">
<rect width="279" height="246" fill="white" transform="translate(0.491699 0.206177)"/>
</clipPath>
</defs>
</svg>
